<svg xmlns="http://www.w3.org/2000/svg" xmlns:xlink="http://www.w3.org/1999/xlink" width="275" height="211.662" viewBox="0 0 275 211.662">
  <defs>
    <linearGradient id="linear-gradient" x1="0.531" y1="1.017" x2="0.531" y2="-0.007" gradientUnits="objectBoundingBox">
      <stop offset="0" stop-color="gray" stop-opacity="0.251"/>
      <stop offset="0.54" stop-color="gray" stop-opacity="0.122"/>
      <stop offset="1" stop-color="gray" stop-opacity="0.102"/>
    </linearGradient>
    <linearGradient id="linear-gradient-2" x1="0.5" y1="1" x2="0.5" y2="0.001" xlink:href="#linear-gradient"/>
  </defs>
  <g id="undraw_co-working_825n" transform="translate(0.007 0)">
    <path id="Path_360" data-name="Path 360" d="M297.366,138.559c-10.133,15.242-7.568,36.427-2.466,53.208,1.718,5.617,3.659,11.553,2.506,17.762-1.411,7.593-7.163,13.441-13.06,16.714-10.746,5.971-23.22,5.48-32.474-1.274-8-5.838-13.433-15.8-21.6-21.35-13.642-9.257-31.858-4.3-47.588,3.652-11.129,5.622-23.347,12.793-33.895,8.295-7.421-3.166-12.231-11.691-14.621-20.9-1.153-4.444-1.909-9.286-4.368-12.714a16.306,16.306,0,0,0-5.47-4.572c-18.579-10.488-43.092-2.736-61.068-14.53-12.13-7.951-19.347-23.936-22.042-40.906s-1.367-35.019.434-52.781C42.937,56.546,44.77,43.044,51.81,32.926A32.4,32.4,0,0,1,81.995,18.951c10.655,1.283,20.025,7.639,28.179,15.313,10.192,9.571,19.478,21.708,32.418,25.031,8.812,2.27,18.309.14,27.571-.982,15.485-1.853,30.83-.822,46.072.4,14.594,1.173,29.281,2.55,42.987,7.551,9.7,3.539,17.262,10.587,26.354,15.274,5.926,3.055,12.528,3.59,18.081,7.607,6.842,4.945,12.888,13.912,10.511,24.992C311.906,124.689,302.743,130.461,297.366,138.559Z" transform="translate(-39.7 -18.74)" fill="#6c63ff" opacity="0.1"/>
    <rect id="Rectangle_105" data-name="Rectangle 105" width="10.034" height="15.19" transform="translate(216.144 62.926)" fill="#6c63ff" opacity="0.1"/>
    <rect id="Rectangle_106" data-name="Rectangle 106" width="8.084" height="12.236" transform="translate(217.119 64.403)" fill="#6c63ff" opacity="0.1"/>
    <rect id="Rectangle_107" data-name="Rectangle 107" width="15.411" height="15.19" transform="translate(195.776 52.373)" fill="#6c63ff" opacity="0.1"/>
    <rect id="Rectangle_108" data-name="Rectangle 108" width="12.415" height="12.236" transform="translate(197.273 53.851)" fill="#6c63ff" opacity="0.1"/>
    <rect id="Rectangle_109" data-name="Rectangle 109" width="47.105" height="1.254" transform="translate(15.853 29.772)" fill="#6c63ff" opacity="0.1"/>
    <rect id="Rectangle_110" data-name="Rectangle 110" width="47.105" height="1.254" transform="translate(15.853 35.904)" fill="#6c63ff" opacity="0.1"/>
    <rect id="Rectangle_111" data-name="Rectangle 111" width="4.812" height="53.777" transform="translate(95.316 111.076)" fill="#d6d6e3"/>
    <path id="Path_361" data-name="Path 361" d="M921.2,325.818V276.212A5.215,5.215,0,0,1,926.412,271h0a5.215,5.215,0,0,1,5.2,5.212v60.035a5.215,5.215,0,0,1-5.215,5.215H894.1a5.215,5.215,0,0,1-5.215-5.215h0a5.215,5.215,0,0,1,5.215-5.215h21.878A5.215,5.215,0,0,0,921.2,325.818Z" transform="translate(-680.503 -209.095)" fill="#aebee1"/>
    <path id="Path_362" data-name="Path 362" d="M921.2,325.818V276.212A5.215,5.215,0,0,1,926.412,271h0a5.215,5.215,0,0,1,5.2,5.212v60.035a5.215,5.215,0,0,1-5.215,5.215H894.1a5.215,5.215,0,0,1-5.215-5.215h0a5.215,5.215,0,0,1,5.215-5.215h21.878A5.215,5.215,0,0,0,921.2,325.818Z" transform="translate(-680.503 -209.095)" fill="#535461"/>
    <path id="Path_363" data-name="Path 363" d="M888.92,335.967a5.215,5.215,0,0,1,5.207-4.935H916a5.215,5.215,0,0,0,5.215-5.215V276.212A5.215,5.215,0,0,1,926.184,271v64.967Z" transform="translate(-680.525 -209.095)" fill="#d6d6e3"/>
    <path id="Path_364" data-name="Path 364" d="M200.167,332.63V283.025a5.215,5.215,0,0,0-5.2-5.215h0a5.215,5.215,0,0,0-5.215,5.215V343.06a5.215,5.215,0,0,0,5.215,5.227H227.26a5.215,5.215,0,0,0,5.215-5.215h0a5.215,5.215,0,0,0-5.215-5.215H205.384a5.215,5.215,0,0,1-5.217-5.227Z" transform="translate(-152.932 -214.234)" fill="#aebee1"/>
    <path id="Path_365" data-name="Path 365" d="M200.167,332.63V283.025a5.215,5.215,0,0,0-5.2-5.215h0a5.215,5.215,0,0,0-5.215,5.215V343.06a5.215,5.215,0,0,0,5.215,5.227H227.26a5.215,5.215,0,0,0,5.215-5.215h0a5.215,5.215,0,0,0-5.215-5.215H205.384a5.215,5.215,0,0,1-5.217-5.227Z" transform="translate(-152.932 -214.234)" fill="#535461"/>
    <path id="Path_366" data-name="Path 366" d="M249.257,342.8a5.215,5.215,0,0,0-5.207-4.935H222.174a5.215,5.215,0,0,1-5.217-5.215V283.048A5.215,5.215,0,0,0,212,277.84V342.8Z" transform="translate(-169.722 -214.257)" fill="#d6d6e3"/>
    <rect id="Rectangle_112" data-name="Rectangle 112" width="4.812" height="55.031" transform="translate(190.525 111.076)" fill="#d6d6e3"/>
    <rect id="Rectangle_113" data-name="Rectangle 113" width="4.812" height="3.975" transform="translate(95.316 111.076)" opacity="0.1"/>
    <rect id="Rectangle_114" data-name="Rectangle 114" width="4.812" height="3.975" transform="translate(190.525 111.076)" opacity="0.1"/>
    <path id="Path_367" data-name="Path 367" d="M495.182,337.92q-.115,1.271-.292,2.577h-.68V337.92Z" transform="translate(-382.678 -259.593)" opacity="0.1"/>
    <path id="Path_368" data-name="Path 368" d="M514.9,364.7a1.485,1.485,0,0,1-1.391,1.585H498.821V364.75h12.221a.768.768,0,0,0,.591-1.148l-11.082-22.54a.982.982,0,0,0-.859-.555H494.21V337.93h6.923a.687.687,0,0,1,.6.388l12.7,24.54A4.171,4.171,0,0,1,514.9,364.7Z" transform="translate(-382.678 -259.601)" fill="#535461"/>
    <path id="Path_369" data-name="Path 369" d="M462.193,289.826l-.2.339-1.882-1.256,5.823-44.778h1.5s.061.206.162.6C468.6,248.6,473.529,270.516,462.193,289.826Z" transform="translate(-356.946 -188.819)" fill="#535461"/>
    <path id="Path_370" data-name="Path 370" d="M467.592,244.729l-5.4,45.1-.2.339-1.882-1.256,5.823-44.778h1.5S467.492,244.344,467.592,244.729Z" transform="translate(-356.946 -188.819)" opacity="0.1"/>
    <rect id="Rectangle_115" data-name="Rectangle 115" width="46.452" height="3.558" transform="translate(101.46 100.97) rotate(-83.17)" fill="#d6d6e3"/>
    <path id="Path_371" data-name="Path 371" d="M399.313,445.787a.422.422,0,0,1-.42.42h-.628a.42.42,0,0,1-.42-.42.2.2,0,0,1,0-.049.42.42,0,0,1,.415-.368h.628a.422.422,0,0,1,.4.319A.386.386,0,0,1,399.313,445.787Z" transform="translate(-309.96 -340.675)" fill="#e3edf9"/>
    <path id="Path_372" data-name="Path 372" d="M406.988,445.787a.422.422,0,0,1-.42.42h-.628a.42.42,0,0,1-.42-.42.414.414,0,0,1,.017-.115.4.4,0,0,1,.106-.179.41.41,0,0,1,.294-.123h.628a.422.422,0,0,1,.385.245A.432.432,0,0,1,406.988,445.787Z" transform="translate(-315.752 -340.675)" fill="#e3edf9"/>
    <path id="Path_373" data-name="Path 373" d="M413.807,445.78a.422.422,0,0,1-.42.42h-.628a.42.42,0,0,1-.42-.42.4.4,0,0,1,.037-.174.427.427,0,0,1,.38-.245h.628a.417.417,0,0,1,.42.42Z" transform="translate(-320.898 -340.667)" fill="#e3edf9"/>
    <path id="Path_374" data-name="Path 374" d="M421.489,445.787a.422.422,0,0,1-.42.42h-.628a.42.42,0,0,1-.344-.66l.049-.054a.41.41,0,0,1,.294-.123h.628a.422.422,0,0,1,.3.135A.4.4,0,0,1,421.489,445.787Z" transform="translate(-326.695 -340.675)" fill="#e3edf9"/>
    <path id="Path_375" data-name="Path 375" d="M399.3,446.66a.386.386,0,0,1,.012.1.422.422,0,0,1-.42.42h-.628a.42.42,0,0,1-.42-.42.2.2,0,0,1,0-.049Z" transform="translate(-309.96 -341.648)" opacity="0.1"/>
    <path id="Path_376" data-name="Path 376" d="M406.953,446.39a.432.432,0,0,1,.034.164.422.422,0,0,1-.42.42h-.628a.42.42,0,0,1-.42-.42.412.412,0,0,1,.017-.115Z" transform="translate(-315.752 -341.444)" opacity="0.1"/>
    <path id="Path_377" data-name="Path 377" d="M413.754,446.16a.418.418,0,0,1-.356.64h-.628a.42.42,0,0,1-.42-.42.4.4,0,0,1,.037-.174Z" transform="translate(-320.906 -341.271)" opacity="0.1"/>
    <path id="Path_378" data-name="Path 378" d="M421.489,446.195a.422.422,0,0,1-.42.42h-.628a.42.42,0,0,1-.344-.66l1.276-.044a.4.4,0,0,1,.115.285Z" transform="translate(-326.695 -341.082)" opacity="0.1"/>
    <path id="Path_379" data-name="Path 379" d="M404.025,448.251H391.89V447.7a.945.945,0,0,1,.913-.945l9.733-.336a1.443,1.443,0,0,1,1.492,1.44Z" transform="translate(-305.467 -341.465)" fill="#d6d6e3"/>
    <path id="Path_380" data-name="Path 380" d="M685.309,364.7a1.485,1.485,0,0,0,1.391,1.585H701.4V364.75H689.16a.768.768,0,0,1-.591-1.148l11.082-22.54a.982.982,0,0,1,.859-.555h5.485V337.93h-6.918a.687.687,0,0,0-.591.385l-12.7,24.54A4.172,4.172,0,0,0,685.309,364.7Z" transform="translate(-526.881 -259.601)" fill="#535461"/>
    <path id="Path_381" data-name="Path 381" d="M772.686,289.826l.2.339,1.882-1.256-5.823-44.778h-1.5s-.061.206-.162.6C766.278,248.6,761.338,270.516,772.686,289.826Z" transform="translate(-587.28 -188.819)" fill="#535461"/>
    <path id="Path_382" data-name="Path 382" d="M773.23,244.729l5.4,45.1.2.339,1.882-1.256-5.821-44.778h-1.5S773.331,244.344,773.23,244.729Z" transform="translate(-593.226 -188.819)" opacity="0.1"/>
    <rect id="Rectangle_116" data-name="Rectangle 116" width="3.558" height="46.452" transform="translate(180.136 55.267) rotate(-6.83)" fill="#d6d6e3"/>
    <path id="Path_383" data-name="Path 383" d="M860,445.787a.422.422,0,0,0,.42.42h.628a.42.42,0,0,0,.42-.42.2.2,0,0,0,0-.049.42.42,0,0,0-.415-.368h-.628a.422.422,0,0,0-.4.319.388.388,0,0,0-.02.1Z" transform="translate(-658.702 -340.675)" fill="#e3edf9"/>
    <path id="Path_384" data-name="Path 384" d="M852.328,445.787a.422.422,0,0,0,.42.42h.628a.42.42,0,0,0,.42-.42.415.415,0,0,0-.017-.115.4.4,0,0,0-.106-.179.41.41,0,0,0-.294-.123h-.64a.422.422,0,0,0-.385.245.432.432,0,0,0-.025.172Z" transform="translate(-652.912 -340.675)" fill="#e3edf9"/>
    <path id="Path_385" data-name="Path 385" d="M845.51,445.78a.422.422,0,0,0,.42.42h.628a.42.42,0,0,0,.42-.42.4.4,0,0,0-.037-.174.427.427,0,0,0-.38-.245h-.628a.417.417,0,0,0-.42.42Z" transform="translate(-647.768 -340.667)" fill="#e3edf9"/>
    <path id="Path_386" data-name="Path 386" d="M837.83,445.787a.422.422,0,0,0,.42.42h.628a.42.42,0,0,0,.344-.66l-.049-.054a.41.41,0,0,0-.294-.123h-.628a.422.422,0,0,0-.3.135A.4.4,0,0,0,837.83,445.787Z" transform="translate(-641.973 -340.675)" fill="#e3edf9"/>
    <path id="Path_387" data-name="Path 387" d="M860.012,446.66a.386.386,0,0,0-.012.1.422.422,0,0,0,.42.42h.628a.42.42,0,0,0,.42-.42.2.2,0,0,0,0-.049Z" transform="translate(-658.702 -341.648)" opacity="0.1"/>
    <path id="Path_388" data-name="Path 388" d="M852.364,446.39a.432.432,0,0,0-.034.164.422.422,0,0,0,.42.42h.628a.42.42,0,0,0,.42-.42.412.412,0,0,0-.017-.115Z" transform="translate(-652.915 -341.444)" opacity="0.1"/>
    <path id="Path_389" data-name="Path 389" d="M845.564,446.16a.418.418,0,0,0,.356.641h.628a.42.42,0,0,0,.42-.42.4.4,0,0,0-.037-.174Z" transform="translate(-647.761 -341.271)" opacity="0.1"/>
    <path id="Path_390" data-name="Path 390" d="M837.83,446.195a.422.422,0,0,0,.42.42h.628a.42.42,0,0,0,.344-.66l-1.276-.044a.4.4,0,0,0-.115.285Z" transform="translate(-641.973 -341.082)" opacity="0.1"/>
    <path id="Path_391" data-name="Path 391" d="M822.482,448.251h12.135V447.7a.945.945,0,0,0-.913-.945l-9.733-.336a1.443,1.443,0,0,0-1.492,1.44Z" transform="translate(-630.39 -341.465)" fill="#d6d6e3"/>
    <path id="Path_392" data-name="Path 392" d="M844.3,271.272c5.661-9.6,3.61-28.972,3.838-29.343.2-.326-.577-9.448-5.779-11.676-.94-1.863-1.865-3.961-1.865-3.961a1.652,1.652,0,0,1-.3.223q-.061-.167-.12-.339c-.066-.194-.128-.393-.189-.591a3.812,3.812,0,0,0,.444.113,1.85,1.85,0,0,0,1.188-.106,1.324,1.324,0,0,0,.341-.263,2.586,2.586,0,0,0,.827-1.227l1.514-3.627a28.226,28.226,0,0,0,1.733-5.018,14.13,14.13,0,0,0-.6-7.818,4.988,4.988,0,0,0-1.7-2.474c-1.686-1.144-4.032-.353-5.958-1.023-.633-.221-1.2-.594-1.838-.82a5.652,5.652,0,0,0-4.226.383,20.109,20.109,0,0,0-3.531,2.454c-.567.434-1.472.883-2.14,1.472a2.155,2.155,0,0,0-1.05,1.921c.108.92,1.077,1.472,1.98,1.688.15.034.3.061.456.088a8.834,8.834,0,0,0,3.772,14.675,20.7,20.7,0,0,1,1.193,2.682q.066.189.13.38a15.315,15.315,0,0,0-2.883.967c-.7.584.771,5.7.771,5.7-.375.476-.758,1.018-1.146,1.6A34.491,34.491,0,0,0,823.72,252.2c-.245,1.941-.564,3.926-.969,5.814l-17.588-3.526-.037.434-.42-.1h0l-1.32-.326-.052.3-.2-.1c-3.271-1.534-8.783-3.492-12.515-1.472-3.939,2.12,4.562,4.938,10.017,6.437a8.862,8.862,0,0,0-4.908,1.539c-3.956,2.964,7.232,4.508,12.515,5.055l.214.022v.113l1.831.169.429.039.042.653s2.621.429,6.123.95a106.791,106.791,0,0,1-12.368,2.1,9.049,9.049,0,0,0-7.711,6.491,5.771,5.771,0,0,0-.088,3.121c1.021,3.566-.226,29.8-.508,35.446l-6.466,3.723s-10.061,1.227-3.36,3.585a13.782,13.782,0,0,0,1.848.491c-.883.569-.807,1.313,1.8,2.226,6.707,2.351,22.3-.1,22.3-.1s-.341-2.763-.9-5.06l.172.015s-1.61-5.99.832-9.011-.41-26.013-.41-26.013,4.275-1.769,17.053-1.885c10.307,2.645,15.33-6.825,15.259-11.72A2.6,2.6,0,0,1,844.3,271.272Z" transform="translate(-601.411 -157.833)" fill="url(#linear-gradient)"/>
    <path id="Path_393" data-name="Path 393" d="M825.636,409.032l-1.092,4.417s-.982-.221-2.454-.6c-4.987-1.291-15.5-4.39-11.288-6.665,3.634-1.963,8.987-.054,12.165,1.436,1.163.547,2.037,1.038,2.427,1.269C825.557,408.983,825.636,409.032,825.636,409.032Z" transform="translate(-620.841 -310.474)" fill="#f8b9bf"/>
    <path id="Path_394" data-name="Path 394" d="M863.039,417.328l-.785,3.19s-.982-.221-2.454-.6l.886-5.229c1.163.547,2.037,1.038,2.427,1.269Z" transform="translate(-658.551 -317.524)" opacity="0.1"/>
    <path id="Path_395" data-name="Path 395" d="M823.938,401.439l-3.048-.753.947-5.585,2.437.6Z" transform="translate(-619.448 -298.142)" fill="#d9dfe8"/>
    <path id="Path_396" data-name="Path 396" d="M829.265,402.412l-1.315-.324.5-5.7,1.156.285Z" transform="translate(-624.775 -299.116)" opacity="0.1"/>
    <path id="Path_397" data-name="Path 397" d="M899.461,343.645s-5.853-3.382-8.454,6.319-2.847,14.169-2.847,14.169l-18.484-3.7-.587,6.751s19.762,6.38,22.248,5.917,10.552-13.988,10.552-13.988S909.223,348.637,899.461,343.645Z" transform="translate(-665.562 -263.483)" fill="#6c63ff"/>
    <g id="Group_19" data-name="Group 19" transform="translate(188.985 79.837)" opacity="0.1">
      <path id="Path_398" data-name="Path 398" d="M825.636,409.032l-1.092,4.417s-.982-.221-2.454-.6c-4.987-1.291-15.5-4.39-11.288-6.665,3.634-1.963,8.987-.054,12.165,1.436,1.163.547,2.037,1.038,2.427,1.269C825.557,408.983,825.636,409.032,825.636,409.032Z" transform="translate(-809.826 -390.311)"/>
      <path id="Path_399" data-name="Path 399" d="M863.039,417.328l-.785,3.19s-.982-.221-2.454-.6l.886-5.229c1.163.547,2.037,1.038,2.427,1.269Z" transform="translate(-847.536 -397.361)" opacity="0.1"/>
      <path id="Path_400" data-name="Path 400" d="M823.938,401.439l-3.048-.753.947-5.585,2.437.6Z" transform="translate(-808.433 -377.979)"/>
      <path id="Path_401" data-name="Path 401" d="M829.265,402.412l-1.315-.324.5-5.7,1.156.285Z" transform="translate(-813.76 -378.953)" opacity="0.1"/>
      <path id="Path_402" data-name="Path 402" d="M899.461,344.645s-5.853-3.382-8.454,6.319-2.847,14.169-2.847,14.169l-18.484-3.7-.587,6.751s19.762,6.38,22.248,5.917,10.552-13.988,10.552-13.988S909.223,349.637,899.461,344.645Z" transform="translate(-854.547 -344.075)"/>
    </g>
    <path id="Path_403" data-name="Path 403" d="M801.029,650.34l-7.546,4.346s-9.777,1.2-3.264,3.48,21.654-.1,21.654-.1-.842-6.8-2.015-7.752S801.029,650.34,801.029,650.34Z" transform="translate(-604.357 -495.011)" fill="#68739d"/>
    <path id="Path_404" data-name="Path 404" d="M866.5,452.655a52.522,52.522,0,0,1-10.425,3.659,104.481,104.481,0,0,1-12.184,2.076,8.788,8.788,0,0,0-7.49,6.29,5.6,5.6,0,0,0-.086,3.043c1.112,3.885-.547,35.463-.547,35.463l11.46,1.06s-1.563-5.818.81-8.751-.4-25.254-.4-25.254,4.152-1.718,16.56-1.831c11.495,2.945,16.231-9.637,14.457-13.163S866.5,452.655,866.5,452.655Z" transform="translate(-640.418 -346.087)" fill="#6394e2"/>
    <g id="Group_20" data-name="Group 20" transform="translate(183.624 106.455)" opacity="0.1">
      <path id="Path_405" data-name="Path 405" d="M801.029,650.34l-7.546,4.346s-9.777,1.2-3.264,3.48,21.654-.1,21.654-.1-.842-6.8-2.015-7.752S801.029,650.34,801.029,650.34Z" transform="translate(-787.982 -601.467)"/>
      <path id="Path_406" data-name="Path 406" d="M866.5,452.655a52.522,52.522,0,0,1-10.425,3.659,104.481,104.481,0,0,1-12.184,2.076,8.788,8.788,0,0,0-7.49,6.29,5.6,5.6,0,0,0-.086,3.043c1.112,3.885-.547,35.463-.547,35.463l11.46,1.06s-1.563-5.818.81-8.751-.4-25.254-.4-25.254,4.152-1.718,16.56-1.831c11.495,2.945,16.231-9.637,14.457-13.163S866.5,452.655,866.5,452.655Z" transform="translate(-824.043 -452.543)"/>
    </g>
    <path id="Path_407" data-name="Path 407" d="M815.456,661.09l-7.546,4.346s-9.772,1.188-3.264,3.48,21.654-.1,21.654-.1-.842-6.8-2.015-7.752S815.456,661.09,815.456,661.09Z" transform="translate(-615.245 -503.123)" fill="#68739d"/>
    <path id="Path_408" data-name="Path 408" d="M878.572,479.147c-12.408.113-16.56,1.831-16.56,1.831s2.771,22.332.4,25.254-.81,8.751-.81,8.751l-11.46-1.06s.02-.373.052-1.041c.275-5.487,1.485-30.96.491-34.422a5.6,5.6,0,0,1,.086-3.033,8.79,8.79,0,0,1,7.487-6.3,101.5,101.5,0,0,0,12.182-2.076l.191-.049a52.079,52.079,0,0,0,10.233-3.61s10.383-.933,12.157,2.594a4.173,4.173,0,0,1,.363,1.779C893.47,472.518,888.587,481.716,878.572,479.147Z" transform="translate(-651.262 -354.186)" fill="#6394e2"/>
    <path id="Path_409" data-name="Path 409" d="M846.746,436.308l-.42,4.54s-1.009-.071-2.508-.228c-5.122-.533-15.985-2.029-12.145-4.908,3.3-2.474,8.879-1.394,12.243-.393,1.227.368,2.169.724,2.589.893C846.66,436.271,846.746,436.308,846.746,436.308Z" transform="translate(-636.719 -332.246)" fill="#f8b9bf"/>
    <path id="Path_410" data-name="Path 410" d="M979.454,286.819s-1.536,1.2-3.414,2.523c-2.059.466-4.449.852-6.172,1.1a9.8,9.8,0,0,0-.449-6.108,22.993,22.993,0,0,0-3.08-5.664l10.385-3.242a9.541,9.541,0,0,0,.245,6.464A21.313,21.313,0,0,0,979.454,286.819Z" transform="translate(-738.946 -212.438)" fill="#f8b9bf"/>
    <path id="Path_411" data-name="Path 411" d="M886.45,441.02l-.3,3.261s-1.009-.071-2.508-.228l.1-5.3c1.227.368,2.169.724,2.589.893Z" transform="translate(-676.541 -335.679)" opacity="0.1"/>
    <path id="Path_412" data-name="Path 412" d="M847.906,425.023l-3.126-.29.1-5.664,2.5.231Z" transform="translate(-637.475 -316.23)" fill="#d9dfe8"/>
    <path id="Path_413" data-name="Path 413" d="M988.924,306.657s-1.536,1.2-3.414,2.523c-2.059.466-4.449.852-6.172,1.1a9.8,9.8,0,0,0-.449-6.108c2.537-.736,6.167-1.688,7.553-2.454a21.315,21.315,0,0,0,2.481,4.938Z" transform="translate(-748.417 -232.277)" opacity="0.1"/>
    <path id="Path_414" data-name="Path 414" d="M978.053,302.22s1.737,3.944,2.832,5.725-12.717,3.436-12.717,3.436-1.433-4.964-.748-5.534S976.9,303.373,978.053,302.22Z" transform="translate(-739.622 -232.654)" fill="#d9dfe8"/>
    <path id="Path_415" data-name="Path 415" d="M956.433,467.762a12.423,12.423,0,0,1-2.15,2.783c-6.1,5.8-16.1-.245-20.614-3.548a52.078,52.078,0,0,0,10.233-3.61s10.383-.933,12.157,2.594A4.171,4.171,0,0,1,956.433,467.762Z" transform="translate(-714.294 -354.186)" opacity="0.1"/>
    <path id="Path_416" data-name="Path 416" d="M947.305,358.965c-6.935,6.587-18.9-2.135-22.12-4.7-.523-.417-.815-.675-.815-.675,1.274-1.193,2.393-3.72,3.279-6.812a59.793,59.793,0,0,0,1.784-9.026,33.5,33.5,0,0,1,5.281-14.437c.375-.564.736-1.092,1.112-1.553a22.8,22.8,0,0,1,7.018-5.445c9.286-2.714,10.535,11.06,10.287,11.458S955.367,351.306,947.305,358.965Z" transform="translate(-707.276 -243.02)" fill="#6c63ff"/>
    <path id="Path_417" data-name="Path 417" d="M948.2,367.72s-5.971,14.577-8.358,15.409c-1.367.474-8.668-.425-14.66-1.281-.523-.417-.815-.675-.815-.675,1.274-1.193,2.393-3.72,3.279-6.812l7.718.368s-.429-4.452.7-14.434,7.419-7.509,7.419-7.509C953.887,356.267,948.2,367.72,948.2,367.72Z" transform="translate(-707.276 -270.605)" opacity="0.1"/>
    <path id="Path_418" data-name="Path 418" d="M852.268,425.4l-1.35-.125-.358-5.706,1.185.108Z" transform="translate(-641.837 -316.607)" opacity="0.1"/>
    <path id="Path_419" data-name="Path 419" d="M918.792,350.166s-6.285-2.471-7.418,7.509-.7,14.435-.7,14.435l-18.83-.9.425,6.763s20.493,3.364,22.881,2.535S923.5,365.1,923.5,365.1,929.18,353.646,918.792,350.166Z" transform="translate(-682.729 -268.63)" fill="#6c63ff"/>
    <path id="Path_420" data-name="Path 420" d="M977.122,281.936c-.275-1.492,1.283-1.472,1.843-2.876L968.58,282.3a22.918,22.918,0,0,1,1.924,3.06,8.617,8.617,0,0,0,1.652.319C974.632,285.917,975.4,283.48,977.122,281.936Z" transform="translate(-740.637 -215.177)" opacity="0.1"/>
    <circle id="Ellipse_53" data-name="Ellipse 53" cx="8.579" cy="8.579" r="8.579" transform="translate(222.418 68.818) rotate(-84.72)" fill="#f8b9bf"/>
    <path id="Path_421" data-name="Path 421" d="M949.564,217.188c.106.893,1.048,1.438,1.924,1.639a8.429,8.429,0,0,1,2.594.68c1.227.756,1.558,2.434,1.4,3.877-.086.815-.209,1.814.459,2.287a1.779,1.779,0,0,0,.687.245,6.444,6.444,0,0,0,2.115.074,3.008,3.008,0,0,1,1.227-.032,1.867,1.867,0,0,1,1.148,1.519c.125.655.056,1.337.157,2a4.147,4.147,0,0,0,3.269,3.372,1.8,1.8,0,0,0,1.153-.1,2.305,2.305,0,0,0,.906-1.256l1.472-3.524a27.455,27.455,0,0,0,1.683-4.874,13.722,13.722,0,0,0-.587-7.593,4.866,4.866,0,0,0-1.647-2.4c-1.637-1.112-3.926-.344-5.787-.982-.616-.214-1.171-.577-1.784-.8a5.5,5.5,0,0,0-4.106.373,19.418,19.418,0,0,0-3.436,2.393C951.444,214.842,949.38,215.645,949.564,217.188Z" transform="translate(-726.279 -163.873)" opacity="0.1"/>
    <path id="Path_422" data-name="Path 422" d="M950.485,216.418c.106.893,1.048,1.438,1.924,1.639a8.429,8.429,0,0,1,2.594.68c1.227.756,1.558,2.434,1.4,3.877-.086.815-.209,1.814.459,2.287a1.779,1.779,0,0,0,.687.245,6.444,6.444,0,0,0,2.115.074,3.008,3.008,0,0,1,1.227-.032,1.867,1.867,0,0,1,1.148,1.519c.125.655.056,1.337.157,2a4.147,4.147,0,0,0,3.269,3.372,1.8,1.8,0,0,0,1.153-.1,2.306,2.306,0,0,0,.906-1.256L969,227.194a27.455,27.455,0,0,0,1.683-4.874,13.723,13.723,0,0,0-.587-7.593,4.865,4.865,0,0,0-1.647-2.4c-1.637-1.112-3.926-.344-5.786-.982-.616-.214-1.171-.577-1.784-.8a5.5,5.5,0,0,0-4.106.373,19.415,19.415,0,0,0-3.436,2.393C952.368,214.072,950.3,214.875,950.485,216.418Z" transform="translate(-726.974 -163.292)" fill="#b96b6b"/>
    <path id="Path_423" data-name="Path 423" d="M952.8,373.34s-3.276,12.727-6.537,13.9-1.821,1.512-1.821,1.512" transform="translate(-722.186 -286.321)" opacity="0.1"/>
    <rect id="Rectangle_117" data-name="Rectangle 117" width="3.561" height="23.404" transform="translate(227.212 133.64)" fill="#d6d6e3"/>
    <rect id="Rectangle_118" data-name="Rectangle 118" width="3.561" height="1.735" transform="translate(227.212 133.64)" opacity="0.1"/>
    <path id="Path_424" data-name="Path 424" d="M936.57,559.281v.491a1.151,1.151,0,0,0,1.151,1.151h15.5a1.151,1.151,0,0,0,1.151-1.151v-.491a1.151,1.151,0,0,0-1.151-1.151h-15.5A1.151,1.151,0,0,0,936.57,559.281Z" transform="translate(-716.482 -425.763)" fill="#d6d6e3"/>
    <path id="Path_425" data-name="Path 425" d="M937.65,558.55h17.279a1.146,1.146,0,0,0-.888-.42h-15.5A1.146,1.146,0,0,0,937.65,558.55Z" transform="translate(-717.297 -425.763)" opacity="0.1"/>
    <rect id="Rectangle_119" data-name="Rectangle 119" width="29.254" height="2.798" rx="1.399" transform="translate(214.368 155.771)" fill="#d6d6e3"/>
    <circle id="Ellipse_54" data-name="Ellipse 54" cx="1.782" cy="1.782" r="1.782" transform="translate(240.186 158.568)" fill="#535461"/>
    <circle id="Ellipse_55" data-name="Ellipse 55" cx="1.782" cy="1.782" r="1.782" transform="translate(214.238 158.568)" fill="#535461"/>
    <circle id="Ellipse_56" data-name="Ellipse 56" cx="1.782" cy="1.782" r="1.782" transform="translate(227.212 158.568)" fill="#535461"/>
    <rect id="Rectangle_120" data-name="Rectangle 120" width="27.983" height="4.324" rx="2.162" transform="translate(225.21 104.894)" fill="#d6d6e3"/>
    <path id="Path_426" data-name="Path 426" d="M969.161,653.5a2.8,2.8,0,0,1-3.561,0" transform="translate(-738.388 -497.729)" opacity="0.1"/>
    <path id="Path_427" data-name="Path 427" d="M985.423,455.17v.341a1.779,1.779,0,0,1-1.779,1.779H959.219a1.779,1.779,0,0,1-1.779-1.779v-.341Z" transform="translate(-732.23 -348.07)" opacity="0.1"/>
    <rect id="Rectangle_121" data-name="Rectangle 121" width="4.812" height="61.316" transform="translate(201.823 111.076)" fill="#d6d6e3"/>
    <rect id="Rectangle_122" data-name="Rectangle 122" width="4.812" height="3.975" transform="translate(201.823 111.076)" opacity="0.1"/>
    <rect id="Rectangle_123" data-name="Rectangle 123" width="3.561" height="23.404" transform="translate(57.159 135.314)" fill="#d6d6e3"/>
    <rect id="Rectangle_124" data-name="Rectangle 124" width="3.561" height="1.735" transform="translate(57.159 135.314)" opacity="0.1"/>
    <path id="Path_428" data-name="Path 428" d="M261.416,566.141v.491a1.151,1.151,0,0,1-1.151,1.151h-15.5a1.151,1.151,0,0,1-1.151-1.151v-.491A1.151,1.151,0,0,1,244.761,565h15.5a1.151,1.151,0,0,1,1.151,1.151Z" transform="translate(-193.575 -430.947)" fill="#d6d6e3"/>
    <path id="Path_429" data-name="Path 429" d="M261.961,565.407H244.68a1.146,1.146,0,0,1,.888-.407h15.5A1.146,1.146,0,0,1,261.961,565.407Z" transform="translate(-194.383 -430.947)" opacity="0.1"/>
    <rect id="Rectangle_125" data-name="Rectangle 125" width="29.254" height="2.798" rx="1.399" transform="translate(44.312 157.444)" fill="#d6d6e3"/>
    <circle id="Ellipse_57" data-name="Ellipse 57" cx="1.782" cy="1.782" r="1.782" transform="translate(44.184 160.242)" fill="#535461"/>
    <circle id="Ellipse_58" data-name="Ellipse 58" cx="1.782" cy="1.782" r="1.782" transform="translate(70.131 160.242)" fill="#535461"/>
    <circle id="Ellipse_59" data-name="Ellipse 59" cx="1.782" cy="1.782" r="1.782" transform="translate(57.156 160.242)" fill="#535461"/>
    <path id="Path_430" data-name="Path 430" d="M272.64,660.32a2.8,2.8,0,0,0,3.561,0" transform="translate(-215.481 -502.876)" opacity="0.1"/>
    <path id="Path_431" data-name="Path 431" d="M627.107,296.787s-4-7.261-2.535-13.573a12.557,12.557,0,0,0-.7-7.912A21.118,21.118,0,0,0,622,271.93" transform="translate(-479.108 -209.797)" fill="none" stroke="#535461" stroke-miterlimit="10" stroke-width="2"/>
    <path id="Path_432" data-name="Path 432" d="M614.774,251.021c.209.952-.908,4.091-.908,4.091s-2.329-2.38-2.54-3.333a1.764,1.764,0,1,1,3.436-.758Z" transform="translate(-470.996 -192.873)" fill="#6c63ff"/>
    <path id="Path_433" data-name="Path 433" d="M631.479,267.1c-.341.913-2.984,2.945-2.984,2.945s-.663-3.264-.319-4.172a1.764,1.764,0,1,1,3.306,1.227Z" transform="translate(-483.694 -204.307)" fill="#6c63ff"/>
    <path id="Path_434" data-name="Path 434" d="M637.011,301.807c-.756.616-4.061,1.031-4.061,1.031s1.077-3.151,1.833-3.767a1.764,1.764,0,1,1,2.228,2.736Z" transform="translate(-487.371 -229.979)" fill="#6c63ff"/>
    <path id="Path_435" data-name="Path 435" d="M637.178,331.464c-.641.736-3.828,1.7-3.828,1.7s.528-3.288,1.168-4.022a1.764,1.764,0,1,1,2.658,2.319Z" transform="translate(-487.673 -252.485)" fill="#6c63ff"/>
    <path id="Path_436" data-name="Path 436" d="M612.506,280.446c.829.513,4.16.491,4.16.491s-1.472-2.987-2.3-3.5a1.764,1.764,0,1,0-1.858,3Z" transform="translate(-471.282 -213.734)" fill="#6c63ff"/>
    <path id="Path_437" data-name="Path 437" d="M611.131,314.066c.945.245,4.118-.766,4.118-.766s-2.3-2.41-3.244-2.65a1.764,1.764,0,0,0-.874,3.416Z" transform="translate(-469.957 -238.986)" fill="#6c63ff"/>
    <path id="Path_438" data-name="Path 438" d="M616.117,347.476c.888.4,4.189-.059,4.189-.059s-1.86-2.763-2.749-3.161a1.765,1.765,0,0,0-1.44,3.222Z" transform="translate(-473.88 -264.258)" fill="#6c63ff"/>
    <path id="Path_439" data-name="Path 439" d="M614.774,251.021c.209.952-.908,4.091-.908,4.091s-2.329-2.38-2.54-3.333a1.764,1.764,0,1,1,3.436-.758Z" transform="translate(-470.996 -192.873)" fill="#6c63ff"/>
    <path id="Path_440" data-name="Path 440" d="M631.479,267.1c-.341.913-2.984,2.945-2.984,2.945s-.663-3.264-.319-4.172a1.764,1.764,0,1,1,3.306,1.227Z" transform="translate(-483.694 -204.307)" fill="#6c63ff"/>
    <path id="Path_441" data-name="Path 441" d="M637.011,301.807c-.756.616-4.061,1.031-4.061,1.031s1.077-3.151,1.833-3.767a1.764,1.764,0,1,1,2.228,2.736Z" transform="translate(-487.371 -229.979)" fill="#6c63ff"/>
    <path id="Path_442" data-name="Path 442" d="M637.178,331.464c-.641.736-3.828,1.7-3.828,1.7s.528-3.288,1.168-4.022a1.764,1.764,0,1,1,2.658,2.319Z" transform="translate(-487.673 -252.485)" fill="#6c63ff"/>
    <path id="Path_443" data-name="Path 443" d="M612.506,280.446c.829.513,4.16.491,4.16.491s-1.472-2.987-2.3-3.5a1.764,1.764,0,1,0-1.858,3Z" transform="translate(-471.282 -213.734)" fill="#6c63ff"/>
    <path id="Path_444" data-name="Path 444" d="M611.131,314.066c.945.245,4.118-.766,4.118-.766s-2.3-2.41-3.244-2.65a1.764,1.764,0,0,0-.874,3.416Z" transform="translate(-469.957 -238.986)" fill="#6c63ff"/>
    <path id="Path_445" data-name="Path 445" d="M616.117,347.476c.888.4,4.189-.059,4.189-.059s-1.86-2.763-2.749-3.161a1.765,1.765,0,0,0-1.44,3.222Z" transform="translate(-473.88 -264.258)" fill="#6c63ff"/>
    <path id="Path_446" data-name="Path 446" d="M623.253,384.267h0a4.206,4.206,0,0,1-4.2-4.471l1.175-18.626h6.047l1.175,18.626a4.206,4.206,0,0,1-4.2,4.471Z" transform="translate(-476.879 -277.138)" fill="#6c63ff"/>
    <rect id="Rectangle_126" data-name="Rectangle 126" width="3.436" height="14.233" transform="translate(20.511 15.563)" fill="#6c63ff" opacity="0.1"/>
    <rect id="Rectangle_127" data-name="Rectangle 127" width="3.436" height="14.233" transform="translate(24.928 15.563)" fill="#6c63ff" opacity="0.1"/>
    <rect id="Rectangle_128" data-name="Rectangle 128" width="3.436" height="14.233" transform="translate(29.345 15.563)" fill="#6c63ff" opacity="0.1"/>
    <rect id="Rectangle_129" data-name="Rectangle 129" width="3.436" height="14.233" transform="translate(33.762 15.563)" fill="#6c63ff" opacity="0.1"/>
    <rect id="Rectangle_130" data-name="Rectangle 130" width="3.436" height="14.233" transform="translate(42.597 15.563)" fill="#6c63ff" opacity="0.1"/>
    <rect id="Rectangle_131" data-name="Rectangle 131" width="3.436" height="14.233" transform="translate(47.014 15.563)" fill="#6c63ff" opacity="0.1"/>
    <rect id="Rectangle_132" data-name="Rectangle 132" width="3.436" height="0.736" transform="translate(20.511 18.263)" fill="#6c63ff" opacity="0.1"/>
    <rect id="Rectangle_133" data-name="Rectangle 133" width="3.436" height="0.736" transform="translate(20.511 27.097)" fill="#6c63ff" opacity="0.1"/>
    <rect id="Rectangle_134" data-name="Rectangle 134" width="3.436" height="0.736" transform="translate(24.928 18.263)" fill="#6c63ff" opacity="0.1"/>
    <rect id="Rectangle_135" data-name="Rectangle 135" width="3.436" height="0.736" transform="translate(24.928 27.097)" fill="#6c63ff" opacity="0.1"/>
    <rect id="Rectangle_136" data-name="Rectangle 136" width="3.436" height="0.736" transform="translate(29.345 18.263)" fill="#6c63ff" opacity="0.1"/>
    <rect id="Rectangle_137" data-name="Rectangle 137" width="3.436" height="0.736" transform="translate(29.345 27.097)" fill="#6c63ff" opacity="0.1"/>
    <rect id="Rectangle_138" data-name="Rectangle 138" width="3.436" height="0.736" transform="translate(33.762 18.263)" fill="#6c63ff" opacity="0.1"/>
    <rect id="Rectangle_139" data-name="Rectangle 139" width="3.436" height="0.736" transform="translate(33.762 27.097)" fill="#6c63ff" opacity="0.1"/>
    <rect id="Rectangle_140" data-name="Rectangle 140" width="3.436" height="0.736" transform="translate(38.179 18.263)" fill="#6c63ff" opacity="0.1"/>
    <rect id="Rectangle_141" data-name="Rectangle 141" width="3.436" height="0.736" transform="translate(38.179 27.097)" fill="#6c63ff" opacity="0.1"/>
    <rect id="Rectangle_142" data-name="Rectangle 142" width="3.436" height="0.736" transform="translate(42.597 18.263)" fill="#6c63ff" opacity="0.1"/>
    <rect id="Rectangle_143" data-name="Rectangle 143" width="3.436" height="0.736" transform="translate(42.597 27.097)" fill="#6c63ff" opacity="0.1"/>
    <rect id="Rectangle_144" data-name="Rectangle 144" width="3.436" height="0.736" transform="translate(47.014 18.263)" fill="#6c63ff" opacity="0.1"/>
    <rect id="Rectangle_145" data-name="Rectangle 145" width="3.436" height="0.736" transform="translate(47.014 27.097)" fill="#6c63ff" opacity="0.1"/>
    <rect id="Rectangle_146" data-name="Rectangle 146" width="3.436" height="14.233" transform="translate(38.179 15.563)" fill="#6c63ff" opacity="0.1"/>
    <rect id="Rectangle_147" data-name="Rectangle 147" width="3.436" height="14.233" transform="translate(50.562 16.941) rotate(-24.84)" fill="#6c63ff" opacity="0.1"/>
    <rect id="Rectangle_148" data-name="Rectangle 148" width="3.436" height="0.736" transform="translate(51.697 19.393) rotate(-24.84)" fill="#6c63ff" opacity="0.1"/>
    <rect id="Rectangle_149" data-name="Rectangle 149" width="3.436" height="0.736" transform="translate(55.407 27.409) rotate(-24.84)" fill="#6c63ff" opacity="0.1"/>
    <path id="Path_447" data-name="Path 447" d="M261.93,315.276l-6.236-3.978c-.032-5.6-.12-31.613,1.045-35.092a5.715,5.715,0,0,0,.049-3.095,8.958,8.958,0,0,0-7.345-6.758,105.542,105.542,0,0,1-12.147-2.614c3.487-.361,6.1-.672,6.1-.672l.069-.645,2.245-.108v-.1l.213-.012c5.244-.312,16.381-1.35,12.6-4.456a8.727,8.727,0,0,0-4.778-1.737c5.463-1.247,14-3.661,10.194-5.931-3.617-2.155-9.156-.461-12.461.915l-.2.086-.037-.3-1.32.265h0l-.42.083-.02-.432-18.525,2.861a63.236,63.236,0,0,0-.756-6.334c.415-2.763,2.344-6.793,1.664-8.955-.79-2.51-4.034-3.333-5.4-5.6-.358-.591-.714-1.146-1.063-1.632a17.179,17.179,0,0,0-2.614-2.825,11.927,11.927,0,0,1,.962-4.233,20.513,20.513,0,0,1,1.3-2.6,8.736,8.736,0,0,0,6.488-10.061c1.173.5,2.6.555,3.333-.427l-.348-.135a1.105,1.105,0,0,0,.1-.115,6.587,6.587,0,0,1-2.032-1.077,2.38,2.38,0,0,1-.356-.528c-.339-.687-.3-1.512-.623-2.209a2.554,2.554,0,0,0-.636-.829,4.376,4.376,0,0,0-2.076-1.188,26.241,26.241,0,0,1-2.667-.736,9.018,9.018,0,0,0-9.6-2.7l-.307.106a4,4,0,1,0-7.807-1.767,3.993,3.993,0,0,1,1.071-2.39c-.064.054-.13.106-.191.162a4,4,0,0,0-.174,5.661l.071.069a4.022,4.022,0,0,0,1,.879,4,4,0,0,1-2.641-3.281c0,.083,0,.167,0,.245a4,4,0,0,0,4.258,3.764l.11-.012-.059.081a9.009,9.009,0,0,0,.81,11.153,4.172,4.172,0,0,0,.643,1.031,3.337,3.337,0,0,0,.3.3,3.806,3.806,0,0,0,2.567,1.183,7.67,7.67,0,0,0,.523.562,14.607,14.607,0,0,1-.633,2.022,21.434,21.434,0,0,1-1.944,3.747c-5.3,1.507-5.767,10.508-5.576,10.849.228.407-.79,14.542,3.136,31.617-.162,4.881,2.685,12.952,12.79,10.825,12.638.675,16.783,2.611,16.783,2.611s-1.2,21.981.513,25.181c1.072,2,.312,4.95-.491,7.028a7.724,7.724,0,0,0-.707,1.629c-.245.518-.425.832-.425.832h.172c-.648,2.25-1.107,4.967-1.107,4.967s15.32,3.109,22.059,1.075c2.616-.79,2.724-1.521,1.875-2.125a13.639,13.639,0,0,0,1.85-.4C271.84,316.942,261.93,315.276,261.93,315.276Z" transform="translate(-166.44 -152.951)" fill="url(#linear-gradient-2)"/>
    <path id="Path_448" data-name="Path 448" d="M238.669,227.834A8.834,8.834,0,1,1,229.834,219,8.834,8.834,0,0,1,238.669,227.834Z" transform="translate(-176.514 -169.856)" fill="#fa595f"/>
    <path id="Path_449" data-name="Path 449" d="M374.09,414.325l.9,4.471s1-.179,2.471-.491c5.038-1.068,15.684-3.7,11.561-6.162-3.546-2.113-8.977-.452-12.216.9-1.188.491-2.081.947-2.481,1.161C374.171,414.279,374.09,414.325,374.09,414.325Z" transform="translate(-292.035 -314.842)" fill="#f8b9bf"/>
    <path id="Path_450" data-name="Path 450" d="M375.052,421.445l.643,3.21s1-.179,2.471-.491l-.655-5.264c-1.188.491-2.081.947-2.481,1.161Z" transform="translate(-292.745 -320.7)" opacity="0.1"/>
    <path id="Path_451" data-name="Path 451" d="M334.533,405.558l3.077-.616-.7-5.622-2.464.493Z" transform="translate(-252.381 -301.327)" fill="#d9dfe8"/>
    <path id="Path_452" data-name="Path 452" d="M334.533,406.358l1.328-.267-.243-5.71-1.168.233Z" transform="translate(-252.381 -302.127)" opacity="0.1"/>
    <path id="Path_453" data-name="Path 453" d="M242.254,342.548s5.99-3.121,8.167,6.687,2.209,14.28,2.209,14.28l18.631-2.879.29,6.771s-20.025,5.5-22.486,4.93S239.13,357.9,239.13,357.9,232.284,347.11,242.254,342.548Z" transform="translate(-188.465 -262.729)" fill="#6c63ff"/>
    <g id="Group_21" data-name="Group 21" transform="translate(48.864 79.838)" opacity="0.1">
      <path id="Path_454" data-name="Path 454" d="M374.09,414.325l.9,4.471s1-.179,2.471-.491c5.038-1.068,15.684-3.7,11.561-6.162-3.546-2.113-8.977-.452-12.216.9-1.188.491-2.081.947-2.481,1.161C374.171,414.279,374.09,414.325,374.09,414.325Z" transform="translate(-340.899 -394.68)"/>
      <path id="Path_455" data-name="Path 455" d="M375.052,421.445l.643,3.21s1-.179,2.471-.491l-.655-5.264c-1.188.491-2.081.947-2.481,1.161Z" transform="translate(-341.608 -400.538)" opacity="0.1"/>
      <path id="Path_456" data-name="Path 456" d="M334.533,405.558l3.077-.616-.7-5.622-2.464.493Z" transform="translate(-301.244 -381.164)"/>
      <path id="Path_457" data-name="Path 457" d="M334.533,406.358l1.328-.267-.243-5.71-1.168.233Z" transform="translate(-301.244 -381.964)" opacity="0.1"/>
      <path id="Path_458" data-name="Path 458" d="M244.254,344.548s5.99-3.122,8.167,6.687,2.209,14.28,2.209,14.28l18.631-2.879.29,6.771s-20.025,5.5-22.486,4.93S241.13,359.9,241.13,359.9,234.284,349.11,244.254,344.548Z" transform="translate(-238.838 -344.076)"/>
    </g>
    <path id="Path_459" data-name="Path 459" d="M362.643,654.446l7.347,4.663s9.715,1.627,3.107,3.622-21.627-1.055-21.627-1.055,1.141-6.758,2.356-7.654S362.643,654.446,362.643,654.446Z" transform="translate(-274.966 -497.888)" fill="#f37291"/>
    <path id="Path_460" data-name="Path 460" d="M246.9,452.049a52.452,52.452,0,0,0,10.253,4.115,102.272,102.272,0,0,0,12.079,2.614,8.788,8.788,0,0,1,7.2,6.626,5.605,5.605,0,0,1-.047,3.033c-1.281,3.833-1.021,35.453-1.021,35.453l-11.495.552s1.818-5.745-.422-8.778,1.512-25.21,1.512-25.21-4.071-1.9-16.464-2.56c-11.615,2.454-15.789-10.344-13.86-13.789S246.9,452.049,246.9,452.049Z" transform="translate(-186.465 -345.506)" fill="#96a2d0"/>
    <g id="Group_22" data-name="Group 22" transform="translate(47.723 106.266)" opacity="0.1">
      <path id="Path_461" data-name="Path 461" d="M362.643,654.446l7.347,4.663s9.715,1.627,3.107,3.622-21.627-1.055-21.627-1.055,1.141-6.758,2.356-7.654S362.643,654.446,362.643,654.446Z" transform="translate(-322.689 -604.154)"/>
      <path id="Path_462" data-name="Path 462" d="M246.9,452.049a52.452,52.452,0,0,0,10.253,4.115,102.272,102.272,0,0,0,12.079,2.614,8.788,8.788,0,0,1,7.2,6.626,5.605,5.605,0,0,1-.047,3.033c-1.281,3.833-1.021,35.453-1.021,35.453l-11.495.552s1.818-5.745-.422-8.778,1.512-25.21,1.512-25.21-4.071-1.9-16.464-2.56c-11.615,2.454-15.789-10.344-13.86-13.789S246.9,452.049,246.9,452.049Z" transform="translate(-234.188 -451.772)"/>
    </g>
    <path id="Path_463" data-name="Path 463" d="M347.723,664.556l7.347,4.663s9.715,1.627,3.107,3.622-21.627-1.055-21.627-1.055,1.141-6.758,2.356-7.654S347.723,664.556,347.723,664.556Z" transform="translate(-263.708 -505.517)" fill="#f37291"/>
    <path id="Path_464" data-name="Path 464" d="M239.078,478.763c12.393.66,16.464,2.56,16.464,2.56s-1.175,21.551.491,24.687c1.779,3.328-1.59,9.3-1.59,9.3l11.495-.552v-1.04c-.034-5.492-.118-30.994,1.023-34.413a5.605,5.605,0,0,0,.047-3.033,8.79,8.79,0,0,0-7.2-6.626,101.648,101.648,0,0,1-12.079-2.611l-.189-.059a51.465,51.465,0,0,1-10.061-4.056s-7.654-.53-9.571,2.915c-.245.447-1.3,1.325-1.347,2.034C226.271,472.616,228.973,480.891,239.078,478.763Z" transform="translate(-180.692 -353.896)" fill="#96a2d0"/>
    <path id="Path_465" data-name="Path 465" d="M351.81,440.376l.218,4.555s1.011-.027,2.518-.118c5.141-.307,16.062-1.323,12.351-4.368-3.19-2.618-8.81-1.784-12.214-.932-1.249.314-2.209.628-2.626.778C351.9,440.344,351.81,440.376,351.81,440.376Z" transform="translate(-275.223 -335.624)" fill="#f8b9bf"/>
    <path id="Path_466" data-name="Path 466" d="M233,284.669s1.472,1.269,3.3,2.672c2.037.555,4.417,1.048,6.118,1.374a9.816,9.816,0,0,1,.719-6.083,22.992,22.992,0,0,1,3.328-5.524l-10.233-3.7a9.553,9.553,0,0,1-.533,6.447A21.312,21.312,0,0,1,233,284.669Z" transform="translate(-185.569 -210.914)" fill="#f8b9bf"/>
    <path id="Path_467" data-name="Path 467" d="M352.06,444.22l.157,3.271s1.011-.027,2.518-.118l.137-5.3c-1.249.314-2.209.628-2.626.778Z" transform="translate(-275.411 -338.185)" opacity="0.1"/>
    <path id="Path_468" data-name="Path 468" d="M309.62,428.174l3.134-.15.147-5.664-2.508.12Z" transform="translate(-233.644 -318.713)" fill="#d9dfe8"/>
    <path id="Path_469" data-name="Path 469" d="M217.218,356.678c6.626,6.888,18.982-1.3,22.3-3.723.54-.4.842-.638.842-.638-1.227-1.249-3.19-2.4-3.944-5.534a67.972,67.972,0,0,1-1.458-9.7c-.2-2.589,2.471-7.519,1.7-9.978s-3.956-3.266-5.293-5.492c-.351-.579-.7-1.124-1.043-1.6a22.913,22.913,0,0,0-6.771-5.75c-9.166-3.129-9.885,9.961-9.657,10.368S213.078,339.471,217.218,356.678Z" transform="translate(-171.13 -241.379)" fill="#6c63ff"/>
    <path id="Path_470" data-name="Path 470" d="M223.349,365.889s5.323,14.827,7.671,15.762c1.345.535,8.68-.042,14.7-.633.54-.4.842-.638.842-.638-1.227-1.249-2.226-3.823-2.977-6.95l-7.728.027s.626-4.417-.066-14.452-7.08-7.828-7.08-7.828C218.178,354.2,223.349,365.889,223.349,365.889Z" transform="translate(-177.329 -269.442)" opacity="0.1"/>
    <path id="Path_471" data-name="Path 471" d="M309.62,428.37l1.352-.064.611-5.686-1.19.056Z" transform="translate(-233.644 -318.909)" opacity="0.1"/>
    <path id="Path_472" data-name="Path 472" d="M229.454,348.586s6.38-2.191,7.08,7.828.074,14.452.074,14.452l18.852-.069-.724,6.739s-20.614,2.454-22.97,1.524-7.674-15.76-7.674-15.76S218.917,351.607,229.454,348.586Z" transform="translate(-177.888 -267.488)" fill="#6c63ff"/>
    <path id="Path_473" data-name="Path 473" d="M245.518,279.945c.341-1.472-1.227-1.519-1.718-2.945l10.238,3.681a22.921,22.921,0,0,0-2.056,2.972,8.616,8.616,0,0,1-1.664.245C247.829,284.021,247.164,281.56,245.518,279.945Z" transform="translate(-193.719 -213.623)" opacity="0.1"/>
    <circle id="Ellipse_60" data-name="Ellipse 60" cx="8.579" cy="8.579" r="8.579" transform="translate(47.791 52.689) rotate(-2.75)" fill="#f8b9bf"/>
    <path id="Path_474" data-name="Path 474" d="M253,375.14s2.714,12.857,5.919,14.169,1.752,1.593,1.752,1.593" transform="translate(-200.661 -287.679)" opacity="0.1"/>
    <path id="Path_475" data-name="Path 475" d="M283.488,396.49s-2.268.709-4.908-2.68" transform="translate(-219.964 -301.768)" opacity="0.1"/>
    <circle id="Ellipse_61" data-name="Ellipse 61" cx="3.926" cy="3.926" r="3.926" transform="translate(42.523 44.972)" fill="#fa595f"/>
    <path id="Path_476" data-name="Path 476" d="M213.381,209.932a3.926,3.926,0,0,1,0-5.372c-.064.052-.128.1-.186.16a3.927,3.927,0,1,0,5.379,5.723c.061-.056.115-.118.169-.177A3.926,3.926,0,0,1,213.381,209.932Z" transform="translate(-169.69 -158.96)" fill="#fa595f"/>
    <path id="Path_477" data-name="Path 477" d="M214.193,220.416a3.926,3.926,0,0,1-4.133-3.436v.245a3.927,3.927,0,1,0,7.838-.491,2.085,2.085,0,0,0-.027-.245A3.926,3.926,0,0,1,214.193,220.416Z" transform="translate(-168.258 -167.962)" fill="#fa595f"/>
    <path id="Path_478" data-name="Path 478" d="M241.789,225.242a17.585,17.585,0,0,0,2.945.861,3.65,3.65,0,0,1,2.415,1.733c.317.682.28,1.49.611,2.164a4.336,4.336,0,0,0,2.587,1.818c-.869,1.166-2.734.849-3.951.056s-2.265-1.963-3.681-2.27a3.455,3.455,0,0,0-3.634,1.617,8.727,8.727,0,0,0-.717,2.228,8.353,8.353,0,0,1-3.19,5.107c-1.718,1.131-4.277,1.124-5.625-.425a6.955,6.955,0,0,1-1.281-3.306,6.716,6.716,0,0,1-.189-1.671,6.294,6.294,0,0,1,1.963-3.654c1.117-1.227,2.3-2.4,3.492-3.575,1.026-1.011,2.209-2.724,3.755-2.844C239.07,222.94,240.329,224.528,241.789,225.242Z" transform="translate(-181.855 -172.93)" opacity="0.1"/>
    <path id="Path_479" data-name="Path 479" d="M240.789,224.242a17.587,17.587,0,0,0,2.945.861,3.65,3.65,0,0,1,2.415,1.733c.317.682.28,1.49.611,2.164a4.336,4.336,0,0,0,2.587,1.818c-.869,1.166-2.734.849-3.951.056s-2.265-1.963-3.681-2.27a3.455,3.455,0,0,0-3.634,1.617,8.729,8.729,0,0,0-.717,2.228,8.353,8.353,0,0,1-3.19,5.107c-1.718,1.131-4.277,1.124-5.625-.425a6.955,6.955,0,0,1-1.281-3.306,6.716,6.716,0,0,1-.189-1.671,6.294,6.294,0,0,1,1.963-3.654c1.117-1.227,2.3-2.4,3.492-3.575,1.026-1.011,2.209-2.724,3.755-2.844C238.07,221.94,239.329,223.528,240.789,224.242Z" transform="translate(-181.1 -172.175)" fill="#fa595f"/>
    <rect id="Rectangle_150" data-name="Rectangle 150" width="27.983" height="4.324" rx="2.162" transform="translate(34.739 106.568)" fill="#d6d6e3"/>
    <path id="Path_480" data-name="Path 480" d="M181.28,462v.341a1.779,1.779,0,0,0,1.779,1.779h24.425a1.779,1.779,0,0,0,1.779-1.779V462Z" transform="translate(-146.541 -353.224)" opacity="0.1"/>
    <rect id="Rectangle_151" data-name="Rectangle 151" width="4.812" height="61.309" transform="translate(84.018 111.076)" fill="#d6d6e3"/>
    <rect id="Rectangle_152" data-name="Rectangle 152" width="4.812" height="3.975" transform="translate(84.018 111.076)" opacity="0.1"/>
    <rect id="Rectangle_153" data-name="Rectangle 153" width="127.221" height="7.951" transform="translate(81.716 106.681)" fill="#d6d6e3"/>
  </g>
</svg>
