<svg xmlns="http://www.w3.org/2000/svg" xmlns:xlink="http://www.w3.org/1999/xlink" width="695" height="591.649" viewBox="0 0 695 591.649">
  <defs>
    <linearGradient id="linear-gradient" x1="0.388" y1="1.401" x2="0.718" y2="-0.141" gradientUnits="objectBoundingBox">
      <stop offset="0" stop-opacity="0"/>
      <stop offset="0.99"/>
    </linearGradient>
    <linearGradient id="linear-gradient-2" x1="0" y1="0.5" x2="1" y2="0.5" xlink:href="#linear-gradient"/>
    <linearGradient id="linear-gradient-3" x1="0.595" y1="0.437" x2="0.379" y2="1.615" gradientUnits="objectBoundingBox">
      <stop offset="0" stop-color="#a6ce45"/>
      <stop offset="0.99"/>
      <stop offset="1"/>
    </linearGradient>
    <linearGradient id="linear-gradient-5" y1="0.499" x2="1" y2="0.499" gradientUnits="objectBoundingBox">
      <stop offset="0" stop-color="#e5c5d5"/>
      <stop offset="0.42" stop-color="#ead4d1"/>
      <stop offset="1" stop-color="#f0e9cb"/>
    </linearGradient>
    <linearGradient id="linear-gradient-6" x1="0.415" y1="1.477" x2="0.613" y2="-1.55" xlink:href="#linear-gradient"/>
    <linearGradient id="linear-gradient-10" x1="0.002" y1="0.5" x2="1" y2="0.5" gradientUnits="objectBoundingBox">
      <stop offset="0" stop-color="#867580"/>
      <stop offset="0.57" stop-color="#9b8f8e"/>
    </linearGradient>
    <linearGradient id="linear-gradient-12" x1="0" y1="0.5" x2="1" y2="0.5" xlink:href="#linear-gradient-5"/>
    <linearGradient id="linear-gradient-13" x1="0.387" y1="-0.109" x2="0.812" y2="2.423" xlink:href="#linear-gradient"/>
    <linearGradient id="linear-gradient-14" x1="-0.001" y1="0.498" x2="0.999" y2="0.498" xlink:href="#linear-gradient-10"/>
    <linearGradient id="linear-gradient-15" x1="0" y1="0.5" x2="1" y2="0.5" xlink:href="#linear-gradient-5"/>
    <linearGradient id="linear-gradient-16" x1="0" y1="0.499" x2="1" y2="0.499" xlink:href="#linear-gradient-5"/>
    <linearGradient id="linear-gradient-17" x1="-0.001" y1="0.499" x2="1" y2="0.499" xlink:href="#linear-gradient-5"/>
    <linearGradient id="linear-gradient-18" x1="0" y1="0.5" x2="1.001" y2="0.5" xlink:href="#linear-gradient-10"/>
    <linearGradient id="linear-gradient-19" x1="-0.006" y1="0.501" x2="1.002" y2="0.501" xlink:href="#linear-gradient-10"/>
    <linearGradient id="linear-gradient-20" x1="-0.001" y1="0.498" x2="0.998" y2="0.498" xlink:href="#linear-gradient-10"/>
    <linearGradient id="linear-gradient-21" x1="-0.001" y1="0.5" x2="1.001" y2="0.5" xlink:href="#linear-gradient-5"/>
    <linearGradient id="linear-gradient-23" x1="0" y1="0.5" x2="1" y2="0.5" xlink:href="#linear-gradient-5"/>
    <linearGradient id="linear-gradient-24" x1="0" y1="0.501" x2="1.002" y2="0.501" xlink:href="#linear-gradient-5"/>
    <linearGradient id="linear-gradient-25" x1="-0.014" y1="1.078" x2="1.486" y2="-0.779" xlink:href="#linear-gradient"/>
    <linearGradient id="linear-gradient-26" x1="0" y1="0.5" x2="1" y2="0.5" xlink:href="#linear-gradient-5"/>
    <linearGradient id="linear-gradient-27" x1="-0.001" y1="0.505" x2="1" y2="0.505" xlink:href="#linear-gradient-5"/>
    <linearGradient id="linear-gradient-28" x1="-0.001" y1="0.499" x2="0.999" y2="0.499" xlink:href="#linear-gradient-5"/>
  </defs>
  <g id="looking_for_idea_with_team" transform="translate(-0.002 -0.004)">
    <path id="Path_946" data-name="Path 946" d="M21.881,453.736c-3.83-46.171-7.267-94.781,12.324-136.778a268.908,268.908,0,0,1,42.128-62.9c15.123-16.727,38.888-21,58.184-31.1,31.261-16.367,52.194-47.087,69.4-77.89S236.32,81.554,261.2,56.48c27.595-27.922,65.795-44.338,104.83-48.331S444.9,12.076,480.89,27.789c16.5,7.218,32.488,16.2,45.418,28.757,27.136,26.367,37.644,64.829,51.8,99.92a431.152,431.152,0,0,0,27.365,55.844c9.28,15.908,23.077,30.655,30.966,47.055s12.684,32.652,22.783,48.331c9.526,14.812,20.066,29,28.593,44.452A196.518,196.518,0,0,1,710.73,468.859c-2.406,20.573-8.4,41.294-21.146,57.611-13.928,17.824-34.632,28.9-55.418,37.824a431.234,431.234,0,0,1-270.954,22.243c-32.194-7.938-63.831-19.64-96.859-21.833-33.356-2.193-66.466,5.466-99.674,9.264C134.5,577.65,86.907,578.288,58.559,559.7,28.068,539.679,24.549,485.979,21.881,453.736Z" transform="translate(-18.92 -7.12)" fill="#a6ce45" opacity="0.18"/>
    <path id="Path_947" data-name="Path 947" d="M214.585,261.9c.949,15.139-1.637,30.377-.229,45.484.491,4.91,1.391,10.049-.245,14.73a16.891,16.891,0,0,1-8.347,9.2c-8.953,4.583-20.59,1.637-27.578-5.647s-9.82-17.774-9.247-27.824,4.075-19.64,8.265-28.806c3.764-8.183,10.115-24.338,19.427-27.824C208.66,236.827,214.061,253.325,214.585,261.9Z" transform="translate(76.548 141.458)" fill="#3e3e54"/>
    <path id="Path_948" data-name="Path 948" d="M218.8,239.753c-3.748-6.776-14.108-9.607-21.588-5.892a56.2,56.2,0,0,1-6.923,3.7c-2.815.949-5.876.7-8.822,1-9.476.982-17.873,8.363-19.3,16.94-.8,4.91.442,9.82-.344,14.73-1.849,11.588-14.5,20.328-15.778,31.964-.409,3.781.442,7.545.769,11.31a41.965,41.965,0,0,1-3.568,20.639c-2.079,4.632-5.008,9.051-5.778,13.977-1.522,9.82,6.71,19.247,17.022,22.259s21.9.638,31.67-3.994c10.769-5.106,20.36-13.47,23.6-24.059,5.074-16.514-6.072-34.076-1.064-50.606a92.655,92.655,0,0,1,4.91-11.211C218.52,269.769,224.853,250.735,218.8,239.753Z" transform="translate(56.443 136.192)" fill="#3e3e54"/>
    <path id="Path_949" data-name="Path 949" d="M164.476,280.429c.115-4.468-.589-9.82,2.815-12.652a1.915,1.915,0,0,1,1.047-.507,2.21,2.21,0,0,1,1.08.344,35.55,35.55,0,0,1,9.82,7.938c3.4,3.944,6.056,8.724,10.442,11.457,1.768,1.129,3.748,1.882,5.581,2.864a24.55,24.55,0,0,1,9.231,8.724,4.059,4.059,0,0,1,.769,3.093c-.409,1.391-2.013,2-3.437,2.275a54.2,54.2,0,0,1-12.406.655q-8.478-.229-16.94-.687a48.725,48.725,0,0,1-10.786-1.424c-1.506-.426-4.272-1.473-4.648-3.273s2.095-3.633,3.093-5.156A26.63,26.63,0,0,0,164.476,280.429Z" transform="translate(68.997 158.511)" fill="url(#linear-gradient)"/>
    <rect id="Rectangle_225" data-name="Rectangle 225" width="694.675" height="25.483" transform="translate(0.326 519.318)" fill="#a6ce45"/>
    <rect id="Rectangle_226" data-name="Rectangle 226" width="694.675" height="13.454" transform="translate(0.326 519.318)" fill="url(#linear-gradient-2)"/>
    <path id="Path_950" data-name="Path 950" d="M240.43,310.363l5.286,43.814a956.456,956.456,0,0,1-114.208-.982c-.851-7.873,2.046-15.63,5.074-22.914,7.529-18.134,18.1-37.546,36.809-43.487,14.3-4.55,26.858,1.129,40.917,2.537,6.972.7,14.616-1.637,20.131,3.912C238.663,297.5,239.726,304.6,240.43,310.363Z" transform="translate(52.667 169.838)" fill="#2c35df"/>
    <path id="Path_951" data-name="Path 951" d="M240.43,310.363l5.286,43.814a956.456,956.456,0,0,1-114.208-.982c-.851-7.873,2.046-15.63,5.074-22.914,7.529-18.134,18.1-37.546,36.809-43.487,14.3-4.55,26.858,1.129,40.917,2.537,6.972.7,14.616-1.637,20.131,3.912C238.663,297.5,239.726,304.6,240.43,310.363Z" transform="translate(52.667 169.838)" fill="url(#linear-gradient-3)"/>
    <path id="Path_952" data-name="Path 952" d="M140.378,286.817c4.452,1.064,9.018,2.357,12.6,5.2a30.36,30.36,0,0,1,6.809,8.478,121.769,121.769,0,0,1,16.367,47.906,7.3,7.3,0,0,1-.327,4.108c-1.228,2.488-4.6,2.8-7.381,2.766L39.313,353.888,24.73,354.8c3.273-14.534,12.8-62.751,33.307-69a161.8,161.8,0,0,1,25.025-4.223,239.877,239.877,0,0,1,26.351.36A197.824,197.824,0,0,1,140.378,286.817Z" transform="translate(-15.222 167.492)" fill="#2c35df"/>
    <path id="Path_953" data-name="Path 953" d="M140.378,286.817c4.452,1.064,9.018,2.357,12.6,5.2a30.36,30.36,0,0,1,6.809,8.478,121.769,121.769,0,0,1,16.367,47.906,7.3,7.3,0,0,1-.327,4.108c-1.228,2.488-4.6,2.8-7.381,2.766L39.313,353.888,24.73,354.8c3.273-14.534,12.8-62.751,33.307-69a161.8,161.8,0,0,1,25.025-4.223,239.877,239.877,0,0,1,26.351.36A197.824,197.824,0,0,1,140.378,286.817Z" transform="translate(-15.222 167.492)" fill="url(#linear-gradient-3)"/>
    <path id="Path_954" data-name="Path 954" d="M94.991,291.048a21.719,21.719,0,0,1-.818,6.334c-1.8,5.352-8.02,8.462-13.6,7.643a18.2,18.2,0,0,1-12.963-9.918,34.256,34.256,0,0,1-3.273-16.367,12.144,12.144,0,0,1,1.849-7.283,9.9,9.9,0,0,1,7.349-3.273A19.214,19.214,0,0,1,87.2,272.767c1.849,1.637,5.45,2.979,6.547,4.746C95.089,279.952,95.106,288.07,94.991,291.048Z" transform="translate(9.969 159.071)" fill="url(#linear-gradient-5)"/>
    <path id="Path_955" data-name="Path 955" d="M65.39,271.93s17.185,27.054,23.437,19.362a19.886,19.886,0,0,0,4.124-16.269Z" transform="translate(10.666 161.478)" fill="url(#linear-gradient-6)"/>
    <path id="Path_956" data-name="Path 956" d="M110.8,283.39l-10.2,6.972a9.56,9.56,0,0,0-2.128,1.751,9.705,9.705,0,0,0-1.637,4.272,222.424,222.424,0,0,0-4.534,47.464,12.16,12.16,0,0,0,.736,4.91,8.806,8.806,0,0,0,4.354,4.075c3.748,1.817,8.052,1.964,12.21,2.079l16.514.442a12.733,12.733,0,0,0,4.91-.524c3.813-1.473,5.3-6.2,5.008-10.278a39.117,39.117,0,0,0-3.732-12.341l-11.228-26.318C118.364,299.364,116.007,288.316,110.8,283.39Z" transform="translate(27.791 168.775)" fill="url(#linear-gradient-3)"/>
    <path id="Path_957" data-name="Path 957" d="M194.868,323.679a37.644,37.644,0,0,1,9.82,1.129,10.213,10.213,0,0,1,7.005,6.383c1.228,4.386-1.98,9.018-6.088,10.966s-8.838,1.882-13.388,1.784l-36.662-.867a45.548,45.548,0,0,1-12.652-1.489,15.319,15.319,0,0,1-9.624-7.823c-2.651-5.925.54-13.323,6.007-16.841,8.3-5.319,17.136-2.651,25.483.491a98,98,0,0,0,30.1,6.269Z" transform="translate(53.286 188.192)" fill="url(#linear-gradient-3)"/>
    <path id="Path_958" data-name="Path 958" d="M342.35,364.3c7.283-18.724,22.455-44.927,29.739-63.651,3.4-8.74,7.267-18,15.2-23.077,5.352-3.4,11.85-4.321,18.151-5.172l31.343-4.3c8.413-1.129,15.172,1.637,22.013,6.661s11.948,12.079,16.367,19.346a171.033,171.033,0,0,1,21.506,54.518c.867,4.255,1.375,9.313-1.719,12.373-2.242,2.242-5.712,2.651-8.887,2.815C440.715,366.381,387.85,361.929,342.35,364.3Z" transform="translate(187.003 158.879)" fill="#2c35df"/>
    <path id="Path_959" data-name="Path 959" d="M342.35,364.3c7.283-18.724,22.455-44.927,29.739-63.651,3.4-8.74,7.267-18,15.2-23.077,5.352-3.4,11.85-4.321,18.151-5.172l31.343-4.3c8.413-1.129,15.172,1.637,22.013,6.661s11.948,12.079,16.367,19.346a171.033,171.033,0,0,1,21.506,54.518c.867,4.255,1.375,9.313-1.719,12.373-2.242,2.242-5.712,2.651-8.887,2.815C440.715,366.381,387.85,361.929,342.35,364.3Z" transform="translate(187.003 158.879)" fill="url(#linear-gradient-3)"/>
    <path id="Path_960" data-name="Path 960" d="M402.982,287.043a14.075,14.075,0,0,1-15.057,5.041,5.876,5.876,0,0,1-2.291-1.178,6.645,6.645,0,0,1-1.424-2.226c-2.471-5.728-2.586-12.144-2.684-18.38a17.135,17.135,0,0,1,1.015-7.463c3.061-6.678,17.513-13.388,22.161-5.237C408.612,264.473,407.565,280.774,402.982,287.043Z" transform="translate(211.904 149.967)" fill="url(#linear-gradient-10)"/>
    <path id="Path_961" data-name="Path 961" d="M114.464,213.513a6.792,6.792,0,0,0-8.38,1.064,11.8,11.8,0,0,0-3.077,8.38,9.82,9.82,0,0,0,1.129,5.188,5.057,5.057,0,0,0,4.4,2.6,5.909,5.909,0,0,0,3.568-1.8,11.1,11.1,0,0,0-.638-15.86" transform="translate(34.605 123.659)" fill="#fff"/>
    <path id="Path_962" data-name="Path 962" d="M126.88,206.238c-1.98,2.962-1.637,7.611,1.473,9.476a8.854,8.854,0,0,0,4.91,1.015,21.916,21.916,0,0,0,5.892-1.015,3.372,3.372,0,0,1,1.866-.262,3.928,3.928,0,0,1,1.44,1.064,7.319,7.319,0,1,0,9.509-11.129c-.409-.327-.917-.72-.851-1.244a1.489,1.489,0,0,1,.36-.737,6.645,6.645,0,0,0-1.637-8.969c-5.892-4.092-7.071,1.719-9.624,4.91C136.913,203.522,130.317,201.165,126.88,206.238Z" transform="translate(49.03 111.243)" fill="#fff"/>
    <path id="Path_963" data-name="Path 963" d="M173.671,190.438c2.406-.164,5.057-.818,6.318-2.864a7.709,7.709,0,0,0,.9-3.683,32.176,32.176,0,0,0-.262-6.154c-.966-6.874-10.688-10.213-14.256-3.535S164.424,191.092,173.671,190.438Z" transform="translate(73.844 96.946)" fill="#fff"/>
    <path id="Path_964" data-name="Path 964" d="M208.226,199.583c-.589-.458-1.358.311-1.637.982a14.108,14.108,0,0,0,.851,12.635,3.274,3.274,0,0,0,1,1.129,2.668,2.668,0,0,0,1.375.327,5.679,5.679,0,0,0,5.139-4.468,8.9,8.9,0,0,0-1.637-6.94,10.851,10.851,0,0,0-5.5-4.239" transform="translate(99.863 115.051)" fill="#fff"/>
    <path id="Path_965" data-name="Path 965" d="M292.093,218.561a3.584,3.584,0,0,0,3.486-3.453c1.277-7.234-7.529-19.64-15.139-12.668S284.564,219.707,292.093,218.561Z" transform="translate(146.014 115.926)" fill="#fff"/>
    <path id="Path_966" data-name="Path 966" d="M337.072,178.791a7.3,7.3,0,0,0-1.849-9.3,5.2,5.2,0,0,0-6.023-.344c-2,1.489-2.128,4.37-2.079,6.858-1.9-.917-4.288.917-4.5,3.012a6.547,6.547,0,0,0,2.766,5.417,8.527,8.527,0,0,0,6.383,2.095,5.417,5.417,0,0,0,4.714-4.337c.2-1.555-.426-3.159-.115-4.7" transform="translate(174.441 95.532)" fill="#fff"/>
    <path id="Path_967" data-name="Path 967" d="M351.393,192.149a9.165,9.165,0,0,0-6.072-.687,3.748,3.748,0,0,0-2.095,1.113,4.206,4.206,0,0,0-.72,2.717,16.941,16.941,0,0,0,.54,4.255,4.566,4.566,0,0,0,1.326,2.5c1.522,1.26,3.8.491,5.6-.327,1.391-.638,2.962-1.473,3.273-2.979a4.534,4.534,0,0,0-.491-2.75,26.661,26.661,0,0,0-3.142-5.516" transform="translate(187.093 109.62)" fill="#fff"/>
    <path id="Path_968" data-name="Path 968" d="M373.655,196.318a5.925,5.925,0,0,0,.507,7.349,3.715,3.715,0,0,0,3.273,1.244,3.993,3.993,0,0,0,2.75-3.273,7.693,7.693,0,0,0-5.63-8.707" transform="translate(206.271 111.18)" fill="#fff"/>
    <path id="Path_969" data-name="Path 969" d="M258.245,43.4A46.04,46.04,0,0,0,243.2,62.236a13.371,13.371,0,0,1-2.962,4.55c-2.962,2.586-7.431,1.751-11.326,1.26a46.842,46.842,0,0,0-52.5,51.981c-13.83.507-24.338,13.585-27.709,27.005a52.145,52.145,0,0,0,7.414,42.243,46.106,46.106,0,0,0,37.644,19.558c-.933,10.426,3.8,20.475,9.1,29.46,3.584,6.088,7.578,12.1,13.094,16.563s12.684,7.267,19.64,6.039c1.047,15.6,15.418,28.216,30.884,30.393s31.2-4.485,43.061-14.648c6.4,6.154,16.449,7.267,24.976,4.8s15.81-8.02,22.455-13.9c12.439,3.568,25.369-2.537,36.875-8.462,7.316-3.781,14.976-7.856,19.346-14.828s4.73-15.614,2.913-23.5-5.679-15.156-9.493-22.308c6.629-3.863,13.454-7.905,17.905-14.157s5.843-15.368,1.178-21.441c-1.195-1.555-2.75-2.946-3.159-4.91-.475-2.177.72-4.321,1.637-6.334,4.517-9.82,3.175-21.588-1.457-31.343s-12.21-17.791-20.229-25.025c-6.023-5.417-12.472-10.557-19.984-13.552s-16.367-3.6-23.568,0c-2.013-6.3-4.157-12.832-8.691-17.643s-12.193-7.4-18-4.108c2.029-1.162-11.375-14.337-12.733-15.3a43.323,43.323,0,0,0-19.64-7.578C287.967,35.689,268.392,36.442,258.245,43.4Z" transform="translate(62.676 11.576)" fill="#fff"/>
    <path id="Path_970" data-name="Path 970" d="M281.131,291.507c-8.02,8.609-12.668,19.755-17.169,30.622l-12.8,31.1a5.565,5.565,0,0,0-.442,4.746,5.467,5.467,0,0,0,4.059,2.046,195.3,195.3,0,0,0,19.771,1.964q49.968,3.126,100.034,2.291c3.993,0,8.183-.2,11.719-2,9.2-4.665,9.935-17.447,8.3-27.627a146.025,146.025,0,0,0-9.918-34.37,39.1,39.1,0,0,0-7.136-11.948c-7.627-7.987-19.755-9.264-30.786-9.575C325.632,278.1,296.941,274.5,281.131,291.507Z" transform="translate(128.449 165.339)" fill="#a6ce45"/>
    <path id="Path_971" data-name="Path 971" d="M262.584,283.391a6.171,6.171,0,0,0-2.144-3.126,5.958,5.958,0,0,0-2.881-.655,55.335,55.335,0,0,0-8.707.311,8.331,8.331,0,0,0-5.057,1.915,8.069,8.069,0,0,0-1.833,4.386c-2.34,12.684.344,25.663,1.391,38.511.7,8.756.786,18,5.516,25.467a23.29,23.29,0,0,0,19.64,10.557c3.273,0,7.038-1.211,8.3-4.239a10.557,10.557,0,0,0,.409-4.746C275.694,328.711,272.372,304.6,262.584,283.391Z" transform="translate(122.494 166.335)" fill="url(#linear-gradient-3)"/>
    <path id="Path_972" data-name="Path 972" d="M266.678,285.92c1.555-3.355,3.65-6.416,5.5-9.624a6.251,6.251,0,0,0,1-2.635,2.324,2.324,0,0,0-1.26-2.357c-1.849-.7-3.273,1.849-5.254,2.242s-3.273-1.129-4.55-2.422a60.246,60.246,0,0,0-19.051-12.832,3.045,3.045,0,0,0-2.422-.327c-.786.327-1,1.637-.2,1.931a3.519,3.519,0,0,1-2.16-.556c-.7-.295-1.719-.311-2.03.376s.606,1.637.376,2.553a6.792,6.792,0,0,1-2.52-.376c-.835-.164-1.931.115-2.095.966a2.716,2.716,0,0,0,.1.949,21.748,21.748,0,0,1,0,3.863c0,3.421,2.079,6.547,4.108,9.247,4.321,5.876,9.067,11.457,12.422,18a25.006,25.006,0,0,0,3.47,5.712c2.03,2.144,9.526,5.237,11.457,1.473.933-1.768.164-5.647.491-7.725a32.588,32.588,0,0,1,2.619-8.462Z" transform="translate(116.748 152.513)" fill="url(#linear-gradient-12)"/>
    <path id="Path_973" data-name="Path 973" d="M348.7,313.759c.655,3.175.753,6.809-1.309,9.329s-5.892,3.126-9.264,3.273c-16.367.851-33.159-1.964-49.1,1.768a10,10,0,0,0-6.007,3.093c-1.637,2.21-1.424,5.254-1.1,8l1.375,11.751-15.99-2.913a3.11,3.11,0,0,1-2.979-3.372,79.429,79.429,0,0,1-1.637-18.625,26.187,26.187,0,0,1,6.891-16.842c3.846-3.8,9.067-5.81,14.256-7.3,12.357-3.519,25.27-4.566,38.069-5.6,5.548-.442,14.73-1.637,19.526,2.095C345.331,301.435,347.72,309.046,348.7,313.759Z" transform="translate(136.264 176.671)" fill="url(#linear-gradient-13)"/>
    <path id="Path_974" data-name="Path 974" d="M435.958,322.057c-1.637,2.6-5.385,2.831-8.511,2.831a196.276,196.276,0,0,0-40.77,4.468,45.826,45.826,0,0,0-14.108,4.91,18.5,18.5,0,0,0-8.969,11.457c-1.031,4.91,1.08,10.573,5.565,12.782a19.3,19.3,0,0,0,8.756,1.277l89.118-.966a15.17,15.17,0,0,0,6.007-.867c4.419-1.948,6.318-7.48,6.056-12.308-3.044-57.824-32.079-74.289-36.907-73.553-3.863.573-4.5,30.41-5.581,34.681C435.385,311.615,439.035,317.327,435.958,322.057Z" transform="translate(200.368 161.565)" fill="#a6ce45"/>
    <path id="Path_975" data-name="Path 975" d="M372.874,317.829a27.988,27.988,0,0,0-10.868.589,40.918,40.918,0,0,0-19.051,10.442,5.22,5.22,0,0,0-1.424,1.948,3.8,3.8,0,0,0,2.357,4.321,10.982,10.982,0,0,0,5.319.491l16.743-1.178a21.111,21.111,0,0,0,7.234-1.375c2.766-1.227,5.123-3.666,8.183-3.8a8.427,8.427,0,0,0,2.651-.18c2.668-1,1.98-5.286.458-6.874C382.154,319.793,376.033,318.287,372.874,317.829Z" transform="translate(186.43 190.524)" fill="url(#linear-gradient-14)"/>
    <path id="Path_976" data-name="Path 976" d="M123.028,272.617c0,14.845-5.254,31.49-18.691,37.807-9.656,4.534-21.555,2.39-30.3-3.7s-14.616-15.614-18.216-25.647c-4.141-11.555-5.532-24.37-2.046-36.138S66.1,222.7,77.79,218.967C110.344,208.639,123.061,248.083,123.028,272.617Z" transform="translate(2.013 126.683)" fill="url(#linear-gradient-15)"/>
    <path id="Path_977" data-name="Path 977" d="M80.279,247.118a15.17,15.17,0,0,0,3.273-1.244c1.9-1.195,2.881-3.437,4.615-4.91a15.581,15.581,0,0,1,6.367-2.357,48.74,48.74,0,0,0,16.612-7.414c4.91-3.421,9.493-9.165,7.562-14.73a11.7,11.7,0,0,0-3.781-5.008,20.835,20.835,0,0,0-18.511-3.961c-8.707,2.455-14.73,10.213-22.013,15.516-8.609,6.236-20.2,10.115-24.076,20.017-2.095,5.368-1.408,11.588-3.863,16.809-1.178,2.5-3.126,5.074-2.357,7.742.7,2.373,3.421,3.944,3.519,6.416a8.38,8.38,0,0,1-.966,3.372c-2.144,5.368-1.015,11.62,1.637,16.743a57.513,57.513,0,0,0,10.884,13.437c4.91,4.91,11.228,10.327,18.151,9.067a2.768,2.768,0,0,0,1.146-.426c1.408-1.064,0-3.273-1.228-4.452a38.756,38.756,0,0,1-10.115-16.367,3.8,3.8,0,0,1-.18-2.324,2.668,2.668,0,0,1,3.175-1.391,7.922,7.922,0,0,1,3.192,2,4.124,4.124,0,0,0,.606-5.123c-2.177-4.075-5.892-6.547-7.807-11.031a18.315,18.315,0,0,1-1.735-10.966C65.811,257.871,71.7,249.819,80.279,247.118Z" transform="translate(-2.996 120.004)" fill="#3e3e54"/>
    <path id="Path_978" data-name="Path 978" d="M99.278,265.637a17.561,17.561,0,0,0-12.062,3.7c-1.538,1.1-3.142,2.832-2.57,4.648a4.124,4.124,0,0,0,4.026,2.291,15.351,15.351,0,0,1,4.91.311,29.968,29.968,0,0,0-5.679,13.47c-.72,4.763,0,10.328,4.01,13.094a14.157,14.157,0,0,0,9.427,1.784,20.131,20.131,0,0,0,7.512-1.915,15.647,15.647,0,0,0,7.84-14.386c-.2-5.581-3-10.327-6.645-14.37C106.823,270.71,104.565,266.259,99.278,265.637Z" transform="translate(22.85 157.444)" fill="url(#linear-gradient-16)"/>
    <path id="Path_979" data-name="Path 979" d="M284.333,266.29a41.8,41.8,0,0,0-4.108,11.326,22.619,22.619,0,0,0,6.825,19.542c3.813,3.617,9.051,6.285,10.7,11.277,1.506,4.566-.524,9.82,1.424,14.272s7.267,6.285,11.85,5.319a18.413,18.413,0,0,0,10.933-8.183,75.024,75.024,0,0,0,5.974-12.7,134.2,134.2,0,0,1,8.4-16.727,90.1,90.1,0,0,0,6.3-11.457,41.226,41.226,0,0,0,2.848-14.812c.229-11.719-4.043-24.076-13.486-31.015a25.123,25.123,0,0,0-29.706.262c-4.37,3.273-5.859,7.643-8.183,12.488Q289.211,256.028,284.333,266.29Z" transform="translate(147.309 133.763)" fill="url(#linear-gradient-17)"/>
    <path id="Path_980" data-name="Path 980" d="M301.593,216.045c-1.637-1.522-3.863-3.273-5.728-2.095a4.108,4.108,0,0,0-1.473,2,13.65,13.65,0,0,0-.475,9.084,8.347,8.347,0,0,0-5.892-.556c-2.962,1.26-3.421,5.368-2.471,8.445s2.782,5.958,2.8,9.165c0,1.637-.491,3.273-.524,5.008a4.435,4.435,0,0,0,2.16,4.239c2.013.9,4.174-.687,6.007-1.931,9.722-6.547,24.55-3.519,30.95,6.35s3.994,22.586,1.457,33.961c.638.982,1.849-.507,2.619-1.391,1.637-1.882,5.172-.344,5.663,2.111a6.76,6.76,0,0,1-3.142,6.367c-2.029,1.473-4.452,2.308-6.547,3.65a2.406,2.406,0,0,0-1.228,1.408,2.618,2.618,0,0,0,.311,1.555,43.086,43.086,0,0,0,2.291,4.5,4.91,4.91,0,0,0,2.93,2.668,4.648,4.648,0,0,0,2.733-.622c6.694-3.273,11.244-9.673,14.992-16.121s6.743-14.157,3.093-20.377c-.72-1.227-1.637-2.308-2.34-3.552a22.552,22.552,0,0,1-1.8-7.529,53.291,53.291,0,0,0-16.5-30.917c-4.174-3.863-8.609-7.234-14.255-8.183C310.823,222.248,306.421,220.824,301.593,216.045Z" transform="translate(150.558 124.317)" fill="#b7a451"/>
    <path id="Path_981" data-name="Path 981" d="M370.142,268.434c-.491,6.072.557,13.093,5.581,16.465,3.617,2.455,8.331,2.373,12.717,2.193,6.154-.245,12.521-.556,18-3.273,8.4-4.092,13.4-12.848,17.218-21.392a56.285,56.285,0,0,0,5.516-18.576c.491-6.547-1.129-13.355-5.581-18.1a24.141,24.141,0,0,0-10.229-6.121C386.149,210.675,371.8,247.3,370.142,268.434Z" transform="translate(204.628 127.298)" fill="url(#linear-gradient-18)"/>
    <path id="Path_982" data-name="Path 982" d="M381.26,217.736a14.043,14.043,0,0,1,1.8-6.269,10.2,10.2,0,0,1,5.532-3.944c6.841-2.16,14.092,1.064,20.524,4.223l16.694,8.183a20.933,20.933,0,0,1,13.4,13.437,20.885,20.885,0,0,1,1.948,6.481,17.709,17.709,0,0,1-2.111,8.674,13.665,13.665,0,0,1-4.419,5.958c1.719.786,2.21,3.028,2,4.91a15.565,15.565,0,0,1-4.386,8.756,46.891,46.891,0,0,1-7.774,6.236l-5.4,3.732c-.949.655-2.144,1.342-3.273.867a2.34,2.34,0,0,1-1.195-2.226,7.627,7.627,0,0,1,.7-2.57,53.209,53.209,0,0,0,3.666-22.292,9.952,9.952,0,0,0-.753-3.846,11.194,11.194,0,0,0-2.21-2.766l-7.791-7.807a32.98,32.98,0,0,0-6.547-5.532,16.989,16.989,0,0,0-15.172-.851c-1.08.475-3.012,1.735-4.239,1.408-1.637-.442-1.195-2-1.293-3.6a64.44,64.44,0,0,1,.295-11.162Z" transform="translate(211.514 120.024)" fill="#3e3e54"/>
    <path id="Path_983" data-name="Path 983" d="M411.216,248.765a7.529,7.529,0,0,1-1.637,5.7,12.455,12.455,0,0,1-5.156,4.026,4.174,4.174,0,0,1-3,.344,4.026,4.026,0,0,1-2.177-3.732,10.459,10.459,0,0,1,4.4-8.822C406.437,244.461,410.528,244.935,411.216,248.765Z" transform="translate(223.229 144.495)" fill="url(#linear-gradient-19)"/>
    <path id="Path_984" data-name="Path 984" d="M370.9,242.348a23.16,23.16,0,0,1,4.828-.966,12.421,12.421,0,0,1,3.273,0,16.94,16.94,0,0,1,3.912,1.408c3.273,1.506,6.825,3.273,8.413,6.547a31.107,31.107,0,0,0,1.44,3.273,10.67,10.67,0,0,0,5.467,3.552c1.751.671,1.948,3.028,3.421,4.174,1.768,1.375,4.337.818,6.318-.18a17.5,17.5,0,0,0,5.777-4.583,14.24,14.24,0,0,1,3.584-3.748,3.273,3.273,0,0,1,4.517.966,4.337,4.337,0,0,1-.556,3.47,44.632,44.632,0,0,1-9.607,12.914,20.246,20.246,0,0,1-4.337,3.273,23.615,23.615,0,0,1-7.66,2.062,123.793,123.793,0,0,1-15.941,1.227,22.783,22.783,0,0,1-9.1-1.26,9.017,9.017,0,0,1-2.455-1.506,12.406,12.406,0,0,1-3.273-6.743C366.939,257.618,368.052,250.548,370.9,242.348Z" transform="translate(203.282 141.96)" fill="#3e3e54"/>
    <path id="Path_985" data-name="Path 985" d="M385.333,257.82a5.042,5.042,0,0,1-.573,2.946c-1.064,1.637-3.372,1.882-5.319,1.637a16.024,16.024,0,0,1-5.172-1.637,4.7,4.7,0,0,1-1.637-1.293,5.27,5.27,0,0,1-.72-3.273,42.649,42.649,0,0,1,.327-4.8,11.458,11.458,0,0,1,.851-3.453c.753-1.637,2-2.848,3.764-2.128a13.519,13.519,0,0,1,4.239,2.848,14.141,14.141,0,0,1,4.239,9.149Z" transform="translate(205.805 144.721)" fill="url(#linear-gradient-20)"/>
    <path id="Path_986" data-name="Path 986" d="M192.026,295.842a42.554,42.554,0,0,1,5.941-12.292l8.642-13.83a2.34,2.34,0,0,1,1.08-1.1,2.046,2.046,0,0,1,1.637.393c4.026,2.5,5.008,7.971,4.517,12.684s-2.062,9.378-1.637,14.092a68.976,68.976,0,0,1,1.146,7.709,13.47,13.47,0,0,1-5.057,9.935c-3.683,3.093-11.981,7.332-15.09,1.768C190.6,310.409,190.88,300.883,192.026,295.842Z" transform="translate(90.76 159.35)" fill="url(#linear-gradient-21)"/>
    <path id="Path_987" data-name="Path 987" d="M202.107,294.211c-4.239,1.146-8.674,3.192-10.491,7.185a17.317,17.317,0,0,0-1.129,6.219q-.933,16.629-.72,33.29a10.573,10.573,0,0,0,1.506,6.449c1.637,2.111,4.6,2.635,7.283,2.717a35.779,35.779,0,0,0,14.73-2.7,6.416,6.416,0,0,0,3.584-2.717,6.988,6.988,0,0,0,.426-3.535c-.573-11.015-3.142-22.128-3.273-33.094C213.858,300.267,212.614,291.363,202.107,294.211Z" transform="translate(89.828 175.319)" fill="url(#linear-gradient-3)"/>
    <path id="Path_988" data-name="Path 988" d="M180.329,324.225a3.535,3.535,0,0,0-1.833.491,3.486,3.486,0,0,0-1.015,2.144c-.589,3.012-.884,6.661,1.489,8.593a8.838,8.838,0,0,0,4.01,1.489c3.47.655,6.956,1.26,10.426,1.849a5.941,5.941,0,0,0,3.388-.131,23.317,23.317,0,0,0,2.324-1.637,7.136,7.136,0,0,1,4.386-.491c3.764.376,7.529.9,11.26,1.637a10.54,10.54,0,0,0,3.846.229,3.453,3.453,0,0,0,2.8-2.357c.458-1.882-1.309-3.535-2.946-4.6C206.811,323.734,193.75,323.308,180.329,324.225Z" transform="translate(81.769 194.553)" fill="url(#linear-gradient-23)"/>
    <path id="Path_989" data-name="Path 989" d="M172.145,302.728c2.537,2.864,11.08,5.516,14.485,3.764,2.259-1.162,2.455-7.431,3.47-9.82a31.372,31.372,0,0,0,1.784-5.81,18.789,18.789,0,0,0,.491-8.462,7.562,7.562,0,0,0-5.483-5.925c-2.684-.491-18.986-2.324-17.431-.082C175.893,285.739,166.073,295.9,172.145,302.728Z" transform="translate(76.86 163.627)" fill="url(#linear-gradient-24)"/>
    <path id="Path_990" data-name="Path 990" d="M175.75,290.5a29.032,29.032,0,0,0,3,6.367,8.183,8.183,0,0,0,5.761,3.683,3.355,3.355,0,0,0,1.637-.246c1.473-.687,1.866-2.553,2.079-4.157l1.162-8.674a3.8,3.8,0,0,0-.1-1.964,3.487,3.487,0,0,0-1.228-1.309,41.644,41.644,0,0,0-3.863-2.57c-2.766-1.637-6.383-3.437-9.722-2.8a3.028,3.028,0,0,0-2.439,2c-.409,1.424.7,2.881,1.277,4.092C174.195,286.7,175,288.586,175.75,290.5Z" transform="translate(78.509 165.788)" fill="url(#linear-gradient-25)"/>
    <path id="Path_991" data-name="Path 991" d="M212.469,262.586s7.872,31.834-1.064,42.914-23.257,10.737-28.969,4.648-26.956-32.734-19.084-48.757S201.978,226.1,212.469,262.586Z" transform="translate(71.937 142.263)" fill="url(#linear-gradient-26)"/>
    <path id="Path_992" data-name="Path 992" d="M181.766,255.025c-.606,3.7-.1,7.594-1.408,11.1-2.291,6.088-9.427,9.264-11.784,15.319-.573,1.473-.835,3.061-1.522,4.484a4.632,4.632,0,0,1-3.47,2.9,4.174,4.174,0,0,1-3.8-2.291,10.967,10.967,0,0,1-1.129-4.517c-1.015-10.475.2-21.621,6.039-30.361a26.956,26.956,0,0,1,20.246-12.079c4.91-.262,6.547.769,3.11,4.4C184.973,247.218,182.518,250.394,181.766,255.025Z" transform="translate(69.841 140.854)" fill="#3e3e54"/>
    <path id="Path_993" data-name="Path 993" d="M164.944,271.962a2.078,2.078,0,0,0-1.08.36,2.03,2.03,0,0,0-.475.638,5.32,5.32,0,0,0-.851,3.372,4.91,4.91,0,0,0,3.944,3.47,11.129,11.129,0,0,0,6.039-.115,1.031,1.031,0,0,0,.507-.278,1.129,1.129,0,0,0,0-1.113,17.579,17.579,0,0,0-3.061-4.8A5.27,5.27,0,0,0,164.944,271.962Z" transform="translate(72.506 161.414)" fill="url(#linear-gradient-27)"/>
    <path id="Path_994" data-name="Path 994" d="M254.289,331.989c-.884,1.08-1.637,2.733-.687,3.7a2.962,2.962,0,0,0,2.34.524l29.362-1.735a4.142,4.142,0,0,0,1.424-.262c1.457-.655,1.637-2.651,1.457-4.255-.164-2.537-.327-5.057-.507-7.578s.393-3.584-2.259-3.944c-3.666-.507-8.282.687-11.784,1.637a37.84,37.84,0,0,0-19.346,11.915Z" transform="translate(130.217 191.012)" fill="url(#linear-gradient-28)"/>
    <path id="Path_995" data-name="Path 995" d="M222.682,131.135c-9.82-15.058-11.1-36.858,1.015-50.2A39.739,39.739,0,0,1,245.121,69.3c14.239-2.979,30.541,1.195,39.28,12.8a37.2,37.2,0,0,1,6.874,24.779,55.648,55.648,0,0,1-8.183,24.7c-2.6,4.4-5.728,8.642-6.874,13.634-.737,3.273-.606,6.547-1.228,9.82A22.046,22.046,0,0,1,255.809,172.3c-8.183.7-19.64-4.681-21.277-13.486-.884-4.763,0-8.429-2.291-13.208C229.753,140.366,225.841,135.947,222.682,131.135Z" transform="translate(105.898 31.876)" opacity="0.43" fill="url(#linear-gradient-3)"/>
    <path id="Path_996" data-name="Path 996" d="M230.744,141.475c1.849-9.035,0-18.331-1.129-27.48a20.049,20.049,0,0,1,.393-9.1c1.047-2.881,3.8-5.368,6.841-5.139,3.47.278,5.778,3.715,6.907,7.005a27.676,27.676,0,0,1,1.228,12.6c-.311,2.242-1.146,4.779-3.273,5.63a13.994,13.994,0,0,1,2.7-18.658,5.892,5.892,0,0,1,4.043-1.44c2.39.262,3.928,2.717,4.5,5.057a15.139,15.139,0,0,1-.245,8.183,3.863,3.863,0,0,1-1.211,2.013,1.637,1.637,0,0,1-2.144-.164,2.357,2.357,0,0,1-.295-1.26c-.262-5.106,0-10.786,3.552-14.485A3.5,3.5,0,0,1,254.7,103a3.273,3.273,0,0,1,1.948.442c3.355,1.964,4.452,6.416,3.846,10.246s-2.537,7.3-3.961,10.9a43.765,43.765,0,0,0-3,18.315" transform="translate(115.005 51.848)" fill="none" stroke="#fff" stroke-miterlimit="10" stroke-width="0.78"/>
    <path id="Path_997" data-name="Path 997" d="M225.372,133.412c-.376.606-.9,1.1-1.26,1.637-1.195,1.98-.507,4.517.229,6.727,1.44,4.337,3.061,8.953,6.71,11.719a18.936,18.936,0,0,0,8.642,3.126,53.324,53.324,0,0,0,18.167-.327,21.964,21.964,0,0,0,7.758-2.733A10.3,10.3,0,0,0,270.4,147.1a15.449,15.449,0,0,1,.458-2.455c.245-.7.687-1.326,1-2a6.2,6.2,0,0,0,0-4.91,15.431,15.431,0,0,1-1.309-2.913,8.363,8.363,0,0,1,.213-2.979,16.121,16.121,0,0,0-2.242-10.851,35.483,35.483,0,0,1-17.1,7.84,25.909,25.909,0,0,1-17.251-3.4c-2.177-1.391-4.4-3.879-6.383-.867C225.978,127.209,226.976,130.826,225.372,133.412Z" transform="translate(111.31 65.377)" fill="#3e3e54"/>
  </g>
</svg>
