<svg xmlns="http://www.w3.org/2000/svg" width="305" height="178.893" viewBox="0 0 305 178.893">
  <g id="undraw_friends_online_klj6" transform="translate(0.037)">
    <path id="Path_523" data-name="Path 523" d="M881.91,142.738h0c-7.294,0-13.206,6.562-13.206,14.656v10.284h3.163l1.831-3.81-.458,3.81h20.33l1.665-3.464-.416,3.464h2.289V159.6C897.107,150.289,890.3,142.738,881.91,142.738Z" transform="translate(-642.397 -137.726)" fill="#2f2e41"/>
    <ellipse id="Ellipse_85" data-name="Ellipse 85" cx="143.291" cy="9.618" rx="143.291" ry="9.618" transform="translate(18.381 159.657)" fill="#3f3d56"/>
    <path id="Path_524" data-name="Path 524" d="M276.319,543.078c-.063-.1-1.55-2.586-2.066-7.742-.473-4.73-.169-12.7,3.966-23.824a48.044,48.044,0,0,0-1.9-38.238l.476-.276a42.2,42.2,0,0,1,3.981,11.279,49.205,49.205,0,0,1-2.038,27.427c-7.82,21.033-2.006,30.99-1.947,31.088Z" transform="translate(-211.179 -377.232)" fill="#3f3d56"/>
    <circle id="Ellipse_86" data-name="Ellipse 86" cx="3.572" cy="3.572" r="3.572" transform="translate(58.505 87.66)" fill="#6c63ff"/>
    <circle id="Ellipse_87" data-name="Ellipse 87" cx="3.572" cy="3.572" r="3.572" transform="translate(69.772 100.851)" fill="#3f3d56"/>
    <circle id="Ellipse_88" data-name="Ellipse 88" cx="3.572" cy="3.572" r="3.572" transform="translate(62.077 109.644)" fill="#6c63ff"/>
    <circle id="Ellipse_89" data-name="Ellipse 89" cx="3.572" cy="3.572" r="3.572" transform="translate(71.42 117.064)" fill="#6c63ff"/>
    <circle id="Ellipse_90" data-name="Ellipse 90" cx="3.572" cy="3.572" r="3.572" transform="translate(59.329 128.605)" fill="#3f3d56"/>
    <path id="Path_525" data-name="Path 525" d="M288.557,687.889S284.984,679.1,295.7,672.5Z" transform="translate(-221.258 -521.911)" fill="#3f3d56"/>
    <path id="Path_526" data-name="Path 526" d="M236.578,703.452s-1.626-9.351-14.209-9.271Z" transform="translate(-173.673 -537.634)" fill="#3f3d56"/>
    <path id="Path_527" data-name="Path 527" d="M889.939,207.824s4.122,9.618-1.374,11.541l5.5,18.137,9.343-.55,2.473-6.046-.55-9.068-.824-6.046s-5.771,1.374-5.221-8.794Z" transform="translate(-656.8 -184.329)" fill="#ffda9a"/>
    <path id="Path_528" data-name="Path 528" d="M820.819,250.913s-9.068-.824-8.244,5.771,1.649,7.969,1.649,7.969l.824,9.893-4.946,3.023H805.43s-14.289,3.3-7.145,6.87,9.618-2.748,9.618-2.748,13.19,0,14.015-2.2S820.819,250.913,820.819,250.913Z" transform="translate(-589.878 -216.151)" fill="#ffda9a"/>
    <path id="Path_529" data-name="Path 529" d="M949.565,239.175s8.519-3.023,9.068,3.572.55,7.145.55,7.145l1.649,9.343s3.3,8.244,3.3,10.717S966.6,280.12,966.6,280.12s3.3,10.717-.275,10.442-4.122-11.542-4.122-11.542l-7.42-14.839-2.2-9.068Z" transform="translate(-701.037 -207.161)" fill="#ffda9a"/>
    <path id="Path_530" data-name="Path 530" d="M880.425,239.023h-2.2l-.275,11.542s-3.572,4.946.824,9.343l1.1,7.145,20.06-.824,1.374-7.42s2.748-6.046-1.1-11.542L896.638,236h-1.924s4.455,16.427-4.946,16.763C882.074,253.037,880.425,239.023,880.425,239.023Z" transform="translate(-648.111 -205.36)" fill="#6c63ff"/>
    <path id="Path_531" data-name="Path 531" d="M819.907,342.55l-1.649,5.5s-34.35,96.729-23.907,99.2,25.007,5.771,26.381,3.3S829.25,375.8,829.25,375.8s-1.1,75.569,2.473,75.569,27.2.55,28.579-3.023-12.366-99.2-20.335-101.4l-2.2-4.946Z" transform="translate(-587.043 -282.232)" fill="#2f2e41"/>
    <path id="Path_532" data-name="Path 532" d="M906.112,334l-21.709.824s-.991,7.42,0,7.42c.275,0,22.808,1.924,22.533-1.374S906.112,334,906.112,334Z" transform="translate(-653.462 -276.43)" fill="#3f3d56"/>
    <path id="Path_533" data-name="Path 533" d="M392.144,442.547a31.057,31.057,0,0,1-17.574,27.983s0,0,0,0a30.239,30.239,0,0,1-2.9,1.217c-.157.06-.316.115-.478.168-.33.118-.665.225-1,.327q-1.043.321-2.116.569h0l-.019.005-.044.008c-.093.022-.19.044-.286.063q-.8.177-1.616.305a30.811,30.811,0,0,1-5.018.407c-.9,0-1.8-.038-2.679-.115a1.252,1.252,0,0,1-.143-.014,31.172,31.172,0,0,1-7.106-1.492c-.341-.115-.682-.236-1.017-.365a31.055,31.055,0,1,1,42-29.065Z" transform="translate(-251.749 -332.628)" fill="#3f3d56"/>
    <path id="Path_534" data-name="Path 534" d="M429.639,522.182s7.283-3.174,10.7.179S431.184,524.609,429.639,522.182Z" transform="translate(-323.986 -411.914)" fill="#3f3d56"/>
    <path id="Path_535" data-name="Path 535" d="M425.562,459.533a9.508,9.508,0,0,0-7.29-4.328s-4.719-.6-7.746,5.7c-2.821,5.871-6.715,11.539-.627,12.914l1.1-3.423.681,3.678a23.815,23.815,0,0,0,2.6.045c6.52-.211,12.729.062,12.529-2.278C426.549,468.725,427.917,463.512,425.562,459.533Z" transform="translate(-307.332 -364.317)" fill="#2f2e41"/>
    <path id="Path_536" data-name="Path 536" d="M436.366,628.469c.162-.052.322-.107.478-.168l-.036-.049-.442-.025-2.863-.154h0l-.481-.025-2.278-.124-4.96-.269-2.657-.143-.135-.008h-.033l-1.871-.1-.61-.033-.58,2.127a30.088,30.088,0,0,0,3.545.528,1.26,1.26,0,0,0,.143.014c.882.077,1.778.115,2.679.115a30.811,30.811,0,0,0,5.018-.407q.816-.128,1.616-.3c.1-.019.192-.041.286-.063l.044-.008.019-.005h0q1.072-.247,2.116-.569Z" transform="translate(-316.919 -489.183)" fill="#2f2e41"/>
    <path id="Path_537" data-name="Path 537" d="M429.955,499.28s1.1,7.283-1.1,8.166,4.414,4.635,4.414,4.635h3.752L439.445,507s-2.207-3.973-.883-7.725S429.955,499.28,429.955,499.28Z" transform="translate(-323.088 -395.082)" fill="#a0616a"/>
    <path id="Path_538" data-name="Path 538" d="M436.736,555.079v-25.82s-.28-2.652-2.5-1.962a4.186,4.186,0,0,0-.66.275,7.622,7.622,0,0,0-1.05.684c-.126.1-.256.2-.39.313l-.033.027c-4.193,3.531-6.177,1.1-6.62.662-.162-.159-.585-.613-1.061-1.124v0c-.206-.22-.42-.451-.624-.676-.629-.679-1.184-1.286-1.184-1.286l-2.207,1.764.539,13.377.126,3.155v0l.041.981v.005l.344,8.557.052,1.292a23.442,23.442,0,0,0,2.273.6c.225.047.464.093.709.137,1.913.346,4.32.525,5.848-.3a5.431,5.431,0,0,1,.967-.4,6.719,6.719,0,0,1,2.05-.283c.148,0,.294.008.44.016h0a9.914,9.914,0,0,1,1.937.333Z" transform="translate(-317.289 -415.792)" fill="#3f3d56"/>
    <path id="Path_539" data-name="Path 539" d="M406.285,553.218a13.444,13.444,0,0,1-1.663,1.775c-.187.17-.374.335-.563.5l-.115.1a31.173,31.173,0,0,1-7.106-1.492c-.341-.115-.682-.236-1.017-.365a10.264,10.264,0,0,0,.5-1.657c1.52-7.123-2.9-17.933-3.284-19.667-.14-.624.376-1.489,1.2-2.41a28.145,28.145,0,0,1,6.3-4.872,4.549,4.549,0,0,1,2.927-.269h0a5.284,5.284,0,0,1,.9.269v0c0,.041.033.354.085.89.027.294.06.651.1,1.069v0c.074.78.168,1.753.278,2.863v0c.662,6.84,1.86,18.744,2.328,20.769A3.224,3.224,0,0,1,406.285,553.218Z" transform="translate(-297.424 -414.745)" fill="#d0cde1"/>
    <path id="Path_540" data-name="Path 540" d="M464.563,555.079c.162-.052.322-.107.478-.168a30.234,30.234,0,0,0,2.9-1.217c-1.412-4.127,2.762-17.249,3.957-21.311v-.005c.14-.475.239-.827.283-1.022.442-1.987-6.29-3.861-6.51-4.3-.17-.335-2.9-.673-4.193-.813-.4-.044-.66-.069-.66-.069a3.894,3.894,0,0,0-.805,2.124c-.019.088-.036.181-.049.275-.146.852-.258,1.882-.349,3.039-.5,6.309-.33,16.279-.786,20.384a8.36,8.36,0,0,0,.113,2.542,7.988,7.988,0,0,0,.192.805,9.42,9.42,0,0,0,.346,1.017q.816-.128,1.616-.305c.1-.019.192-.041.286-.063l.044-.008.019-.005h0q1.072-.247,2.116-.569Z" transform="translate(-345.116 -415.792)" fill="#d0cde1"/>
    <ellipse id="Ellipse_91" data-name="Ellipse 91" cx="0.441" cy="0.883" rx="0.441" ry="0.883" transform="translate(117.35 100.336)" fill="#a0616a"/>
    <ellipse id="Ellipse_92" data-name="Ellipse 92" cx="0.441" cy="0.883" rx="0.441" ry="0.883" transform="translate(104.329 100.336)" fill="#a0616a"/>
    <path id="Path_541" data-name="Path 541" d="M471.6,562.65c.162-.052.322-.107.478-.168a30.234,30.234,0,0,0,2.9-1.217.01.01,0,0,0,0,.008.016.016,0,0,1,0-.011c1.649-8.706,3.4-18.018,3.952-21.308v-.005c.1-.572.157-.959.173-1.132.22-2.207-5.3-2.207-5.3-2.207l-.879,4.443-1.327,6.713-.456,2.306-2.41,12.182-.077.39-.179.9h0q1.072-.247,2.116-.569Z" transform="translate(-352.15 -423.363)" fill="#d0cde1"/>
    <path id="Path_542" data-name="Path 542" d="M401.677,565.953a31.173,31.173,0,0,1-7.106-1.492c-.173-.668-.346-1.344-.519-2.022-2.146-8.423-4.166-17.334-4.166-19.005a3.741,3.741,0,0,1,2.086-3.072,11.839,11.839,0,0,1,3.432-1.341s.7,2.927,1.715,7.148c.541,2.253,1.168,4.875,1.819,7.617v0c.758,3.182,1.553,6.524,2.289,9.645q.177.758.352,1.495v.011a.028.028,0,0,1,0,.011l.066.272c.049.214.1.426.146.635.011.036.019.071.027.11A1.26,1.26,0,0,1,401.677,565.953Z" transform="translate(-295.156 -425.111)" fill="#d0cde1"/>
    <path id="Path_543" data-name="Path 543" d="M414.379,562.713l4.966,19.42S417.027,565.141,414.379,562.713Z" transform="translate(-312.919 -442.293)" opacity="0.2"/>
    <path id="Path_544" data-name="Path 544" d="M461.325,635.193l1.616-.313v.008Q462.141,635.065,461.325,635.193Z" transform="translate(-346.965 -494.629)" opacity="0.2"/>
    <path id="Path_545" data-name="Path 545" d="M472,552.78l-1.327,6.713-.456,2.306-2.407,12.182h0l-.074.39h0l-.176.9h0l-.019.005-.044.008-.286.055c.025-.308.055-.638.088-.987.011-.129.022-.261.036-.4.517-5.614,1.619-15.312,3.347-19.373A3.3,3.3,0,0,1,472,552.78Z" transform="translate(-351.229 -435.09)" opacity="0.2"/>
    <circle id="Ellipse_93" data-name="Ellipse 93" cx="6.4" cy="6.4" r="6.4" transform="translate(104.881 94.928)" fill="#a0616a"/>
    <path id="Path_546" data-name="Path 546" d="M392.734,338.433l-4.784-2.506-6.606,1.025-1.367,6.037,3.4-.131.951-2.218v2.181l1.57-.06.911-3.531.57,3.759,5.581-.114Z" transform="translate(-275.587 -243.615)" fill="#2f2e41"/>
    <path id="Path_547" data-name="Path 547" d="M107.142,299.546A31.05,31.05,0,0,1,94.2,324.769a30.581,30.581,0,0,1-3.427,2.143A31.134,31.134,0,0,1,69.511,329.9,30.388,30.388,0,0,1,65,328.556a31.055,31.055,0,1,1,42.143-29.01Z" transform="translate(-45.065 -228.923)" fill="#3f3d56"/>
    <circle id="Ellipse_94" data-name="Ellipse 94" cx="7.142" cy="7.142" r="7.142" transform="translate(21.925 54.315)" fill="#ffb8b8"/>
    <path id="Path_548" data-name="Path 548" d="M140.786,362.15s.893,4.24.893,4.687,4.24,2.455,4.24,2.455l3.794-.67,1.339-4.017s-2.232-3.348-2.232-4.687Z" transform="translate(-114.509 -295.226)" fill="#ffb8b8"/>
    <path id="Path_549" data-name="Path 549" d="M122.566,406.127a31.068,31.068,0,0,1-6.579-.7c-.107-2.185-.179-4.592-.179-4.592l-2.176-6.315-4.518-13.1,9.3-7.1s2.3,3.751,5.65,2.635a4.618,4.618,0,0,0,3.276-4.314l11.008,3.869-1.9,15.43-.107.863.907,9.64a30.9,30.9,0,0,1-14.682,3.685Z" transform="translate(-91.541 -304.452)" fill="#d0cde1"/>
    <path id="Path_550" data-name="Path 550" d="M123.968,316.783s2.267-4.913,6.613-3.779,6.8,2.834,6.991,4.535a24.264,24.264,0,0,1-.094,4.251s-.472-3.5-3.5-2.74a26.966,26.966,0,0,1-7.747.189l-.756,6.8s-.85-1.228-1.8-.472S120.945,318.294,123.968,316.783Z" transform="translate(-101.095 -261.08)" fill="#2f2e41"/>
    <path id="Path_551" data-name="Path 551" d="M94.135,423.851l1.437-12.119a9.07,9.07,0,0,1,2.679-7.142H101.6l2.454,8.258-1.283,4.842-1.616,6.092-.448.671s.448.668.223.893a3.77,3.77,0,0,0-.445,1.116s.047.319.129.794a30.771,30.771,0,0,1-6.477-3.4Z" transform="translate(-80.677 -327.622)" fill="#d0cde1"/>
    <path id="Path_552" data-name="Path 552" d="M212.128,403.7a31.008,31.008,0,0,1-5.488,5.04,10.367,10.367,0,0,1-.764-1.7l-3.462-6.664-2.339-4.5.445-11.6,3.795.67a14.6,14.6,0,0,1,3.124,4.911l1.786,8.032,2.9,5.8Z" transform="translate(-157.505 -312.893)" fill="#d0cde1"/>
    <path id="Path_553" data-name="Path 553" d="M659.151,234.545a31.029,31.029,0,0,1-14.913,26.532c-.55.335-1.11.651-1.682.954-.852.451-1.729.863-2.624,1.228v0c-.286.118-.572.231-.86.338-.135.052-.272.1-.409.154a31.257,31.257,0,0,1-17.59,1.047,30.7,30.7,0,0,1-3.531-1.044h0a30.926,30.926,0,0,1-4.259-1.918q-.536-.289-1.055-.6c-.242-.143-.478-.289-.714-.437a31.054,31.054,0,1,1,47.642-26.254Z" transform="translate(-445.386 -181.784)" fill="#3f3d56"/>
    <path id="Path_554" data-name="Path 554" d="M694.286,300s.184,4.779-.919,5.882,5.514,4.963,5.514,4.963l3.86-6.066a8.645,8.645,0,0,1-1.1-4.779Z" transform="translate(-515.152 -251.776)" fill="#a0616a"/>
    <circle id="Ellipse_95" data-name="Ellipse 95" cx="6.617" cy="6.617" r="6.617" transform="translate(175.733 37.659)" fill="#a0616a"/>
    <path id="Path_555" data-name="Path 555" d="M684.787,340.112q.062.767.121,1.533c-.135.052-.272.1-.409.154a31.256,31.256,0,0,1-17.59,1.047,30.7,30.7,0,0,1-3.531-1.044l0,.025a.038.038,0,0,1,0-.025,7.492,7.492,0,0,1,.313-1.652v0c.154-.566.363-1.22.6-1.943a15.061,15.061,0,0,0,.22-4.045c-.005-.121-.008-.245-.014-.363-.022-.514-.049-1.006-.077-1.443-.063-.987-.129-1.687-.129-1.687l-4.045-10.846,9.769-7.134c.577,1.871,1.814,1.805,1.814,1.805,5.243.36,6.208-3.262,6.238-3.38v0l9.384,6.139-3.858,9.373s.157,1.588.379,4.012c.033.357.066.734.1,1.127C684.29,334.141,684.551,337.106,684.787,340.112Z" transform="translate(-491.222 -259.83)" fill="#d0cde1"/>
    <path id="Path_556" data-name="Path 556" d="M658.984,386.208l-.192,1.4-.047.352-.816,5.963-.005.025v0l-.311,1.652,0,.025a.038.038,0,0,1,0-.025,30.922,30.922,0,0,1-4.259-1.918q-.536-.289-1.055-.6a19.105,19.105,0,0,1,.808-2.088l.561-4.364.173-1.336,4.817.86Z" transform="translate(-485.457 -313.626)" fill="#a0616a"/>
    <path id="Path_557" data-name="Path 557" d="M659.477,341.811l-2.665.276s-1.746,12.959-1.195,12.959,6.8,1.471,6.985,1.1S659.477,341.811,659.477,341.811Z" transform="translate(-487.787 -282.094)" fill="#d0cde1"/>
    <path id="Path_558" data-name="Path 558" d="M684.064,250.779l-1.193-.434a8.482,8.482,0,0,1,5.964-2.277l-.976-.976a4.427,4.427,0,0,1,4.555,1.41,19.374,19.374,0,0,1,3.282,4.189h1.278l-.533,1.066,1.866,1.066-1.915-.192a5.381,5.381,0,0,1-.181,2.762l-.434,1.193a34.4,34.4,0,0,1-1.735-3.9v1.084s-1.193-.976-1.193-1.627l-.651.759-.325-1.193-4.012,1.193.651-.976-2.494.325.976-1.193s-2.82,1.41-2.928,2.6a6.237,6.237,0,0,1-1.518,2.711l-.651-1.084S680.919,252.406,684.064,250.779Z" transform="translate(-506.818 -213.287)" fill="#2f2e41"/>
    <path id="Path_559" data-name="Path 559" d="M750.955,387.581c-.55.335-1.11.651-1.682.954-.852.451-1.729.863-2.624,1.228v0c-.286.118-.572.231-.86.338-.135.052-.272.1-.409.154l.289-1.687-1.308-8.313-.165-1.041.657-.124L751,377.93v7.538S751.013,386.284,750.955,387.581Z" transform="translate(-552.103 -308.288)" fill="#a0616a"/>
    <path id="Path_560" data-name="Path 560" d="M742.323,331.777l3.584.46s4.32,13.143,3.217,13.694-8.272.919-8.272.919Z" transform="translate(-549.679 -274.818)" fill="#d0cde1"/>
    <circle id="Ellipse_96" data-name="Ellipse 96" cx="9.068" cy="9.068" r="9.068" transform="translate(42.017 37.922)" fill="#6c63ff"/>
    <circle id="Ellipse_97" data-name="Ellipse 97" cx="9.068" cy="9.068" r="9.068" transform="translate(121.708 77.768)" fill="#6c63ff"/>
    <circle id="Ellipse_98" data-name="Ellipse 98" cx="9.068" cy="9.068" r="9.068" transform="translate(196.179 21.709)" fill="#6c63ff"/>
    <circle id="Ellipse_99" data-name="Ellipse 99" cx="7.721" cy="7.721" r="7.721" transform="translate(229.665 11.2)" fill="#ffda9a"/>
    <path id="Path_561" data-name="Path 561" d="M891.431,150.07a6.926,6.926,0,0,0-5.465-2.789h-.259c-5,0-9.052,4.524-9.052,10.1h1.675l.271-2.059.4,2.059h9.935l.832-1.742-.208,1.742h1.954q1.368,6.794-3.931,13.588h3.329l1.665-3.484-.416,3.484H898.5l1.248-8.013C899.752,156.958,896.265,151.869,891.431,150.07Z" transform="translate(-648.163 -141.021)" fill="#2f2e41"/>
    <circle id="Ellipse_100" data-name="Ellipse 100" cx="4.946" cy="4.946" r="4.946" transform="translate(240.146)" fill="#2f2e41"/>
  </g>
</svg>
