<svg xmlns="http://www.w3.org/2000/svg" width="1403.097" height="1192.259" viewBox="0 0 1403.097 1192.259">
  <path id="Path_255" data-name="Path 255" d="M367.967,1289.429H344.506l-12.153-.975a4.262,4.262,0,0,1-2.845-1.528,3.957,3.957,0,0,1-.868-3.024,3.861,3.861,0,0,1,1.539-2.8,4.167,4.167,0,0,1,3.187-.778l11.815.975h22.954a4.067,4.067,0,1,1,0,8.128Zm33.757-1.788a4.067,4.067,0,1,1,0-8.128c10.8-1.138,21.942-2.764,33.757-4.877a4.22,4.22,0,0,1,4.979,3.17,4.072,4.072,0,0,1-3.291,4.8c-11.14,2.113-22.448,3.9-33.757,5.039Zm-101.27-5.365h-1.013a305.14,305.14,0,0,1-32.744-9.267,4.174,4.174,0,0,1-3.207-5.039,4.35,4.35,0,0,1,5.232-3.089,303.567,303.567,0,0,0,31.9,8.941,4.068,4.068,0,0,1,3.018,4.4,4.161,4.161,0,0,1-4.031,3.567Zm168.784-7.478a4.172,4.172,0,0,1-4.178-3.49,4.064,4.064,0,0,1,3-4.476c10.633-3.089,21.267-6.5,31.562-10.242a4.3,4.3,0,0,1,5.486,2.357,4.046,4.046,0,0,1-2.447,5.283c-10.633,3.9-21.435,7.478-32.238,10.567ZM238,1260.492h-1.857a288.222,288.222,0,0,1-29.706-16.257,4.063,4.063,0,0,1-1.831-2.606,3.943,3.943,0,0,1,.65-3.084,4.227,4.227,0,0,1,2.706-1.763,4.35,4.35,0,0,1,3.2.625,282.032,282.032,0,0,0,28.862,16.257,4.013,4.013,0,0,1,2.109,4.5,4.184,4.184,0,0,1-3.965,3.136Zm294.189-8.778a4.2,4.2,0,0,1-4.329-3.151,4.03,4.03,0,0,1,2.472-4.652c9.958-4.552,20.085-9.429,29.706-14.631a4.314,4.314,0,0,1,5.739,1.626,4,4,0,0,1-1.688,5.527c-9.789,5.2-20.085,10.242-30.212,14.956ZM181.8,1224.89a4.315,4.315,0,0,1-2.7-.975,260.668,260.668,0,0,1-24.643-22.922,3.979,3.979,0,0,1,.253-5.771,4.356,4.356,0,0,1,5.992.244,250.181,250.181,0,0,0,23.8,22.108,3.968,3.968,0,0,1,1.224,4.478,4.213,4.213,0,0,1-3.924,2.675Zm409.3-4.714a4.2,4.2,0,0,1-3.967-2.958,3.994,3.994,0,0,1,1.773-4.52c9.114-5.69,18.566-11.7,27.681-18.207a4.321,4.321,0,0,1,5.339,1.233,3.953,3.953,0,0,1-.444,5.27c-9.283,6.5-18.735,12.68-28.018,18.37a4.335,4.335,0,0,1-4.051.975Zm54.517-37.878a4.22,4.22,0,0,1-4.149-2.7,3.977,3.977,0,0,1,1.449-4.616c8.439-6.5,16.878-13.331,25.655-20.646a4.361,4.361,0,0,1,5.992.406,3.987,3.987,0,0,1-.422,5.771c-8.777,7.316-16.878,14.469-25.992,20.971a4.334,4.334,0,0,1-4.219.975Zm-509.051-5.365a4.268,4.268,0,0,1-3.545-1.788,227.924,227.924,0,0,1-16.878-28.612,4,4,0,0,1,1.941-5.446,4.3,4.3,0,0,1,5.654,1.87,219.968,219.968,0,0,0,16.878,27.474,3.944,3.944,0,0,1,.649,3.084,4.063,4.063,0,0,1-1.831,2.606,4.335,4.335,0,0,1-4.388.975Zm559.855-37.065a4.121,4.121,0,0,1-3.038-1.3,3.958,3.958,0,0,1,0-5.69q12.321-11.054,24.3-22.271a4.353,4.353,0,0,1,5.992.081,3.976,3.976,0,0,1-.084,5.771q-11.984,11.379-24.474,22.434a4.334,4.334,0,0,1-4.22.975Zm-590.573-21.3a4.2,4.2,0,0,1-4.051-2.926l-1.857-3.576a214.814,214.814,0,0,1-6.245-28.286,3.972,3.972,0,0,1,1.291-4.213,4.347,4.347,0,0,1,4.515-.621,4.058,4.058,0,0,1,2.464,3.7,209.5,209.5,0,0,0,6.076,27.311l1.181,3.739a4.044,4.044,0,0,1-2.869,5.039ZM743,1094.35a4.23,4.23,0,0,1-4-2.493,3.958,3.958,0,0,1,.965-4.5l23.461-23.084a4.352,4.352,0,0,1,5.992-.081,3.975,3.975,0,0,1,.084,5.771l-23.629,23.247a4.287,4.287,0,0,1-2.869,1.3ZM95.72,1054.683a4.144,4.144,0,0,1-4.22-4.064v-2.926a263.471,263.471,0,0,1,1.688-30.075,3.692,3.692,0,0,1,1.483-2.867,4,4,0,0,1,3.243-.71,4.261,4.261,0,0,1,2.846,1.528,3.957,3.957,0,0,1,.868,3.024,259.37,259.37,0,0,0-1.688,29.1v2.764a4.144,4.144,0,0,1-4.22,4.064Zm694.375-6.828a4.224,4.224,0,0,1-3.823-2.463,3.951,3.951,0,0,1,.785-4.365l21.6-21.3,2.026-1.951a4.34,4.34,0,0,1,5.516.377,3.953,3.953,0,0,1,.392,5.313l-1.857,1.788-21.6,21.3a4.262,4.262,0,0,1-3.038,1.625Zm47.428-46.006a4.218,4.218,0,0,1-3.865-2.569,3.959,3.959,0,0,1,1-4.421q12.153-11.379,24.643-22.271a4.355,4.355,0,0,1,5.991.244,3.979,3.979,0,0,1-.253,5.771c-8.27,7.316-16.878,14.794-24.473,22.272a4.294,4.294,0,0,1-3.038,1.3ZM102.977,990.307h-.844a4.22,4.22,0,0,1-2.659-1.794,3.939,3.939,0,0,1-.548-3.082c2.363-10.242,5.232-20.971,8.777-31.7a4.276,4.276,0,0,1,5.317-2.682,4.061,4.061,0,0,1,2.785,5.121c-3.376,10.567-6.245,20.971-8.608,31.05a4.178,4.178,0,0,1-4.22,3.414Zm784.337-32.513a4.213,4.213,0,0,1-3.924-2.675,3.967,3.967,0,0,1,1.224-4.478c8.777-7.153,16.878-14.143,26.33-20.483a4.327,4.327,0,0,1,5.908.813,3.967,3.967,0,0,1-.844,5.69c-8.608,6.34-16.878,13.005-25.993,20.158a4.239,4.239,0,0,1-2.7,1.626Zm-764.589-29.75h-1.519a4.017,4.017,0,0,1-2.363-5.2c3.882-9.754,8.27-19.671,13.165-30.075a3.991,3.991,0,0,1,2.344-2.142,4.192,4.192,0,0,1,3.225.191,4.138,4.138,0,0,1,2.256,2.243,3.925,3.925,0,0,1-.062,3.122c-4.895,10.4-9.114,20.158-13,29.75a4.224,4.224,0,0,1-4.051,2.6Zm818.262-9.429a4.207,4.207,0,0,1-4.111-2.88,3.992,3.992,0,0,1,1.748-4.6c9.621-6.178,19.41-12.03,28.862-17.232a4.36,4.36,0,0,1,5.823,1.544,4.033,4.033,0,0,1-1.6,5.609c-9.452,5.2-18.9,10.73-28.356,16.257a4.2,4.2,0,0,1-2.363,1.788Zm61.1-32.513-2.532-3.414-1.688-3.739c10.464-4.552,20.76-8.454,31.562-12.193a4.262,4.262,0,0,1,5.291,2.477,4.021,4.021,0,0,1-2.422,5.164c-10.633,4.227-20.929,8.129-30.212,12.193ZM150.574,869.358h-1.857a4.113,4.113,0,0,1-2.135-2.387,3.929,3.929,0,0,1,.278-3.139l1.688-3.251,11.308-21.459,2.194-4.227a4.344,4.344,0,0,1,5.739-1.788,4.037,4.037,0,0,1,1.857,5.527l-2.194,3.577-11.308,21.3-1.688,3.251A4.217,4.217,0,0,1,150.574,869.358Zm912.612-4.227a4.172,4.172,0,0,1-4.178-3.49,4.064,4.064,0,0,1,3-4.476c10.634-3.089,21.6-5.852,32.744-8.454a4.184,4.184,0,0,1,3.189.408,3.911,3.911,0,0,1,1.875,2.518,4.056,4.056,0,0,1-3.038,4.877q-16.878,3.9-32.406,8.454Zm65.319-16.256a4.161,4.161,0,0,1-4.03-3.567,4.068,4.068,0,0,1,3.017-4.4l32.913-7.315a4.244,4.244,0,0,1,5.064,3.089,4.082,4.082,0,0,1-3.207,4.877l-32.744,7.315Zm65.656-14.956a4.162,4.162,0,0,1-4.03-3.568,4.068,4.068,0,0,1,3.017-4.4q16.2-3.9,32.406-8.291a4.246,4.246,0,0,1,5.233,2.763,4.044,4.044,0,0,1-2.87,5.04q-16.879,4.551-32.744,8.291Zm64.813-17.882a4.184,4.184,0,0,1-4.347-3.406,4.062,4.062,0,0,1,3-4.56l7.6-2.438q12.152-4.064,23.63-8.616a4.355,4.355,0,0,1,4.441.291,4,4,0,0,1,1.7,3.962,4.118,4.118,0,0,1-2.933,3.225q-11.815,4.714-24.136,8.778l-7.764,2.6ZM181.462,811.16H179.6a4,4,0,0,1-1.857-5.365c5.064-9.754,9.958-19.508,14.347-29.1a4.336,4.336,0,0,1,5.654-2.032,4.049,4.049,0,0,1,2.11,5.446c-4.557,9.754-9.452,19.508-14.515,29.425a4.282,4.282,0,0,1-4.557,1.951Zm1139.795-19.671a4.184,4.184,0,0,1-3.966-3.136,4.012,4.012,0,0,1,2.109-4.5,240.95,240.95,0,0,0,29.2-16.257,4.334,4.334,0,0,1,5.823,1.382,4,4,0,0,1-1.435,5.609c-9.452,5.527-19.579,10.892-29.875,16.256Zm57.555-33.651a4.208,4.208,0,0,1-4-2.779,3.978,3.978,0,0,1,1.471-4.537,320.227,320.227,0,0,0,25.655-20.321,4.356,4.356,0,0,1,5.992.244,3.98,3.98,0,0,1-.253,5.771c-8.27,7.153-16.878,14.143-26.33,20.808a4.315,4.315,0,0,1-3.207,1.138ZM208.8,751.986h-1.519a4.025,4.025,0,0,1-2.532-5.2,278.508,278.508,0,0,0,9.79-30.562,4.233,4.233,0,0,1,5.063-2.926,4.056,4.056,0,0,1,3.038,4.877,284.7,284.7,0,0,1-9.958,31.375,4.231,4.231,0,0,1-4.557,2.764ZM1428.6,714.27a4.314,4.314,0,0,1-2.7-.975,3.958,3.958,0,0,1,0-5.69,265.412,265.412,0,0,0,20.423-25.2,4.335,4.335,0,0,1,5.557-.682,3.975,3.975,0,0,1,1.362,5.234,272.866,272.866,0,0,1-21.1,25.848,4.287,4.287,0,0,1-4.22,1.789ZM224.164,688.91h0a4.276,4.276,0,0,1-2.889-1.417,3.967,3.967,0,0,1-.993-2.973V670.7a106.918,106.918,0,0,0-1.013-17.882,4.106,4.106,0,0,1,3.713-4.389,4.182,4.182,0,0,1,4.557,3.576c0,6.34,1.013,12.518,1.013,18.695V685.17a4,4,0,0,1-1.517,3.2,4.34,4.34,0,0,1-3.546.86ZM1466.41,660.786h-1.857a4.113,4.113,0,0,1-2.135-2.388,3.93,3.93,0,0,1,.278-3.14,212.336,212.336,0,0,0,12.659-29.424,4.141,4.141,0,0,1,3.145-3.107,4.312,4.312,0,0,1,4.265,1.4,3.943,3.943,0,0,1,.523,4.31A221.752,221.752,0,0,1,1470.123,659a4.268,4.268,0,0,1-4.388,2.113Zm-1249-36.252a4.191,4.191,0,0,1-4.051-3.089c-2.363-9.591-5.4-19.671-9.283-30.888a3.944,3.944,0,0,1,.523-4.31,4.312,4.312,0,0,1,4.265-1.4,4.139,4.139,0,0,1,3.145,3.107c3.882,11.38,6.92,21.621,9.452,31.538a3.938,3.938,0,0,1-.548,3.082,4.22,4.22,0,0,1-2.659,1.795Zm1269.252-25.2h0a4.078,4.078,0,0,1-3.376-4.714c0-2.6,0-5.2,1.182-7.8a203.614,203.614,0,0,0,1.688-23.9,4.144,4.144,0,0,1,4.22-4.064h0a4.144,4.144,0,0,1,4.219,4.064,213.253,213.253,0,0,1-1.688,24.71c0,2.763,0,5.527-1.182,8.128a4.014,4.014,0,0,1-1.583,3.094,4.341,4.341,0,0,1-3.481.809ZM196.652,562.921a4.217,4.217,0,0,1-3.882-2.6c-4.051-9.917-8.27-20-12.49-30.075a3.94,3.94,0,0,1,.3-4.278,4.3,4.3,0,0,1,4.114-1.637,4.172,4.172,0,0,1,3.348,2.826c4.388,10.242,8.608,20.158,12.49,30.237a4.017,4.017,0,0,1-2.363,5.2ZM1487.508,534.8a4.169,4.169,0,0,1-4.219-3.576,244.6,244.6,0,0,0-6.414-31.213,4.065,4.065,0,0,1,3.063-4.57,4.26,4.26,0,0,1,5.038,2.457,254.275,254.275,0,0,1,6.582,32.513,4.091,4.091,0,0,1-3.544,4.552ZM171,502.284a4.3,4.3,0,0,1-3.544-1.463l-2.025-5.039c-3.207-7.966-6.583-16.257-9.79-25.36a3.946,3.946,0,0,1,.673-4.079,4.309,4.309,0,0,1,4.033-1.4,4.173,4.173,0,0,1,3.227,2.72c3.207,8.779,6.583,17.232,9.789,25.2l2.025,5.039a3.927,3.927,0,0,1,0,3.163,4.153,4.153,0,0,1-2.358,2.2ZM1470.63,471.722a4.216,4.216,0,0,1-3.882-2.6c-3.882-9.754-8.439-19.67-13.334-29.424a4,4,0,0,1,1.941-5.446,4.3,4.3,0,0,1,5.654,1.869c5.064,9.917,9.621,20.158,13.671,30.075a4.017,4.017,0,0,1-2.363,5.2ZM149.393,441.159a4.2,4.2,0,0,1-4.051-2.926c-3.207-10.73-5.908-21.459-8.271-32.513a3.938,3.938,0,0,1,.548-3.082,4.22,4.22,0,0,1,2.659-1.795,4.4,4.4,0,0,1,5.064,3.089c2.194,10.079,4.895,20.646,8.1,31.213a4.044,4.044,0,0,1-2.869,5.039Zm1291.7-27.636a4.26,4.26,0,0,1-3.713-1.951l-6.92-11.055c-3.545-5.365-7.089-10.729-10.971-16.257a3.947,3.947,0,0,1-.694-4.287,4.29,4.29,0,0,1,7.614-.264q5.739,8.128,11.14,16.257l7.089,11.38a3.936,3.936,0,0,1,.048,4.151,4.257,4.257,0,0,1-3.762,2.027ZM135.721,377.6a4.169,4.169,0,0,1-4.22-3.576,291.37,291.37,0,0,1-2.194-32.513,4.194,4.194,0,0,1,4.388-3.251h0a4.144,4.144,0,0,1,4.22,4.064,282.953,282.953,0,0,0,2.025,32.513,3.957,3.957,0,0,1-.868,3.024,4.262,4.262,0,0,1-2.845,1.528Zm1267.564-17.72a4.276,4.276,0,0,1-3.376-1.626c-6.751-8.453-13.84-16.257-21.1-24.873a3.987,3.987,0,0,1,.422-5.771,4.361,4.361,0,0,1,5.992.406c7.427,8.128,14.684,16.257,21.436,25.2a3.958,3.958,0,0,1,0,5.69,4.276,4.276,0,0,1-3.376,1.626ZM135.552,312.9h0a4.263,4.263,0,0,1-2.845-1.528,3.957,3.957,0,0,1-.868-3.024,220.18,220.18,0,0,1,6.583-32.513A4.084,4.084,0,0,1,140.4,273.3a4.362,4.362,0,0,1,3.258-.4,4.206,4.206,0,0,1,2.624,1.9,3.933,3.933,0,0,1,.414,3.138,214.718,214.718,0,0,0-6.414,31.213A3.982,3.982,0,0,1,139,312.438a4.321,4.321,0,0,1-3.452,1.107Zm1223.68-1.951a4.293,4.293,0,0,1-3.038-1.3c-7.764-7.641-15.866-15.281-23.967-22.434a3.979,3.979,0,0,1-.253-5.771,4.355,4.355,0,0,1,5.992-.244c8.27,7.315,16.878,14.956,24.3,22.759a3.958,3.958,0,0,1,0,5.69,4.239,4.239,0,0,1-3.207,1.951Zm-49.791-43.73a4.316,4.316,0,0,1-2.7-.975c-8.608-6.665-16.878-13.33-26.5-19.67a4.005,4.005,0,0,1,.4-7.409,4.337,4.337,0,0,1,4.492.907c9.114,6.34,18.229,13.168,26.837,19.833a3.968,3.968,0,0,1,1.224,4.478,4.213,4.213,0,0,1-3.924,2.675Zm-1156-16.257h-1.688a4,4,0,0,1-2.025-5.365,209.318,209.318,0,0,1,16.878-28.937,4.3,4.3,0,0,1,7.45.216,3.939,3.939,0,0,1-.361,4.174,202.5,202.5,0,0,0-15.866,27.8,4.251,4.251,0,0,1-4.557,2.439ZM1254.925,229.5a4.2,4.2,0,0,1-2.194,0c-9.452-5.852-19.073-11.38-28.693-16.257a4.033,4.033,0,0,1-1.6-5.608,4.359,4.359,0,0,1,5.823-1.544c9.621,5.365,19.41,11.055,29.031,16.257a3.994,3.994,0,0,1,1.772,4.52,4.2,4.2,0,0,1-3.967,2.958Zm-58.568-32.513H1194.5c-9.958-4.714-20.085-9.266-30.381-13.493a4.021,4.021,0,0,1-2.194-5.365,4.3,4.3,0,0,1,5.57-2.113c10.3,4.227,20.76,8.941,30.719,13.655a4.012,4.012,0,0,1,2.109,4.5,4.184,4.184,0,0,1-3.966,3.136Zm-1006.287,0a4.235,4.235,0,0,1-3.959-2.388,3.95,3.95,0,0,1,.752-4.44,236.931,236.931,0,0,1,24.642-22.922,4.336,4.336,0,0,1,5.907,0,3.958,3.958,0,0,1,0,5.69,228.78,228.78,0,0,0-23.8,22.109,4.234,4.234,0,0,1-3.713,2.276Zm945.187-25.035h-1.35c-10.464-3.576-21.1-6.99-31.731-10.079a4.044,4.044,0,0,1-2.869-5.04,4.246,4.246,0,0,1,5.232-2.764c10.8,3.089,21.6,6.665,32.238,10.242a4.061,4.061,0,0,1,3.038,4.655,4.2,4.2,0,0,1-4.557,3.311ZM242.393,155.694a4.2,4.2,0,0,1-3.967-2.958,3.994,3.994,0,0,1,1.773-4.52,301.01,301.01,0,0,1,29.875-16.257,4.3,4.3,0,0,1,5.654,1.87,4,4,0,0,1-1.941,5.446,293.841,293.841,0,0,0-29.031,16.257,4.369,4.369,0,0,1-3.207.163Zm828.39-2.113h-1.013c-10.8-2.439-21.773-4.714-32.744-6.5a4.078,4.078,0,0,1-3.376-4.714,3.888,3.888,0,0,1,1.71-2.656,4.178,4.178,0,0,1,3.185-.6c11.139,1.951,22.279,4.064,33.757,6.665a4.069,4.069,0,0,1,3.017,4.4,4.161,4.161,0,0,1-4.03,3.567ZM769,144.314a4.067,4.067,0,1,1,0-8.128h33.757a4.493,4.493,0,0,1,4.388,3.9,3.978,3.978,0,0,1-1.116,2.922,4.29,4.29,0,0,1-2.935,1.3H769Zm-33.757,0h-7.933c-8.608,0-16.878-1.3-25.993-2.113a4.128,4.128,0,0,1-3.8-4.471,4.2,4.2,0,0,1,4.642-3.658c8.439.813,16.878,1.626,25.655,2.113h7.764a4.067,4.067,0,1,1,0,8.128Zm269.21-1.463h0q-14.009-1.463-28.018-2.438H971.2a4.067,4.067,0,1,1,0-8.128h5.4q14.347.813,28.525,2.439a4.067,4.067,0,1,1,0,8.128Zm-168.784,0a4.067,4.067,0,1,1,0-8.128l33.757-1.626a4.067,4.067,0,1,1,0,8.128Zm67.513-2.926a4.067,4.067,0,1,1,0-8.128h33.757a4.067,4.067,0,1,1,0,8.128H903.18ZM667.9,137.974h0c-10.971-1.626-22.111-3.414-33.757-5.365a4.078,4.078,0,0,1-3.376-4.714,4.212,4.212,0,0,1,4.895-3.251l33.757,5.365a4.067,4.067,0,1,1,0,8.128ZM302.479,126.92a4.184,4.184,0,0,1-4.347-3.405,4.062,4.062,0,0,1,3-4.56c10.465-3.739,21.436-6.99,32.575-9.754a4.342,4.342,0,0,1,4.39.812,3.966,3.966,0,0,1,1.169,4.156A4.173,4.173,0,0,1,335.9,117c-10.8,2.764-21.435,5.852-31.731,9.429Zm298.072-1.788-32.913-5.852a4.2,4.2,0,0,1-3.526-2.574,3.95,3.95,0,0,1,.8-4.192,4.323,4.323,0,0,1,4.246-1.2l32.744,5.852v4.064Zm-65.319-11.055h0q-16.878-2.438-33.757-4.389a4.129,4.129,0,0,1-3.713-4.552,4.219,4.219,0,0,1,4.726-3.577c11.308,1.3,22.448,2.764,33.757,4.389a4.067,4.067,0,1,1,0,8.128Zm-168.108-3.414a4.067,4.067,0,1,1,0-8.128c11.14-1.788,22.448-3.251,33.757-4.064a4.159,4.159,0,0,1,3.136.9,3.849,3.849,0,0,1,1.422,2.838,3.966,3.966,0,0,1-.993,2.972,4.276,4.276,0,0,1-2.889,1.417c-11.14.813-22.111,2.276-33.757,4.064Zm101.27-4.064h0c-9.958,0-19.916-1.138-29.537-1.3h-3.713a4.067,4.067,0,1,1,0-8.128h2.363c9.958,0,19.916,0,30.043,1.3a4.067,4.067,0,1,1,0,8.128Z" transform="translate(-91.5 -97.17)" fill="#e2e253" opacity="0.16"/>
</svg>
