<svg id="undraw_Organizing_projects_0p9a" xmlns="http://www.w3.org/2000/svg" xmlns:xlink="http://www.w3.org/1999/xlink" width="215.5" height="143.36" viewBox="0 0 215.5 143.36">
  <defs>
    <linearGradient id="linear-gradient" x1="0.5" y1="1" x2="0.5" gradientUnits="objectBoundingBox">
      <stop offset="0" stop-color="gray" stop-opacity="0.251"/>
      <stop offset="0.535" stop-color="gray" stop-opacity="0.122"/>
      <stop offset="1" stop-color="gray" stop-opacity="0.102"/>
    </linearGradient>
  </defs>
  <path id="Path_345" data-name="Path 345" d="M236.383,636.436c0,4.715-2.8,6.362-6.261,6.362-.081,0-.161,0-.24,0-.16,0-.319-.01-.476-.022-3.121-.221-5.546-1.952-5.546-6.337,0-4.538,5.8-10.264,6.235-10.689h0l.025-.025S236.383,631.72,236.383,636.436Z" transform="translate(-210.053 -510.154)" fill="#3f3d56"/>
  <path id="Path_346" data-name="Path 346" d="M240.457,642.077l2.29-3.2-2.3,3.551-.006.367c-.16,0-.319-.01-.476-.022l.247-4.718,0-.037,0-.007.023-.446-2.3-3.56,2.309,3.226.006.094.187-3.564-1.97-3.678,1.994,3.052.194-7.39v0l-.032,5.827,1.961-2.31-1.97,2.812-.052,3.191L242.4,632.2l-1.839,3.533-.029,1.774,2.659-4.263-2.669,4.883Z" transform="translate(-220.616 -510.155)" fill="#f2f2f2"/>
  <path id="Path_347" data-name="Path 347" d="M429.842,346.626c-1.673-6.072-10.961-10.548-18.209-11.7v-2.917q.2-.075.4-.154a6.446,6.446,0,0,0-.348-1.709,17.591,17.591,0,0,0,7.707-6.1,19.82,19.82,0,0,0-3.913-30.555,3.889,3.889,0,0,0-1.739-7.164,7.59,7.59,0,0,0-11.817-8.818,7.588,7.588,0,0,1,11.152,6.7c0,.067,0,.132-.006.2a7.589,7.589,0,1,0-14.712,2.839,3.795,3.795,0,0,0-2.512,5.559,19.821,19.821,0,0,0-4.833,31.524A17.594,17.594,0,0,0,398.161,330v4.862c-7.324,1.046-16.97,5.605-18.655,11.827-1.469,5.422-3.036,11.377-3.817,14.873,6.686,4.7,20.716,7.457,29.508,7.457,8.354,0,22.008-2.49,28.5-6.768C432.992,358.4,431.375,352.189,429.842,346.626Zm-13.394-56.09c0,.069,0,.138-.007.206a3.8,3.8,0,0,0-3.152-3.525q.11-.187.21-.38A3.8,3.8,0,0,1,416.449,290.536Z" transform="translate(-323.962 -247.61)" fill="url(#linear-gradient)"/>
  <path id="Path_348" data-name="Path 348" d="M407.665,543.426c8.116,0,21.381-2.419,27.686-6.575-.683-3.732-2.254-9.771-3.743-15.176-1.9-6.883-13.864-11.655-21-11.655h-6.88c-7.162,0-19.147,4.8-21.019,11.712-1.427,5.268-2.95,11.053-3.708,14.449C385.493,540.746,399.123,543.426,407.665,543.426Z" transform="translate(-326.444 -423.35)" fill="#6c63ff"/>
  <circle id="Ellipse_45" data-name="Ellipse 45" cx="19.254" cy="19.254" r="19.254" transform="translate(61.836 43.833)" fill="#f55f44"/>
  <path id="Path_349" data-name="Path 349" d="M299.338,306.181h10.074a1.507,1.507,0,0,1,1.507,1.507v10.3a6.189,6.189,0,0,1-6.189,6.189h-.711a6.189,6.189,0,0,1-6.189-6.189v-10.3A1.507,1.507,0,0,1,299.338,306.181Z" transform="translate(-223.446 -229.711)" fill="#fda57d"/>
  <path id="Path_350" data-name="Path 350" d="M474.873,482.816A16.979,16.979,0,0,0,481.2,481.6a6.271,6.271,0,0,0-6.255-5.865h-.536a6.274,6.274,0,0,0-6.247,5.708,16.975,16.975,0,0,0,6.711,1.377Z" transform="translate(-393.339 -397.625)" opacity="0.05"/>
  <circle id="Ellipse_46" data-name="Ellipse 46" cx="17.034" cy="17.034" r="17.034" transform="translate(64.091 49.487)" fill="#fda57d"/>
  <circle id="Ellipse_47" data-name="Ellipse 47" cx="3.687" cy="3.687" r="3.687" transform="translate(71.669 40.555)" fill="#f55f44"/>
  <circle id="Ellipse_48" data-name="Ellipse 48" cx="3.687" cy="3.687" r="3.687" transform="translate(84.778 40.555)" fill="#f55f44"/>
  <circle id="Ellipse_49" data-name="Ellipse 49" cx="7.374" cy="7.374" r="7.374" transform="translate(74.126 30.724)" fill="#f55f44"/>
  <path id="Path_351" data-name="Path 351" d="M519.882,322.1a3.67,3.67,0,0,0-2.058.627,3.685,3.685,0,0,1,3.3,6.529,3.685,3.685,0,0,0-1.238-7.156Z" transform="translate(-430.598 -282.364)" fill="#f55f44"/>
  <path id="Path_352" data-name="Path 352" d="M485.732,281.094a7.343,7.343,0,0,0-4.69,1.683,7.373,7.373,0,0,1,8.15,12.2,7.373,7.373,0,0,0-3.461-13.884Z" transform="translate(-403.002 -251.599)" fill="#f55f44"/>
  <path id="Path_353" data-name="Path 353" d="M444.05,353.26s2.048,13.519,27.857,6.145l-12.7-11.061Z" transform="translate(-375.249 -302.053)" fill="#f55f44"/>
  <rect id="Rectangle_40" data-name="Rectangle 40" width="17.746" height="7.552" rx="3.776" transform="translate(11.296 128.627)" fill="#6c63ff"/>
  <g id="Group_11" data-name="Group 11" transform="translate(135.032 121.082)" opacity="0.7">
    <path id="Path_354" data-name="Path 354" d="M722.841,650.523V647.8H709.236v12.585a2.653,2.653,0,0,0,2.653,2.653h8.3a2.653,2.653,0,0,0,2.653-2.653V657.6a3.537,3.537,0,0,0,0-7.075Zm0,5.714v-4.354a2.177,2.177,0,1,1,0,4.354Z" transform="translate(-709.236 -647.802)" fill="url(#linear-gradient)"/>
  </g>
  <path id="Path_355" data-name="Path 355" d="M752.257,660.4a3.23,3.23,0,1,0,3.23,3.23A3.23,3.23,0,0,0,752.257,660.4Zm0,5.217a1.988,1.988,0,1,1,1.988-1.988A1.987,1.987,0,0,1,752.257,665.62Z" transform="translate(-604.057 -536.174)" fill="#6c63ff"/>
  <path id="Path_356" data-name="Path 356" d="M752.257,660.4a3.23,3.23,0,1,0,3.23,3.23A3.23,3.23,0,0,0,752.257,660.4Zm0,5.217a1.988,1.988,0,1,1,1.988-1.988A1.987,1.987,0,0,1,752.257,665.62Z" transform="translate(-604.057 -536.174)" opacity="0.1"/>
  <path id="Path_357" data-name="Path 357" d="M543.642,487.455h12.422v11.478a2.435,2.435,0,0,1-2.435,2.435h-7.552a2.435,2.435,0,0,1-2.435-2.435Z" transform="translate(-407.864 -365.71)" fill="#6c63ff"/>
  <rect id="Rectangle_41" data-name="Rectangle 41" width="161.244" height="5.466" transform="translate(0 135.658)" fill="#e0e0e0"/>
  <g id="Group_12" data-name="Group 12" transform="translate(46.336 96.171)" opacity="0.7">
    <rect id="Rectangle_42" data-name="Rectangle 42" width="68.572" height="39.487" rx="14.5" fill="url(#linear-gradient)"/>
  </g>
  <rect id="Rectangle_43" data-name="Rectangle 43" width="66.088" height="38.758" rx="19.379" transform="translate(47.578 96.9)" fill="#535461"/>
  <circle id="Ellipse_50" data-name="Ellipse 50" cx="2.236" cy="2.236" r="2.236" transform="translate(78.386 114.043)" fill="#fff"/>
  <rect id="Rectangle_44" data-name="Rectangle 44" width="147.579" height="2.236" transform="translate(6.832 141.124)" fill="#e0e0e0"/>
  <rect id="Rectangle_45" data-name="Rectangle 45" width="147.579" height="0.745" transform="translate(6.832 141.124)" opacity="0.1"/>
  <path id="Path_358" data-name="Path 358" d="M745.729,650.455v11.491a2.422,2.422,0,0,1-2.422,2.422h1.242a2.422,2.422,0,0,0,2.422-2.422V650.455Z" transform="translate(-599.765 -528.71)" opacity="0.1"/>
  <path id="Path_359" data-name="Path 359" d="M720.247,612.418a.725.725,0,0,0-.549.279c-.163.3.132.628.4.831a5.345,5.345,0,0,1,1.361,1.267,1.588,1.588,0,0,1,.075,1.755c-.483.655-1.635.8-1.747,1.6-.072.518.376.959.829,1.219,1.119.641,2.562.812,3.372,1.815a2.614,2.614,0,0,1,1.833-1.258c.747-.17,1.524-.157,2.282-.273a.789.789,0,0,0,.63-.334c.212-.43-.392-.946-.184-1.377.159-.328.625-.3.965-.435a1.257,1.257,0,0,0,.625-1.5,2.825,2.825,0,0,0-1.069-1.388,11.969,11.969,0,0,0-4.3-1.989,11.035,11.035,0,0,0-2.287-.529A11.433,11.433,0,0,0,720.247,612.418Z" transform="translate(-582.018 -499.935)" fill="#eee"/>
  <rect id="Rectangle_46" data-name="Rectangle 46" width="108.513" height="74.344" transform="translate(106.987)" fill="#535461" opacity="0.1"/>
  <g id="Group_13" data-name="Group 13" transform="translate(116.881 7.322)" opacity="0.5">
    <rect id="Rectangle_47" data-name="Rectangle 47" width="25.544" height="23.567" rx="4.5" fill="url(#linear-gradient)"/>
  </g>
  <rect id="Rectangle_48" data-name="Rectangle 48" width="24.955" height="22.996" rx="4.5" transform="translate(117.193 7.505)" fill="#f5f5f5"/>
  <rect id="Rectangle_49" data-name="Rectangle 49" width="4.208" height="3.788" rx="1.894" transform="translate(119.116 11.292)" fill="#6c63ff"/>
  <rect id="Rectangle_50" data-name="Rectangle 50" width="16.73" height="0.421" rx="0.21" transform="translate(124.588 11.292)" fill="#e0e0e0"/>
  <rect id="Rectangle_51" data-name="Rectangle 51" width="16.73" height="0.421" rx="0.21" transform="translate(124.588 12.555)" fill="#e0e0e0"/>
  <rect id="Rectangle_52" data-name="Rectangle 52" width="22.622" height="0.421" rx="0.21" transform="translate(118.696 17.137)" fill="#e0e0e0"/>
  <rect id="Rectangle_53" data-name="Rectangle 53" width="22.622" height="0.421" rx="0.21" transform="translate(118.696 18.4)" fill="#e0e0e0"/>
  <rect id="Rectangle_54" data-name="Rectangle 54" width="22.622" height="0.421" rx="0.21" transform="translate(118.696 20.083)" fill="#e0e0e0"/>
  <rect id="Rectangle_55" data-name="Rectangle 55" width="13.046" height="0.421" rx="0.21" transform="translate(118.696 21.346)" fill="#e0e0e0"/>
  <rect id="Rectangle_56" data-name="Rectangle 56" width="22.622" height="0.421" rx="0.21" transform="translate(118.696 23.025)" fill="#e0e0e0"/>
  <rect id="Rectangle_57" data-name="Rectangle 57" width="22.622" height="0.421" rx="0.21" transform="translate(118.696 24.288)" fill="#e0e0e0"/>
  <rect id="Rectangle_58" data-name="Rectangle 58" width="22.622" height="0.421" rx="0.21" transform="translate(118.696 25.971)" fill="#e0e0e0"/>
  <rect id="Rectangle_59" data-name="Rectangle 59" width="13.046" height="0.421" rx="0.21" transform="translate(118.696 27.234)" fill="#e0e0e0"/>
  <g id="Group_14" data-name="Group 14" transform="translate(120.737 12.768)" opacity="0.5">
    <rect id="Rectangle_60" data-name="Rectangle 60" width="25.544" height="23.567" rx="4.5" fill="url(#linear-gradient)"/>
  </g>
  <rect id="Rectangle_61" data-name="Rectangle 61" width="24.955" height="22.996" rx="4.5" transform="translate(121.048 12.951)" fill="#fff"/>
  <rect id="Rectangle_62" data-name="Rectangle 62" width="4.208" height="3.788" rx="1.894" transform="translate(122.971 16.738)" fill="#6c63ff"/>
  <rect id="Rectangle_63" data-name="Rectangle 63" width="16.73" height="0.421" rx="0.21" transform="translate(128.442 16.738)" fill="#e0e0e0"/>
  <rect id="Rectangle_64" data-name="Rectangle 64" width="16.73" height="0.421" rx="0.21" transform="translate(128.442 18.001)" fill="#e0e0e0"/>
  <rect id="Rectangle_65" data-name="Rectangle 65" width="22.622" height="0.421" rx="0.21" transform="translate(122.551 22.583)" fill="#e0e0e0"/>
  <rect id="Rectangle_66" data-name="Rectangle 66" width="22.622" height="0.421" rx="0.21" transform="translate(122.551 23.846)" fill="#e0e0e0"/>
  <rect id="Rectangle_67" data-name="Rectangle 67" width="22.622" height="0.421" rx="0.21" transform="translate(122.551 25.529)" fill="#e0e0e0"/>
  <rect id="Rectangle_68" data-name="Rectangle 68" width="13.046" height="0.421" rx="0.21" transform="translate(122.551 26.792)" fill="#e0e0e0"/>
  <rect id="Rectangle_69" data-name="Rectangle 69" width="22.622" height="0.421" rx="0.21" transform="translate(122.551 28.471)" fill="#e0e0e0"/>
  <rect id="Rectangle_70" data-name="Rectangle 70" width="22.622" height="0.421" rx="0.21" transform="translate(122.551 29.734)" fill="#e0e0e0"/>
  <rect id="Rectangle_71" data-name="Rectangle 71" width="22.622" height="0.421" rx="0.21" transform="translate(122.551 31.417)" fill="#e0e0e0"/>
  <rect id="Rectangle_72" data-name="Rectangle 72" width="13.046" height="0.421" rx="0.21" transform="translate(122.551 32.68)" fill="#e0e0e0"/>
  <rect id="Rectangle_73" data-name="Rectangle 73" width="14.069" height="13.517" transform="translate(156.838 16.333)" fill="url(#linear-gradient)"/>
  <rect id="Rectangle_74" data-name="Rectangle 74" width="13.627" height="12.91" transform="translate(157.058 16.664)" fill="#f5f5f5"/>
  <g id="Group_15" data-name="Group 15" transform="translate(161.527 24.333)" opacity="0.6">
    <rect id="Rectangle_75" data-name="Rectangle 75" width="4.91" height="0.662" fill="#6c63ff"/>
  </g>
  <rect id="Rectangle_76" data-name="Rectangle 76" width="8.386" height="0.662" transform="translate(159.679 25.547)" fill="#bdbdbd"/>
  <g id="Group_16" data-name="Group 16" transform="translate(177.35 4.506)" opacity="0.5">
    <rect id="Rectangle_77" data-name="Rectangle 77" width="30.679" height="36.046" fill="url(#linear-gradient)"/>
  </g>
  <rect id="Rectangle_78" data-name="Rectangle 78" width="29.083" height="34.668" transform="translate(178.293 5.086)" fill="#fff"/>
  <rect id="Rectangle_79" data-name="Rectangle 79" width="20.452" height="0.87" transform="translate(182.645 20.296)" fill="#e0e0e0"/>
  <rect id="Rectangle_80" data-name="Rectangle 80" width="20.452" height="0.87" transform="translate(182.645 26.026)" fill="#e0e0e0"/>
  <rect id="Rectangle_81" data-name="Rectangle 81" width="20.452" height="0.87" transform="translate(182.645 27.549)" fill="#e0e0e0"/>
  <rect id="Rectangle_82" data-name="Rectangle 82" width="8.631" height="0.87" transform="translate(182.645 24.503)" fill="#e0e0e0"/>
  <rect id="Rectangle_83" data-name="Rectangle 83" width="6.455" height="0.87" transform="translate(196.642 24.503)" fill="#3ad29f" opacity="0.6"/>
  <rect id="Rectangle_84" data-name="Rectangle 84" width="6.455" height="0.87" transform="translate(189.825 31.103)" fill="#6c63ff"/>
  <g id="Group_17" data-name="Group 17" transform="translate(159.45 50.689)" opacity="0.5">
    <rect id="Rectangle_85" data-name="Rectangle 85" width="18.229" height="14.972" fill="url(#linear-gradient)"/>
  </g>
  <rect id="Rectangle_86" data-name="Rectangle 86" width="17.769" height="14.441" transform="translate(159.663 50.972)" fill="#f2f2f2"/>
  <rect id="Rectangle_87" data-name="Rectangle 87" width="17.769" height="3.221" transform="translate(159.663 50.972)" fill="#6c63ff"/>
  <rect id="Rectangle_88" data-name="Rectangle 88" width="17.769" height="3.221" transform="translate(159.663 50.972)" opacity="0.1"/>
  <rect id="Rectangle_89" data-name="Rectangle 89" width="14.937" height="1.876" transform="translate(161.079 55.362)" fill="#e0e0e0"/>
  <rect id="Rectangle_90" data-name="Rectangle 90" width="10.902" height="0.637" transform="translate(161.079 58.653)" fill="#e0e0e0"/>
  <rect id="Rectangle_91" data-name="Rectangle 91" width="7.079" height="0.637" transform="translate(161.079 59.75)" fill="#e0e0e0"/>
  <rect id="Rectangle_92" data-name="Rectangle 92" width="9.344" height="0.637" transform="translate(161.079 60.848)" fill="#e0e0e0"/>
  <rect id="Rectangle_93" data-name="Rectangle 93" width="10.902" height="0.637" transform="translate(161.079 61.945)" fill="#e0e0e0"/>
  <rect id="Rectangle_94" data-name="Rectangle 94" width="3.646" height="0.637" transform="translate(161.079 63.042)" fill="#e0e0e0"/>
  <g id="Group_18" data-name="Group 18" transform="translate(148.037 45.198)" opacity="0.5">
    <rect id="Rectangle_95" data-name="Rectangle 95" width="22.594" height="18.558" fill="url(#linear-gradient)"/>
  </g>
  <rect id="Rectangle_96" data-name="Rectangle 96" width="22.024" height="17.9" transform="translate(148.3 45.549)" fill="#fff"/>
  <rect id="Rectangle_97" data-name="Rectangle 97" width="22.024" height="3.992" transform="translate(148.3 45.549)" fill="#6c63ff"/>
  <rect id="Rectangle_98" data-name="Rectangle 98" width="18.514" height="2.325" transform="translate(150.055 50.989)" fill="#f5f5f5"/>
  <rect id="Rectangle_99" data-name="Rectangle 99" width="13.512" height="0.79" transform="translate(150.055 55.069)" fill="#e0e0e0"/>
  <rect id="Rectangle_100" data-name="Rectangle 100" width="8.774" height="0.79" transform="translate(150.055 56.429)" fill="#e0e0e0"/>
  <rect id="Rectangle_101" data-name="Rectangle 101" width="11.582" height="0.79" transform="translate(150.055 57.789)" fill="#e0e0e0"/>
  <rect id="Rectangle_102" data-name="Rectangle 102" width="13.512" height="0.79" transform="translate(150.055 59.149)" fill="#e0e0e0"/>
  <rect id="Rectangle_103" data-name="Rectangle 103" width="4.519" height="0.79" transform="translate(150.055 60.509)" fill="#e0e0e0"/>
  <rect id="Rectangle_104" data-name="Rectangle 104" width="5.265" height="0.702" transform="translate(151.02 51.779)" fill="#69f0ae"/>
  <circle id="Ellipse_51" data-name="Ellipse 51" cx="3.051" cy="3.051" r="3.051" transform="translate(114.178 88.378)" fill="#535461" opacity="0.1"/>
  <circle id="Ellipse_52" data-name="Ellipse 52" cx="3.051" cy="3.051" r="3.051" transform="translate(119.843 78.573)" fill="#535461" opacity="0.1"/>
</svg>
