<svg xmlns="http://www.w3.org/2000/svg" xmlns:xlink="http://www.w3.org/1999/xlink" width="801" height="605.282" viewBox="0 0 801 605.282">
  <defs>
    <linearGradient id="linear-gradient" x1="0.5" y1="1" x2="0.5" gradientUnits="objectBoundingBox">
      <stop offset="0" stop-color="gray" stop-opacity="0.251"/>
      <stop offset="0.54" stop-color="gray" stop-opacity="0.122"/>
      <stop offset="1" stop-color="gray" stop-opacity="0.102"/>
    </linearGradient>
    <linearGradient id="linear-gradient-2" x1="0.5" x2="0.5" y2="0" xlink:href="#linear-gradient"/>
    <linearGradient id="linear-gradient-3" x1="0.5" x2="0.5" y2="0" xlink:href="#linear-gradient"/>
    <linearGradient id="linear-gradient-4" x1="1.096" x2="1.096" y2="0" xlink:href="#linear-gradient"/>
    <linearGradient id="linear-gradient-5" x1="0.5" x2="0.5" y2="0" xlink:href="#linear-gradient"/>
  </defs>
  <g id="undraw_team_spirit_hrr4" transform="translate(0.013 -0.004)">
    <path id="Path_623" data-name="Path 623" d="M43.44,426.65c12.673,49.39,39.5,92.084,81.91,112.776,88.162,43.011,286.868,20.826,435.191-4.633,76.742-13.173,144.149-49.5,193.144-100.68Z" transform="translate(-34.798 -140.443)" fill="#6c63ff" opacity="0.1"/>
    <path id="Path_624" data-name="Path 624" d="M829.872,73.875H748.491c-3.872,0-7.041-2.887-7.041-6.414s3.161-6.414,7.041-6.414h14.081c-3.872,0-7.041-2.887-7.041-6.414s3.161-6.407,7.041-6.407H752.525c-3.872,0-7.041-2.887-7.041-6.414s3.161-6.414,7.041-6.414H795a120.34,120.34,0,0,0-33.133-8.322c-115.824-13.567-157.181-4.6-171.79,4.633A170.459,170.459,0,0,1,530.55,55.5c-71.462,13.44-205.106,29.613-326.239-5.182C144.107,33.032,99.365,62.286,72.54,111.084H844c-1.007-14.194-4.02-27.3-9.554-38.772A7.379,7.379,0,0,1,829.872,73.875Z" transform="translate(-43.41 -20.14)" fill="#6c63ff" opacity="0.1"/>
    <path id="Path_625" data-name="Path 625" d="M32.9,280.23A298.478,298.478,0,0,0,36.056,366.4l714.533,23.825a304.963,304.963,0,0,0,49.643-69ZM315.482,341.7H301.4c3.865,0,7.041,2.887,7.041,6.414s-3.168,6.407-7.041,6.407H220.055c-3.865,0-7.041-2.88-7.041-6.407s3.168-6.414,7.041-6.414h14.081c-3.865,0-7.041-2.887-7.041-6.414s3.168-6.414,7.041-6.414H224.075c-3.865,0-7.041-2.88-7.041-6.407s3.168-6.414,7.041-6.414h81.382c3.872,0,7.041,2.887,7.041,6.414s-3.161,6.407-7.041,6.407h10.026c3.872,0,7.041,2.887,7.041,6.414S319.376,341.7,315.482,341.7Z" transform="translate(-31.16 -97.111)" fill="#6c63ff" opacity="0.1"/>
    <path id="Path_626" data-name="Path 626" d="M832.567,149.94l-780.095,17.3c-9.5,22.241-15.792,47.383-18.693,73.447H818.895a280.91,280.91,0,0,0,11.335-46.813A202.788,202.788,0,0,0,832.567,149.94Zm-640.4,56.684H178.09c3.865,0,7.041,2.887,7.041,6.414s-3.168,6.414-7.041,6.414H96.716c-3.865,0-7.041-2.887-7.041-6.414s3.168-6.414,7.041-6.414H110.8c-3.865,0-7.041-2.88-7.041-6.407s3.168-6.414,7.041-6.414H100.736c-3.865,0-7.041-2.887-7.041-6.414s3.168-6.414,7.041-6.414h81.382c3.872,0,7.041,2.887,7.041,6.414S186,193.8,182.118,193.8h10.054c3.865,0,7.041,2.887,7.041,6.414S196.037,206.624,192.172,206.624Z" transform="translate(-31.939 -58.552)" fill="#6c63ff" opacity="0.1"/>
    <ellipse id="Ellipse_119" data-name="Ellipse 119" cx="52.966" cy="11.892" rx="52.966" ry="11.892" transform="translate(414.763 516.11)" fill="#6c63ff" opacity="0.1"/>
    <ellipse id="Ellipse_120" data-name="Ellipse 120" cx="95.555" cy="7.843" rx="95.555" ry="7.843" transform="translate(495.251 557.924)" fill="#6c63ff" opacity="0.1"/>
    <ellipse id="Ellipse_121" data-name="Ellipse 121" cx="95.555" cy="11.892" rx="95.555" ry="11.892" transform="translate(111.589 541.984)" fill="#6c63ff" opacity="0.1"/>
    <ellipse id="Ellipse_122" data-name="Ellipse 122" cx="71.898" cy="11.892" rx="71.898" ry="11.892" transform="translate(280.936 482.456)" fill="#6c63ff" opacity="0.1"/>
    <ellipse id="Ellipse_123" data-name="Ellipse 123" cx="57.557" cy="11.892" rx="57.557" ry="11.892" transform="translate(315.35 581.503)" fill="#6c63ff" opacity="0.1"/>
    <path id="Path_627" data-name="Path 627" d="M550.3,266.858c-1.521-10.237-10.821-34.126-10.821-34.126h0q-.243-1.056-.549-2.112c-6.6-22.671-15.729-24.642-15.729-24.642l-32.71-7.041a2.536,2.536,0,0,1,.7.655,4.538,4.538,0,0,0-.514.077,12.813,12.813,0,0,1-2.865-6.2c-.063-.338-.12-.7-.162-1.049a23.009,23.009,0,0,0-1.873-34.59c-.345-.268-.7-.528-1.049-.774,1.542-1.64,1.591-3.922.436-6.2-2.577-5.351-8.181-8.737-13.94-10.392a23.633,23.633,0,0,0-13.532-.289,48.884,48.884,0,0,0-7.083,3.288c-4.344,2.168-9.153,3.886-12.4,7.456a3.638,3.638,0,0,0-1.239,2.992,8.073,8.073,0,0,0,1.232,2.176,6.565,6.565,0,0,1,.063,5.449,52.816,52.816,0,0,0-2.021,5.238c-.444,1.816-.275,3.957,1.091,5.259a23.178,23.178,0,0,0,2.042,1.408,10.708,10.708,0,0,1,1.95,2.19q1.943,2.605,3.872,5.231a53.891,53.891,0,0,1,4.851,7.371,35.925,35.925,0,0,0,3,5.632,8.347,8.347,0,0,0,1.288,1.352l-.38-.148a5.865,5.865,0,0,0,4.3,1.753h.2a1.183,1.183,0,0,0,.789-.324v.7c.078,2.513.063,5.189-.113,7.7l-.3-.155a2.64,2.64,0,0,0-2.816.3l-30.112,24.163s-6.548,8.956-5.633,24.417l-5.28,23.185s-6.6,19.671-1.521,33.717,8.019,22.079,8.019,22.079,2.028,15.961,5.076,17.263,4.365,2.007,4.365,2.007l.605,3.816h0s.2.373.563,1c2.218,3.858,10.434,17.475,15.208,16.017a61.039,61.039,0,0,1,.774,11.187l4.724,31.718s3.295,8.625,3.091,13.145,3.844,10.962,3.844,10.962a20.946,20.946,0,0,0-2.028,14.75c1.929,8.449,4.365,47.369,4.365,47.369l3.52,9.434-.1,11.061a10.561,10.561,0,0,1-2.182,4.928c-2.281,2.478-2.112,5.344-7.611,8.73s-8.984,4.668-8.984,9.153a11.773,11.773,0,0,1-.169,1.866c-.507,3.295-1.493,5.083,8.618,6.041a26.656,26.656,0,0,0,19.8-6.618s1.746-3.168,9.969-4.45c0,0,2.816-.148,2.964-2.633.056-.859.042-2.5,0-4.309-.134-3.443-.465-7.463-.9-7.66-.549-.246-1.507-3.71-1.838-4.964h2.288s2.112-15.961,0-26.3-.2-17.665-.2-17.665l-.408-27.3s-2.816-3.013-.605-8.336,0-31.612,0-31.612.817-9.434,3.147-11.645.113-13.821,0-14.426l4.154,13.933s1.823,27.7,5.689,32.71l1.112,12.546s7.914,11.547,6.393,17.763,1.626,28.7,1.626,28.7v22.987s-3.556,9.23,1.408,12.546l2.112-.084c-.7.655-1.246,1.64-2.07,2.492-.951.979-1.493,4.7-1.8,7.906-.253,2.711-.338,5.041-.338,5.041a8.3,8.3,0,0,0,6.09,3.612c3.978.232,17.087,10.2,17.087,10.2s12.948,0,16.3-.7l.2-.049a4.4,4.4,0,0,0,2.528-2.063,5.28,5.28,0,0,0,.605-3.795c-.415-1.978-1.985-4.147-5.463-5.992-8.653-4.562-9.941-8.836-9.941-8.836l-5.682-8.526h.81s-.5-9.033,5.682-19.171l-.4-44.658s2.535-15.355-1.823-23.692c0,0-.359-8.829,2.556-11.539s-3.879-30.105-3.879-30.105-1.408-14.708-3.063-28.127h0c6.85,6.5,13.954-16.9,15.151-21.058h.176l-.078-.3c.049-.2.078-.3.078-.3h0s-1.521-5.407-.408-4.309,3.858-3.013,3.858-3.013-.408-22.382,4.365-33.661S550.3,266.858,550.3,266.858ZM529.882,281.1l.035-.063c.7,13.666-.134,42.828-.134,42.828s-.943,3.739-1.95,8.139l-.7-27.7h0l-.7-26.1Zm-87.38-9.42s3.45,43.152,0,49.375a32.6,32.6,0,0,0-2.485,8.526c-1.141-2.992-3.555-10.019-2.689-13.743,1.119-4.816-2.232-17.468-2.232-17.763s-.3-7.041,2.112-12.194.831-7.386.831-7.386S440.065,270.048,442.5,271.681Z" transform="translate(-143.739 -55.408)" fill="url(#linear-gradient)"/>
    <path id="Path_628" data-name="Path 628" d="M459.785,456.346c-3.006,13.215-14.961-6.766-17.686-11.561-.352-.627-.549-.993-.549-.993l1.3-6.076,6.85-2.816a19.141,19.141,0,0,1,3.07,2C456.518,439.849,462.1,446.109,459.785,456.346Z" transform="translate(-152.616 -142.884)" fill="#d38884"/>
    <path id="Path_629" data-name="Path 629" d="M590.9,433.227a.923.923,0,0,1-.078.3,1.5,1.5,0,0,1-.092.317c-1.176,4.126-8.146,27.353-14.877,20.9-7.364-7.041-3.788-23.318-3.788-23.318h.049L587.6,429.84l3.07,3.154h0Z" transform="translate(-190.984 -141.387)" fill="#d38884"/>
    <path id="Path_630" data-name="Path 630" d="M546.625,548.282l.394,44.356c-6.076,10.068-5.576,19.01-5.576,19.01l-20.023.788c-4.886-3.288-1.408-12.448-1.408-12.448v-22.84s-3.091-22.311-1.6-28.493-6.273-17.6-6.273-17.6l-1.1-12.455c-3.788-4.978-5.583-32.471-5.583-32.471L501.4,472.244c.113.6,2.225,12.187,0,14.32s-3.091,11.554-3.091,11.554,2.19,26.106,0,31.38.591,8.273.591,8.273l.4,27.1s-1.894,7.273.2,17.531,0,26.106,0,26.106H478.015l.1-11.061-3.478-9.364s-2.394-38.653-4.288-47.024a21.009,21.009,0,0,1,1.985-14.644s-3.978-6.372-3.781-10.857-3.07-13.039-3.07-13.039L460.85,471.04a61.155,61.155,0,0,0-2.3-17.932c-2.69-8.97-6.674-20.727-6.674-20.727l4.5.4,22.7,2.021s55.191-3.71,57.662-.627a10.358,10.358,0,0,1,1.042,3.218c2.478,11.131,5.752,46,5.752,46s6.674,27.2,3.809,29.887-2.513,11.448-2.513,11.448C549.124,533,546.625,548.282,546.625,548.282Z" transform="translate(-155.673 -142.139)" fill="#444053"/>
    <path id="Path_631" data-name="Path 631" d="M503,697.561c-.155,2.471-2.908,2.619-2.908,2.619-8.068,1.267-9.786,4.407-9.786,4.407a25.915,25.915,0,0,1-19.425,6.576c-9.927-.958-8.963-2.725-8.449-6a12.4,12.4,0,0,0,.162-1.845c0-4.485,3.436-5.759,8.815-9.153s5.231-6.2,7.47-8.667,2.471-7.245,2.471-7.245c2.535-4.414,8.963.7,8.963.7.3,1.563,9.857,1.345,9.857,1.345s1.267,5.083,1.922,5.379c.429.2.753,4.182.88,7.6C503.047,695.083,503.061,696.709,503,697.561Z" transform="translate(-158.711 -214.373)" fill="#b07473"/>
    <path id="Path_632" data-name="Path 632" d="M503,704.64c-.155,2.471-2.908,2.619-2.908,2.619-8.068,1.267-9.786,4.407-9.786,4.407a25.915,25.915,0,0,1-19.425,6.576c-9.927-.957-8.963-2.725-8.449-6,4.436,1.1,12.912,2.633,17.862-.056,6.879-3.731,11.814-6.337,11.814-6.337l10.871-5.47C503.047,702.161,503.061,703.788,503,704.64Z" transform="translate(-158.711 -221.451)" opacity="0.1"/>
    <path id="Path_633" data-name="Path 633" d="M589.157,712.059a4.3,4.3,0,0,1-2.478,2.049l-.19.049c-3.288.7-16,.7-16,.7s-12.849-9.934-16.735-10.16a8.173,8.173,0,0,1-5.977-3.591s.077-2.309.324-5c.3-3.182.831-6.879,1.767-7.85,1.718-1.8,2.112-4.224,5.977-2.69,0,0,5.52-9.73,12.025-2.211L574.6,693.57s1.267,4.224,9.793,8.808c3.408,1.831,4.928,3.985,5.358,5.949A5.246,5.246,0,0,1,589.157,712.059Z" transform="translate(-184.054 -215.571)" fill="#b07473"/>
    <path id="Path_634" data-name="Path 634" d="M589.157,718.617c-.76.641-1.6,1.331-2.478,2.049l-.19.049c-3.288.7-16,.7-16,.7s-12.849-9.934-16.735-10.16a8.173,8.173,0,0,1-5.977-3.591s.077-2.309.324-5c3.957,1.183,9.948,3.274,11.553,5.527,2.464,3.429,9.948,8.216,9.948,8.216s13.954-1.345,20.15-1.528A5.246,5.246,0,0,1,589.157,718.617Z" transform="translate(-184.054 -222.129)" opacity="0.1"/>
    <path id="Path_635" data-name="Path 635" d="M513.777,221.708,495.4,241.132s-22.269-1.64-18.383-8.216c1.978-3.351,2.288-10.364,2.112-16.461-.162-5.879-.767-10.885-.767-10.885s31.232-15.546,28.866-1.049a23.861,23.861,0,0,0-.084,8.273C508.476,220.116,513.777,221.708,513.777,221.708Z" transform="translate(-162.978 -72.876)" fill="#d38884"/>
    <path id="Path_636" data-name="Path 636" d="M507.958,204.522a23.861,23.861,0,0,0-.084,8.273,22.924,22.924,0,0,1-16.348,6.822c-4.224,0-8.794-3.471-12.208-5.478-.162-5.886-.2-8.568-.2-8.568S510.352,190.025,507.958,204.522Z" transform="translate(-163.735 -72.876)" opacity="0.1"/>
    <path id="Path_637" data-name="Path 637" d="M510.071,184.5a23.016,23.016,0,1,1-8.66-17.982A23.016,23.016,0,0,1,510.071,184.5Z" transform="translate(-159.271 -61.971)" fill="#d38884"/>
    <path id="Path_638" data-name="Path 638" d="M539.247,437.556c-5.731,13.638-42.6,13.919-42.6,13.919v-14.87l-2.232-.148c.965,4.259-1.352,14.644-1.352,14.644-29.134,4.112-36.238-12.49-36.238-12.49l1.014-5.682,22.7,2.021s55.191-3.71,57.662-.627A10.358,10.358,0,0,1,539.247,437.556Z" transform="translate(-157.138 -142.301)" opacity="0.1"/>
    <path id="Path_639" data-name="Path 639" d="M496.651,388.908v-14.87l-2.232-.141c.965,4.224-1.352,14.644-1.352,14.644-21.924,3.091-31.373-5.541-34.7-10a13.615,13.615,0,0,1-1.535-2.478l8.9-50.058,2.112-73.673,3.189-12.926.739-6.2v-.07h.077l2.267.972,13.567,5.865,15.412-11.638.225-.162.767-.584,1.274,1.021,3.168,2.542,10.159,65.611s17.6,50.516,20.9,70.905c.134.817.239,1.577.324,2.288C542.084,388.563,496.651,388.908,496.651,388.908Z" transform="translate(-157.138 -81.529)" fill="#a7ce45"/>
    <circle id="Ellipse_124" data-name="Ellipse 124" cx="1.31" cy="1.31" r="1.31" transform="translate(330.882 158.576)" fill="#67647e"/>
    <circle id="Ellipse_125" data-name="Ellipse 125" cx="1.31" cy="1.31" r="1.31" transform="translate(331.487 170.531)" fill="#67647e"/>
    <circle id="Ellipse_126" data-name="Ellipse 126" cx="1.31" cy="1.31" r="1.31" transform="translate(332.797 189.885)" fill="#67647e"/>
    <circle id="Ellipse_127" data-name="Ellipse 127" cx="1.31" cy="1.31" r="1.31" transform="translate(334.958 210.732)" fill="#67647e"/>
    <circle id="Ellipse_128" data-name="Ellipse 128" cx="1.31" cy="1.31" r="1.31" transform="translate(336.268 230.305)" fill="#67647e"/>
    <circle id="Ellipse_129" data-name="Ellipse 129" cx="1.31" cy="1.31" r="1.31" transform="translate(337.577 251.152)" fill="#67647e"/>
    <circle id="Ellipse_130" data-name="Ellipse 130" cx="1.31" cy="1.31" r="1.31" transform="translate(337.056 271.774)" fill="#67647e"/>
    <path id="Path_640" data-name="Path 640" d="M472.64,335.525s-1.464,19.171-4.154,24.748-3.886,21.22-3.886,21.22l-6.245-.7a13.625,13.625,0,0,1-1.535-2.478l8.9-50.058,2.112-73.672,3.2-12.934.739-6.2.085-.035a2.521,2.521,0,0,1,2.225.035l.3.155q-.134.38-.253.781c-2.436,7.625-3.344,21.678-3.344,21.678s3.52,25.705,3.886,37.66S472.64,335.525,472.64,335.525Z" transform="translate(-157.135 -83.775)" opacity="0.1"/>
    <path id="Path_641" data-name="Path 641" d="M452.766,436.921a3.6,3.6,0,0,1-.239.465c-2.422,4.091-8.561,6.689-10.427,7.4-.352-.627-.549-.993-.549-.993l1.3-6.076,6.85-2.816A19.14,19.14,0,0,1,452.766,436.921Z" transform="translate(-152.616 -142.884)" opacity="0.1"/>
    <path id="Path_642" data-name="Path 642" d="M427.926,298.81l-5.682,3.387-5.175,23.016s-6.477,19.524-1.5,33.471,7.871,21.931,7.871,21.931,1.992,15.841,4.985,17.137,4.281,1.992,4.281,1.992l.6,3.788s8.111-2.753,10.976-7.6-2.112-16.9-2.112-16.9-4.281-10.265-3.182-15.046-2.2-17.334-2.2-17.6-.3-6.977,2.112-12.11.8-7.322.8-7.322l-1.5-14.644Z" transform="translate(-144.371 -102.609)" fill="#67647e"/>
    <path id="Path_643" data-name="Path 643" d="M559.011,372.685s-15.046,5.675-19.826.7-4.288-28.3-4.288-28.3-4.576-43.039-7.47-50.108-1.408-58.085-1.408-58.085-1.943-6.6-3.64-8.322a1.846,1.846,0,0,0-.359-.289l.584.127,2.042.436,3.168,2.542,10.16,65.611s17.6,50.516,20.9,70.906Z" transform="translate(-176.431 -81.739)" opacity="0.1"/>
    <path id="Path_644" data-name="Path 644" d="M591.258,433.819h-.169c-1.894.246-18.608,2.267-18.679-1.211a10.2,10.2,0,0,1,.063-1.2l15.489-1.584,3.07,3.154h0c.056.2.1.38.141.521Z" transform="translate(-191.343 -141.381)" opacity="0.1"/>
    <path id="Path_645" data-name="Path 645" d="M575.219,266.07,586.2,271.8s9.153,23.7,10.617,33.858c0,0,6.78,27.219,2.112,38.413s-4.281,33.415-4.281,33.415-2.689,4.084-3.788,2.992.4,4.281.4,4.281-18.777,2.492-18.855-1.2,4.309-21.319,4.309-21.319,1.2-41.941-.5-48.517S575.219,266.07,575.219,266.07Z" transform="translate(-191.343 -92.92)" fill="#67647e"/>
    <path id="Path_646" data-name="Path 646" d="M526.081,329.52s-6.182,15.137-8.174,16.137.4,4.978.4,4.978S529.566,334.9,526.081,329.52Z" transform="translate(-174.979 -111.698)" opacity="0.1"/>
    <path id="Path_647" data-name="Path 647" d="M520.557,254.1c.07-.289-7.372,7.3-9.364,8.449S518.466,262.475,520.557,254.1Z" transform="translate(-173.144 -89.374)" opacity="0.1"/>
    <path id="Path_648" data-name="Path 648" d="M490.979,327.82s-11.356,7.343-9.857,10.251S490.979,327.82,490.979,327.82Z" transform="translate(-164.287 -111.195)" opacity="0.1"/>
    <path id="Path_649" data-name="Path 649" d="M524.47,480.07s9.667,6.217,24.705,7.745Z" transform="translate(-177.156 -156.252)" opacity="0.1"/>
    <path id="Path_650" data-name="Path 650" d="M491.5,501.3s8.963,11.265,13.053,11.554S491.5,501.3,491.5,501.3Z" transform="translate(-167.398 -162.535)" opacity="0.1"/>
    <path id="Path_651" data-name="Path 651" d="M504.784,564c-.4.2-5.083,10.159-9.857,10.462S504.784,564,504.784,564Z" transform="translate(-168.13 -181.091)" opacity="0.1"/>
    <path id="Path_652" data-name="Path 652" d="M568.33,594.876s8.885-1.992,10.864,4.379C579.194,599.234,578.6,597.242,568.33,594.876Z" transform="translate(-190.136 -190.141)" opacity="0.1"/>
    <path id="Path_653" data-name="Path 653" d="M559.84,646.433s10.765-2.2,13.053.8S559.84,646.433,559.84,646.433Z" transform="translate(-187.623 -205.256)" opacity="0.1"/>
    <path id="Path_654" data-name="Path 654" d="M512.146,654c0,.1-10.955,2.2-10.561,3.591s11.687,1.2,12.089-1A2.112,2.112,0,0,0,512.147,654Z" transform="translate(-170.38 -207.726)" opacity="0.1"/>
    <path id="Path_655" data-name="Path 655" d="M554.75,667.154s18-2.2,16.9,1.591S554.75,667.154,554.75,667.154Z" transform="translate(-186.117 -211.431)" opacity="0.1"/>
    <path id="Path_656" data-name="Path 656" d="M420.89,352.44c.1.3,11.856,1.894,13.448,5.682,0,0-11.554-5.386-13.377-5.386" transform="translate(-146.502 -118.481)" opacity="0.1"/>
    <path id="Path_657" data-name="Path 657" d="M440.553,396.16s-9.765,3.091-9.068,7.745S430.492,401.75,440.553,396.16Z" transform="translate(-149.627 -131.42)" opacity="0.1"/>
    <path id="Path_658" data-name="Path 658" d="M437.92,428.119s3.555-4.879,6.942-3.985S437.92,428.119,437.92,428.119Z" transform="translate(-151.542 -139.666)" opacity="0.1"/>
    <path id="Path_659" data-name="Path 659" d="M501.425,166.516a5.539,5.539,0,0,1-1.141.852c-2.816,1.64-3.591,4.168-4.928,7.083-1.246,2.668-2.619,5.492-5.133,7.005-3.246,1.957-7.519,1.239-10.892,2.943a8.449,8.449,0,0,0-4.506,8.329,24.028,24.028,0,0,0,.958,3.816,27.212,27.212,0,0,1,1.028,8.287,1.42,1.42,0,0,1,0,.246,23.009,23.009,0,1,1,24.642-38.561Z" transform="translate(-159.286 -61.969)" opacity="0.1"/>
    <path id="Path_660" data-name="Path 660" d="M496,153.975c-2.528-5.309-8.026-8.674-13.68-10.314a22.976,22.976,0,0,0-13.286-.282,48.73,48.73,0,0,0-6.949,3.26c-4.267,2.154-8.956,3.858-12.166,7.4a3.708,3.708,0,0,0-1.218,2.971,8.3,8.3,0,0,0,1.2,2.154,6.538,6.538,0,0,1,.063,5.414,49.668,49.668,0,0,0-1.985,5.2c-.437,1.809-.268,3.929,1.07,5.217a19.513,19.513,0,0,0,2.014,1.408,10.6,10.6,0,0,1,1.908,2.168l3.8,5.2a52.7,52.7,0,0,1,4.759,7.315,34.857,34.857,0,0,0,2.943,5.583c1.267,1.683,3.239,3.034,5.337,2.851a1.035,1.035,0,0,0,.845-.4,1.112,1.112,0,0,0,.106-.528,27.022,27.022,0,0,0-1.007-8.259,23.819,23.819,0,0,1-.957-3.816,8.484,8.484,0,0,1,4.506-8.329c3.379-1.7,7.653-.986,10.892-2.936,2.521-1.521,3.893-4.344,5.133-7.041,1.359-2.915,2.112-5.442,4.928-7.083S497.4,156.77,496,153.975Z" transform="translate(-154.455 -56.357)" fill="#585268"/>
    <path id="Path_661" data-name="Path 661" d="M501.63,693.06s3.52,4.485,2.605,7.041S501.63,693.06,501.63,693.06Z" transform="translate(-170.396 -219.285)" opacity="0.1"/>
    <path id="Path_662" data-name="Path 662" d="M569.28,706.416s.781-6.013,3.915-6.069,3.288-.324,5.682.6,4.64,2.352,3.922,2.563-4.119-3.436-7.611-1.57A25.146,25.146,0,0,0,569.28,706.416Z" transform="translate(-190.417 -221.418)" opacity="0.1"/>
    <path id="Path_663" data-name="Path 663" d="M482.851,249.851l9.857-6.907s-14.419-8.519-16.137-7.322-2.9,11.969-2.9,11.969Z" transform="translate(-162.122 -83.875)" opacity="0.1"/>
    <path id="Path_664" data-name="Path 664" d="M482.791,249.164l9.857-7.041s-14.419-8.519-16.137-7.322-2.9,12.56-2.9,12.56Z" transform="translate(-162.104 -83.632)" fill="#e1e7ef"/>
    <path id="Path_665" data-name="Path 665" d="M482.791,249.164l9.857-7.041s-14.419-8.519-16.137-7.322-2.9,12.56-2.9,12.56Z" transform="translate(-162.104 -83.632)" fill="#a6ce45"/>
    <path id="Path_666" data-name="Path 666" d="M463.971,234.751l-.3-.148a2.556,2.556,0,0,0-2.767.289l-29.57,23.987s-6.428,8.892-5.534,24.234l17.44,24.705s1.992-8.364,4.379-6.773c0,0,3.387,42.842,0,49.016s-4.879,29.289-4.879,29.289l11.455,1.3s1.2-15.644,3.886-21.22,4.154-24.748,4.154-24.748,2.422-27.852,2.021-39.807-3.886-37.66-3.886-37.66S461.352,242.143,463.971,234.751Z" transform="translate(-147.931 -83.525)" fill="#67647e"/>
    <path id="Path_667" data-name="Path 667" d="M516.726,243.353l-12.286-4.548s15.644-17.137,17.6-7.632Z" transform="translate(-171.228 -81.743)" opacity="0.1"/>
    <path id="Path_668" data-name="Path 668" d="M516.726,242.5l-12.286-4.548s15.644-17.137,17.6-7.632Z" transform="translate(-171.228 -81.491)" fill="#e1e7ef"/>
    <path id="Path_669" data-name="Path 669" d="M516.726,242.5l-12.286-4.548s15.644-17.137,17.6-7.632Z" transform="translate(-171.228 -81.491)" fill="#a6ce45"/>
    <path id="Path_670" data-name="Path 670" d="M521.32,228.116a.7.7,0,0,1,.507.113Z" transform="translate(-176.223 -81.685)" opacity="0.1"/>
    <path id="Path_671" data-name="Path 671" d="M523,226.425l32.6,7.041s8.97,1.992,15.447,24.508-8.871,50.1-8.871,50.1l-3.386-2.88,1.7,65.752s-15.046,5.675-19.826.7-4.281-28.317-4.281-28.317-4.583-43.032-7.477-50.108-1.408-58.078-1.408-58.078S524.831,226.03,523,226.425Z" transform="translate(-176.721 -81.184)" fill="#67647e"/>
    <path id="Path_672" data-name="Path 672" d="M565.18,285.816c-.458.422-.993,20.319,1,35.463a193.267,193.267,0,0,0,5.632,27.3l-2.957-60.669S566.574,284.52,565.18,285.816Z" transform="translate(-189.077 -98.677)" opacity="0.1"/>
    <path id="Path_673" data-name="Path 673" d="M559.7,261.6c.8.5,4.288,8.766,2.69,12.152S559.7,261.6,559.7,261.6Z" transform="translate(-187.582 -91.597)" opacity="0.1"/>
    <path id="Path_674" data-name="Path 674" d="M503.212,155.635a18,18,0,0,0-7.167-7.505,17.045,17.045,0,0,1,5.372,6.337c1.408,2.816.993,5.632-1.746,7.174s-3.591,4.168-4.928,7.083c-1.246,2.668-2.619,5.492-5.14,7.041-3.239,1.957-7.512,1.232-10.892,2.936a8.5,8.5,0,0,0-4.506,8.336,23.932,23.932,0,0,0,.965,3.809,27.233,27.233,0,0,1,1.028,8.287,1.112,1.112,0,0,1-.112.528,1.007,1.007,0,0,1-.838.4,4.851,4.851,0,0,1-2.457-.458,5.717,5.717,0,0,0,4.224,1.655.831.831,0,0,0,.943-.929,27.015,27.015,0,0,0-1.021-8.287,23.134,23.134,0,0,1-.965-3.816,8.484,8.484,0,0,1,4.506-8.329c3.38-1.7,7.653-.986,10.892-2.936,2.521-1.521,3.893-4.344,5.133-7.041,1.359-2.915,2.112-5.442,4.928-7.083S504.62,158.43,503.212,155.635Z" transform="translate(-161.861 -58.017)" opacity="0.1"/>
    <path id="Path_675" data-name="Path 675" d="M743.182,250.854c-9.7-.19-18.263-7.041-23.114-15.412a15.49,15.49,0,0,1-2.338-6.6,7.633,7.633,0,0,1,.268-1.577,16.351,16.351,0,0,0,.7-2.415,4.212,4.212,0,0,0,0-.986v-.056a5.825,5.825,0,0,0-2.112-4.738c-1.3-1.218-2.922-2.112-4.274-3.323-4.168-3.661-5.435-9.533-5.513-15.123v-.3c.049-2.394.239-4.795.218-7.188a30.23,30.23,0,0,0-.176-4.069c-.4-3.386-1.69-6.836-4.351-9-6.942-5.632-18.615.232-25.8-5.09-1.746-1.3-3.161-3.225-5.281-3.732a8.9,8.9,0,0,0-4.823.655c-5.295,1.746-11.2,4.041-13.271,9.153-1.183,2.936-.852,6.287-1.936,9.258-.7,1.992-2.049,3.7-3.027,5.59a8.753,8.753,0,0,0-1.126,4.668,5.267,5.267,0,0,0,.345,2.485,6.337,6.337,0,0,0,1.725,2.471,8.208,8.208,0,0,1-1.028,1.647c-1.352,1.655-3.429,2.816-4.837,4.464-2.605,3.02-2.506,7.125-1.225,10.674s3.6,6.78,5.2,10.237c.7,1.5,1.239,3.175.528,4.668a13.384,13.384,0,0,1-2.338,2.718,8.541,8.541,0,0,0-2.112,4.717c-15.848,3.619-15.862,16.355-15.862,16.355h0l-8.561,21.53s-1.373,3.626-2.985,8.413l-10.131-1.816,7.041,11.786c-1.331,4.8-2.274,9.251-1.964,11.49,0,0-3.147,14.785,2.45,17.369l12.349,5.555a7.315,7.315,0,0,0,1.711.767l.5.225a1.324,1.324,0,0,0,1.155,0h.169a1.663,1.663,0,0,0,.7-.106,1.408,1.408,0,0,0,.62-.669.216.216,0,0,1,0-.07l3.7-1.07,3.133,3.71c1.408.993,2.816,1.852,4.147,2.626L636.8,388.927S636.017,453,633.652,467.6a40.89,40.89,0,0,0-.549,11.6l-.092.155c.585,4.119,2.112,4.928,2.112,4.928v-.056a.458.458,0,0,0,.092.056,41.459,41.459,0,0,1,2.535-5.435V479.9c-.049,5.435-.218,13.046-.781,18-.958,8.449,2.45,36.294,2.45,36.294l1.176,25.346a23.432,23.432,0,0,1-2.887,12.349c-2.816,5.062-6.414,12.187-6.674,15.348a3.17,3.17,0,0,0,0,.514h0l-6.041,7.266s-2.359,3.647,2.971,5.118c2.865.8,7.808,0,11.779-.936a7.871,7.871,0,0,0,6.1-7.66,27.109,27.109,0,0,1,4.985-9.568l.993,5.837,6.646,1.648.852-16a7.041,7.041,0,0,0,.458-2.816h0c1.31-11.378-3.084-10.357-3.084-10.357a.613.613,0,0,1,.211.394l-.211-.387h0c-2.7-5.323-1.408-14.081-1.408-14.081s3.52-25.346,4.724-32.042c.866-4.731.507-20.22.218-28.866a10.318,10.318,0,0,0-.035-1.049c10.307-.134,22.938-.479,31.8-1.338v1.042l-1.633,59.88a32.872,32.872,0,0,1-2.3,11.138.607.607,0,0,1-.077.2,48.58,48.58,0,0,0-3.246,15.693l-.76,19.01v.528h0c-1.324.507-3.415,1.978-3.471,6.245-.092,6.252,10.927,4.168,10.927,4.168,11.011,0,11.1-11.462,11.1-11.462s.345-10.512.873-17.545-1.661-5.485-1.661-5.485l-.169,20.009V568.961l.169-2.542v-.07h0v-.542l1.387-20.636s10.145-34.386,11.715-40.983c1.12-4.689.655-18.812.289-26.62a6.2,6.2,0,0,0-.056-1.035c3.147-.282,5.928-.31,7.041-.31h.514s-.521-55.226-1.838-76.038-3.408-39.857-8.653-45.588c-3.168-3.464-7.583-14.159-10.561-22.079A110.453,110.453,0,0,0,721,338.854c16.609,3.478,14.334-10.941,14.334-10.941l-1.683-27.268h.113a139.042,139.042,0,0,0-1.83-21.319,62.728,62.728,0,0,0-4.281-15.489c1.8-.7,3.584-1.457,5.33-2.232,4.513-1.992,9.6-4.816,10.244-9.681h-.218A6.293,6.293,0,0,0,743.182,250.854ZM640.228,290.281h0c.035,2.816-.07,7.7-.239,13.1l-5.273-7.041L640,287.768ZM710.887,304.581Zm2.2,10.652-8.786-2.816a39.427,39.427,0,0,1,5.428-6.717l.76-.7-.275.056.422-.387.254-.056-.4.387.479-.1a14.989,14.989,0,0,0,2.992,6.02c3.154,3.443-.866,4.316-.866,4.316Z" transform="translate(-201.266 -64.82)" fill="url(#linear-gradient-2)"/>
    <path id="Path_676" data-name="Path 676" d="M647.383,715.66l-1.028,19.488-6.555-1.641-1.38-8.1Z" transform="translate(-188.94 -211.794)" fill="#a27772"/>
    <path id="Path_677" data-name="Path 677" d="M647.383,715.66l-1.028,19.488-6.555-1.641-1.38-8.1Z" transform="translate(-188.94 -211.794)" opacity="0.1"/>
    <path id="Path_678" data-name="Path 678" d="M716.48,714.886l10,2.07,7.414-6.548V691.955l.169-2.521v-.078h0v-.535l1.38-20.509s10-34.14,11.561-40.695c1.1-4.647.641-18.671.275-26.423-.148-3.175-.275-5.3-.275-5.3l-22.072-5.344-.465,16.968-1.612,59.451a32.944,32.944,0,0,1-2.26,11.061l-.077.2a48.386,48.386,0,0,0-3.2,15.574l-.746,18.9v.521Z" transform="translate(-233.98 -188.948)" fill="#cc818c"/>
    <path id="Path_679" data-name="Path 679" d="M741.45,730.144v.521h0v-.535Z" transform="translate(-241.37 -230.256)" opacity="0.1"/>
    <path id="Path_680" data-name="Path 680" d="M716.48,764.608l10,2.07,7.414-6.548v-1.57a2.112,2.112,0,0,1-1.063,1.69l-.106.063a19.925,19.925,0,0,1-11.223,2.218l-3.9-.331a3.654,3.654,0,0,0-1.035.253v.521Z" transform="translate(-233.98 -238.669)" opacity="0.1"/>
    <path id="Path_681" data-name="Path 681" d="M731.308,752.578l.106-.056a2.112,2.112,0,0,0,1.077-1.831l.162-19.861s2.154-1.542,1.633,5.442-.859,17.418-.859,17.418-.084,11.378-10.948,11.378c0,0-10.863,2.07-10.779-4.14s4.485-6.463,4.485-6.463l3.9.338A19.876,19.876,0,0,0,731.308,752.578Z" transform="translate(-232.565 -230.42)" fill="#b07473"/>
    <path id="Path_682" data-name="Path 682" d="M642.52,713.4c.254,4.485,13.448,1.894,13.448,1.894l8.878-17.235s7.414-5.7,3.7-10.695a7.965,7.965,0,0,1-.542-.852l-.035-.042h0c-.078-.127-.148-.26-.218-.4h0c-2.661-5.28-1.352-13.94-1.352-13.94s3.443-25.177,4.654-31.816c.852-4.689.5-20.073.218-28.676-.113-3.577-.218-5.977-.218-5.977l-21.9-5.865v6.534c-.049,5.4-.218,12.955-.774,17.869-.943,8.357,2.415,36.034,2.415,36.034l1.162,25.184a23.326,23.326,0,0,1-2.816,12.258c-2.746,5.027-6.336,12.11-6.583,15.243a3.074,3.074,0,0,0-.035.486Z" transform="translate(-212.092 -191.682)" fill="#cc818c"/>
    <path id="Path_683" data-name="Path 683" d="M642.517,749.848c.253,4.485,13.448,1.894,13.448,1.894l8.878-17.235s7.414-5.7,3.7-10.695a7.987,7.987,0,0,1-.542-.852c-.12,2.612-2.985,9.153-2.985,9.153s-7.329,14.665-9.66,18.024-12.455-.627-12.835-.767A3.074,3.074,0,0,0,642.517,749.848Z" transform="translate(-212.089 -228.134)" opacity="0.1"/>
    <path id="Path_684" data-name="Path 684" d="M665,722.29s4.337-1.007,3.042,10.286h0a7.273,7.273,0,0,1-3.429,6.456c-3.1,1.95-7.892,6.146-10.314,14.306h0a7.8,7.8,0,0,1-6.02,7.6c-3.915.915-8.794,1.718-11.617.929-5.259-1.464-2.929-5.083-2.929-5.083l6.034-7.16s10.519,4.14,12.842.774,9.66-18.017,9.66-18.017S666.289,723.241,665,722.29Z" transform="translate(-209.339 -227.929)" fill="#b07473"/>
    <path id="Path_685" data-name="Path 685" d="M728.285,593.52l-.465,16.968c5.879-.57,10.089-1.366,10.807-2.485,1.556-2.408,7.2-3.422,12-3.837-.148-3.175-.275-5.3-.275-5.3Z" transform="translate(-237.336 -189.827)" opacity="0.1"/>
    <path id="Path_686" data-name="Path 686" d="M651.94,609.254a8.055,8.055,0,0,1,2.415-2.915c2.323-1.288,2.07,8.28,2.07,8.28s7.745.07,17.637-.056c-.113-3.577-.218-5.985-.218-5.985l-21.9-5.858S651.982,605.438,651.94,609.254Z" transform="translate(-214.88 -192.55)" opacity="0.1"/>
    <path id="Path_687" data-name="Path 687" d="M647.431,548.026s2.591-7.041,4.928-8.294,2.07,8.273,2.07,8.273,56.9.521,59.746-3.879,19.4-4.14,19.4-4.14-.514-54.832-1.809-75.517S728.4,424.893,723.23,419.2c-3.344-3.682-8.1-15.595-11.047-23.537-1.6-4.337-2.661-7.5-2.661-7.5l-54.311,3.1-.444,4.4L649,453.344s-.774,63.626-3.1,78.108S647.431,548.026,647.431,548.026Z" transform="translate(-212.87 -129.055)" fill="#444053"/>
    <g id="Group_67" data-name="Group 67" transform="translate(432.343 259.115)" opacity="0.1">
      <path id="Path_688" data-name="Path 688" d="M714.992,544.125c2.816-4.393,19.4-4.14,19.4-4.14s-.514-54.832-1.809-75.517-3.358-39.575-8.533-45.264c-3.358-3.7-8.1-15.595-11.047-23.537-1.345-3.647-2.309-6.456-2.577-7.259l4.224-.239s1.063,3.161,2.668,7.5c2.943,7.942,7.7,19.854,11.04,23.537,5.175,5.689,7.245,24.572,8.533,45.264s1.816,75.517,1.816,75.517-16.552-.253-19.4,4.14c-2.429,3.753-44.3,3.929-56.451,3.893C678.445,547.984,712.8,547.519,714.992,544.125Z" transform="translate(-650.452 -388.17)"/>
      <path id="Path_689" data-name="Path 689" d="M647.965,603.389c1.049-.584,1.57,1.035,1.831,3a40.622,40.622,0,0,0-2.443,5.295s-1.5-.81-2.112-4.928A9.584,9.584,0,0,1,647.965,603.389Z" transform="translate(-645.24 -451.827)"/>
    </g>
    <path id="Path_690" data-name="Path 690" d="M667.677,196.47c-3.76,5.126.042,12.413-3.992,17.4-1.331,1.648-3.379,2.816-4.766,4.436-2.57,3-2.471,7.076-1.211,10.6s3.52,6.731,5.126,10.167c.7,1.486,1.225,3.154.521,4.633a13.12,13.12,0,0,1-2.309,2.7c-2.591,2.894-2.661,6.914-1.267,10.321s4.055,6.337,6.682,9.223c1.035,1.134,2.344,2.387,4.069,2.352a5.633,5.633,0,0,0,2.556-.838,26.05,26.05,0,0,0,11.856-34c-2.183-5.231-5.823-10.244-5.858-15.771,0-4.386,2.253-8.575,2.654-12.941.486-5.309-2.654-13.736-9.061-16.053C673.1,192.1,669.585,193.837,667.677,196.47Z" transform="translate(-216.332 -70.02)" fill="#585268"/>
    <path id="Path_691" data-name="Path 691" d="M667.677,196.47c-3.76,5.126.042,12.413-3.992,17.4-1.331,1.648-3.379,2.816-4.766,4.436-2.57,3-2.471,7.076-1.211,10.6s3.52,6.731,5.126,10.167c.7,1.486,1.225,3.154.521,4.633a13.12,13.12,0,0,1-2.309,2.7c-2.591,2.894-2.661,6.914-1.267,10.321s4.055,6.337,6.682,9.223c1.035,1.134,2.344,2.387,4.069,2.352a5.633,5.633,0,0,0,2.556-.838,26.05,26.05,0,0,0,11.856-34c-2.183-5.231-5.823-10.244-5.858-15.771,0-4.386,2.253-8.575,2.654-12.941.486-5.309-2.654-13.736-9.061-16.053C673.1,192.1,669.585,193.837,667.677,196.47Z" transform="translate(-216.332 -70.02)" opacity="0.1"/>
    <path id="Path_692" data-name="Path 692" d="M714.108,464.55c-7.526.394-14.609,3.633-21.2,7.294s-12.969,7.808-20.059,10.406" transform="translate(-221.068 -151.659)" opacity="0.1"/>
    <path id="Path_693" data-name="Path 693" d="M709.96,489.74a31.027,31.027,0,0,0-19.538,9.5c-1.831,1.936-3.408,4.1-5.316,5.963a23.615,23.615,0,0,1-10.476,5.935" transform="translate(-221.595 -159.114)" opacity="0.1"/>
    <path id="Path_694" data-name="Path 694" d="M709.092,508.91a34.161,34.161,0,0,0-15.715,9.477c-1.155,1.246-2.2,2.577-3.358,3.823-6.231,6.689-15.031,10.237-23.53,13.6" transform="translate(-219.186 -164.787)" opacity="0.1"/>
    <path id="Path_695" data-name="Path 695" d="M713.533,242.907a154.5,154.5,0,0,0,1.549,17.968c.7,4.224,1.69,8.026,3.1,9.709,4.14,4.928-20.171,11.511-20.171,11.511L683.66,270.971s11.378-10.476,6.076-20.692S713.533,242.907,713.533,242.907Z" transform="translate(-224.267 -85.958)" fill="#cc818c"/>
    <path id="Path_696" data-name="Path 696" d="M658.79,395.668h57.416c-1.6-4.337-2.661-7.5-2.661-7.5l-54.311,3.1Z" transform="translate(-216.907 -129.055)" opacity="0.1"/>
    <path id="Path_697" data-name="Path 697" d="M648.829,360.325h61.387c-1.725-6.175,0-11.884,2.457-16.278a35.975,35.975,0,0,1,6.428-8.336l.422-.387,21.431-4.745,1.155-.253s.176-38.97-13.624-44.32a80.678,80.678,0,0,1-22.072-12.581l-18.96,5.858-13.968-7.041c-4.485,4.823-16.383,2.929-16.383,2.929-19.481,2.239-19.481,16.9-19.481,16.9s11.378,26.55,12.244,26.55S648.829,360.325,648.829,360.325Z" transform="translate(-210.642 -94.746)" fill="#a6ce45"/>
    <path id="Path_698" data-name="Path 698" d="M676.588,358.955s-12.518-2.774-16.778-7.625" transform="translate(-217.209 -118.152)" opacity="0.1"/>
    <path id="Path_699" data-name="Path 699" d="M767.188,341.51l-14.518,11.9a24.74,24.74,0,0,0,.479,2.816l.422-.387L775,351.092Z" transform="translate(-244.69 -115.246)" opacity="0.1"/>
    <path id="Path_700" data-name="Path 700" d="M717.46,384.367s3.175,1.788,8.04,4.14h8.343c-1.725-6.175,0-11.884,2.457-16.278l-14.708-4.759C726.6,372.124,717.46,384.367,717.46,384.367Z" transform="translate(-234.27 -122.929)" opacity="0.1"/>
    <path id="Path_701" data-name="Path 701" d="M638.986,293.76l-8.618,4.654L621.92,319.8s-8.794,23.445-7.935,29.655c0,0-3.1,14.658,2.415,17.242l14.363,6.505a1.338,1.338,0,0,0,1.725-1.845c-2.049-3.879-4.3-9.948-.7-13.286l-4.14-8.618,14.961-24.487,5-8.449Z" transform="translate(-203.39 -101.115)" fill="#a6ce45"/>
    <path id="Path_702" data-name="Path 702" d="M677.043,352.713c.746,3.042,3.267,7.745,11.61,9.5l9.153,7.5,9.737,4.414,3.971,1.8L713.2,363.76l-3.823-2.112-4.457-2.436S694.862,341,678.944,348.651A3.52,3.52,0,0,0,677.043,352.713Z" transform="translate(-222.275 -116.804)" opacity="0.1"/>
    <path id="Path_703" data-name="Path 703" d="M677.789,351.26c.746,3.049,3.26,7.745,11.6,9.5l9.153,7.5,9.744,4.414,3.964,1.8,1.683-12.159-3.823-2.112-4.421-2.415s-10.061-18.214-25.98-10.526a3.52,3.52,0,0,0-1.922,4.006Z" transform="translate(-222.5 -116.386)" fill="#cc818c"/>
    <circle id="Ellipse_131" data-name="Ellipse 131" cx="22.241" cy="22.241" r="22.241" transform="translate(450.987 128.238)" opacity="0.1"/>
    <circle id="Ellipse_132" data-name="Ellipse 132" cx="22.241" cy="22.241" r="22.241" transform="translate(450.987 127.724)" fill="#cc818c"/>
    <path id="Path_704" data-name="Path 704" d="M720.069,291.089l-6.689-13s9.786-3.957,10.5-8.54,9.378,5.372,7.505,8.674S720.069,291.089,720.069,291.089Z" transform="translate(-233.062 -93.6)" opacity="0.1"/>
    <path id="Path_705" data-name="Path 705" d="M720.069,289.619l-6.689-13s9.786-3.957,10.5-8.54,9.378,5.379,7.505,8.674S720.069,289.619,720.069,289.619Z" transform="translate(-233.062 -93.165)" fill="#a6ce45"/>
    <path id="Path_706" data-name="Path 706" d="M633.92,344.83l36.956,49.685s-13.623,7.414-32.387-5.858l-8.1-9.66L607.25,340Z" transform="translate(-201.654 -114.799)" fill="#f6f8fb"/>
    <path id="Path_707" data-name="Path 707" d="M634.436,379.849l3.365-.092S658.36,359.8,663.408,369.9,650.6,389.432,650.6,389.432l-5.428,2.929-7.076,2.112L633.57,388.4Z" transform="translate(-209.443 -122.804)" fill="#cc818c"/>
    <path id="Path_708" data-name="Path 708" d="M637.443,395.12a5.023,5.023,0,0,1,.084,3.478,1.408,1.408,0,0,1-.612.669,1.569,1.569,0,0,1-.7.1,7.076,7.076,0,0,1-4.64-2.3,21.19,21.19,0,0,1-3.006-4.351c-.915-1.6-1.866-3.365-1.542-5.182.366-1.978,2.112-3.351,3.823-4.464,3.408-2.253,3.52.373,4.267,3.274S636.661,392.191,637.443,395.12Z" transform="translate(-207.486 -127.295)" opacity="0.1"/>
    <path id="Path_709" data-name="Path 709" d="M636.712,395.12a5.064,5.064,0,0,1,.084,3.478,1.408,1.408,0,0,1-.613.669,1.584,1.584,0,0,1-.7.1,7.041,7.041,0,0,1-4.64-2.3,20.948,20.948,0,0,1-3.013-4.351c-.915-1.6-1.866-3.365-1.535-5.182.359-1.978,2.112-3.351,3.816-4.464,3.415-2.253,3.52.373,4.274,3.274S635.923,392.191,636.712,395.12Z" transform="translate(-207.269 -127.295)" fill="#a6ce45"/>
    <path id="Path_710" data-name="Path 710" d="M623.85,316.718l1.718-2.908-1.5,5.4Z" transform="translate(-184.628 -92.869)" opacity="0.1"/>
    <path id="Path_711" data-name="Path 711" d="M721.19,378.906l3.964,1.8,1.683-12.159-3.823-2.112C725.654,369.457,723.344,375.055,721.19,378.906Z" transform="translate(-235.374 -122.621)" opacity="0.1"/>
    <path id="Path_712" data-name="Path 712" d="M736.125,362.961s-12.8.781-18.235-2.711" transform="translate(-234.397 -120.792)" opacity="0.1"/>
    <g id="Group_68" data-name="Group 68" transform="translate(445.643 178.508)" opacity="0.1">
      <path id="Path_713" data-name="Path 713" d="M739.133,346.014a36.031,36.031,0,0,1,6.428-8.343,17.155,17.155,0,0,1,1.894-1.028l19.953-4.1,1.155-.253s.176-38.97-13.616-44.32a82.882,82.882,0,0,1-21.516-12.117l1.514-.465a80.463,80.463,0,0,0,22.072,12.581c13.8,5.344,13.616,44.32,13.616,44.32h-2.07L748.145,336.2s-.88.852-1.148,1.1a39.569,39.569,0,0,0-6.527,8.632,21.643,21.643,0,0,0-1.711,16.362h-2.112C734.944,356.117,736.7,350.407,739.133,346.014Z" transform="translate(-684.639 -274.186)"/>
      <path id="Path_714" data-name="Path 714" d="M664.13,277.944c.331-.049.648-.1.993-.134a35.683,35.683,0,0,0,4.224.345A38.376,38.376,0,0,1,664.13,277.944Z" transform="translate(-664.13 -274.902)"/>
      <path id="Path_715" data-name="Path 715" d="M700.391,280.742l-12.631-6.393a6.677,6.677,0,0,0,.7-.669l13.18,6.667Z" transform="translate(-671.123 -273.68)"/>
    </g>
    <path id="Path_716" data-name="Path 716" d="M757.483,340l8.449,10.35,1.725,28.106s2.239,14.306-14.137,10.857S718.19,375.2,718.19,375.2s9.153-12.244,4.14-16.9l23.452,7.59s3.964-.866.859-4.309-3.654-9.66-3.654-9.66Z" transform="translate(-234.486 -114.799)" fill="#a6ce45"/>
    <path id="Path_717" data-name="Path 717" d="M779.42,382.17l4.654,5.344a6.71,6.71,0,0,1-4.654-5.344Z" transform="translate(-252.606 -127.279)" opacity="0.1"/>
    <path id="Path_718" data-name="Path 718" d="M736.99,360.8l7.245,9.308-3.619.866Z" transform="translate(-218.111 -106.775)" opacity="0.1"/>
    <path id="Path_719" data-name="Path 719" d="M665.426,205.735c-.8-1.95-.183-4.224.774-6.062a47.877,47.877,0,0,0,2.992-5.555c1.063-2.943.739-6.273,1.9-9.153,2.049-5.1,7.871-7.386,13.088-9.153a8.8,8.8,0,0,1,4.759-.648c2.112.5,3.485,2.415,5.21,3.7,7.083,5.28,18.6-.535,25.452,5.055,2.619,2.112,3.893,5.569,4.288,8.927s0,6.766-.042,10.153c-.113,5.928,1,12.413,5.435,16.341,1.338,1.183,2.915,2.07,4.224,3.295a5.768,5.768,0,0,1,2.112,4.71,16.334,16.334,0,0,1-.7,2.394c-.88,3.091.436,6.336,2.042,9.153,4.788,8.287,13.229,15.116,22.8,15.306-.641,4.83-5.632,7.632-10.1,9.61-5.632,2.528-11.631,5.006-17.834,4.689s-12.673-4.288-13.757-10.4c-.373-2.112-.324-4.654-2.112-5.752-1.1-.669-2.521-.5-3.7-1-1.711-.7-2.556-2.626-3.119-4.393a39.541,39.541,0,0,1-1.838-11.265c-.078-4.534.521-9.484-2.049-13.215-2.38-3.457-6.6-5.21-9.35-8.385-2.535-2.943-5.287-6.491-9.441-7.041C680.7,206.242,668.82,214.05,665.426,205.735Z" transform="translate(-218.762 -65.978)" opacity="0.1"/>
    <path id="Path_720" data-name="Path 720" d="M665.426,204.265c-.8-1.95-.183-4.224.774-6.062a47.881,47.881,0,0,0,2.992-5.555c1.063-2.943.739-6.273,1.9-9.153,2.049-5.111,7.871-7.393,13.088-9.153a8.8,8.8,0,0,1,4.759-.648c2.112.5,3.485,2.415,5.21,3.7,7.083,5.28,18.6-.535,25.452,5.055,2.619,2.112,3.893,5.569,4.288,8.934s0,6.759-.042,10.145c-.113,5.928,1,12.413,5.435,16.341,1.338,1.183,2.915,2.07,4.224,3.295a5.768,5.768,0,0,1,2.112,4.71,16.332,16.332,0,0,1-.7,2.394c-.88,3.091.436,6.337,2.042,9.153,4.8,8.259,13.208,15.109,22.776,15.3-.641,4.83-5.632,7.632-10.1,9.617-5.632,2.521-11.631,5-17.834,4.682s-12.673-4.288-13.757-10.4c-.373-2.112-.324-4.654-2.112-5.752-1.1-.669-2.52-.5-3.7-1-1.711-.7-2.556-2.626-3.119-4.393a39.5,39.5,0,0,1-1.838-11.265c-.077-4.534.521-9.484-2.049-13.215-2.38-3.457-6.6-5.21-9.35-8.385-2.535-2.943-5.288-6.491-9.441-7.041C680.7,204.772,668.82,212.594,665.426,204.265Z" transform="translate(-218.762 -65.543)" fill="#585268"/>
    <path id="Path_721" data-name="Path 721" d="M686.156,289.748l12.75-10.35s-8.73-4.731-9.772-8.766-8.026,1.915-7.315,5.534S686.156,289.748,686.156,289.748Z" transform="translate(-223.707 -93.871)" opacity="0.1"/>
    <path id="Path_722" data-name="Path 722" d="M686.884,287.541l12.75-10.343s-8.73-4.731-9.73-8.766-8.026,1.915-7.315,5.534S686.884,287.541,686.884,287.541Z" transform="translate(-223.935 -93.22)" fill="#a6ce45"/>
    <circle id="Ellipse_133" data-name="Ellipse 133" cx="1.014" cy="1.014" r="1.014" transform="translate(475.185 191.624)" opacity="0.1"/>
    <circle id="Ellipse_134" data-name="Ellipse 134" cx="1.014" cy="1.014" r="1.014" transform="translate(475.185 197.257)" opacity="0.1"/>
    <circle id="Ellipse_135" data-name="Ellipse 135" cx="1.014" cy="1.014" r="1.014" transform="translate(475.185 202.882)" opacity="0.1"/>
    <g id="Group_69" data-name="Group 69" transform="translate(446.458 115.685)" opacity="0.1">
      <path id="Path_723" data-name="Path 723" d="M672.334,193.11c1.007-2.767.788-5.872,1.732-8.66a9.466,9.466,0,0,0-1.077,1.985c-1.169,2.908-.838,6.238-1.908,9.153l-.07.169A16.091,16.091,0,0,0,672.334,193.11Z" transform="translate(-666.981 -184.45)"/>
      <path id="Path_724" data-name="Path 724" d="M751.079,269.318c-5.632,2.521-11.631,5-17.834,4.682s-12.673-4.288-13.757-10.392c-.373-2.112-.324-4.661-2.112-5.759-1.1-.669-2.521-.5-3.7-1-1.711-.7-2.556-2.626-3.119-4.393a39.5,39.5,0,0,1-1.838-11.265c-.078-4.527.528-9.477-2.042-13.215-2.387-3.457-6.611-5.2-9.357-8.385-2.535-2.936-5.287-6.491-9.441-7.041-5.7-.774-17.6,7.041-20.967-1.281a6.548,6.548,0,0,1,.218-4.809c-.246.415-.486.831-.7,1.253-.958,1.873-1.563,4.119-.767,6.069,3.386,8.308,15.271.5,20.967,1.281,4.154.563,6.907,4.119,9.441,7.041,2.746,3.182,6.97,4.928,9.35,8.392,2.577,3.732,1.971,8.681,2.049,13.208a39.5,39.5,0,0,0,1.838,11.265c.563,1.774,1.408,3.675,3.119,4.393,1.183.5,2.605.338,3.7,1,1.816,1.1,1.767,3.668,2.112,5.759,1.1,6.1,7.562,10.075,13.757,10.392s12.166-2.154,17.834-4.682c4.083-1.816,8.632-4.33,9.857-8.449C757.725,266.058,754.261,267.9,751.079,269.318Z" transform="translate(-665.288 -190.964)"/>
    </g>
    <path id="Path_725" data-name="Path 725" d="M907.15,318.933c-14.9-8.575-20.537-10.688-20.566-10.688l-.31-.218a12.4,12.4,0,0,1-3.753-4.745,9.956,9.956,0,0,1,0-1.021.429.429,0,0,0,0,.1c.232-4.541,3.464-8.674,6.527-12.279l7.836-9.216a9.081,9.081,0,0,0,2.021-3.2,7.377,7.377,0,0,0,.211-1.964v-.8c-.042-2.288-.106-4.583-.19-6.872-.07-2-.584-4.52-2.584-4.928-1.042-.211-2.422.162-2.971-.7a1.71,1.71,0,0,1-.134-1.19.4.4,0,0,0,0,.1v-.113a26.52,26.52,0,0,0,.739-4.71,6.418,6.418,0,0,0-.324-2.387c-1.155-3.316-5.147-4.682-8.674-5.309s-7.484-1.162-9.695-3.922a28.682,28.682,0,0,0-1.929-2.654,7.61,7.61,0,0,0-3.6-1.781,20.418,20.418,0,0,0-13.117,1.141c-1.7.76-3.415,1.788-5.287,1.676s-3.6-1.464-5.52-1.788c-3.1-.528-6.062,1.746-7.59,4.443a10.863,10.863,0,0,0-1.408,5.238v.31h0a7.661,7.661,0,0,0,2.014,5.351c1.338,1.408,3.323,2.337,3.879,4.161.225.739.169,1.542.373,2.3a2.056,2.056,0,0,0,.085.275l-.1.134a23.233,23.233,0,0,0-4.928,14.32,23.769,23.769,0,0,0,16.7,22.53v.7a10.129,10.129,0,0,1-3.239,7.885L830.5,317.539s-12.729-1.514-17.32,17.087a31.721,31.721,0,0,0-.788,9.434c.169,2.816-.218,7.745-3.52,14.13-5.217,10.223-4.027,33.689,6.646,36.012,10.075,2.2,14.018,1.281,14.433,1.176v.408c-.169,4.407-1.767,42.384-7.576,46.975-1.605,1.274-1.31,2.112,0,2.711,0,0,0,.246-.035.7-.176,2.816-1.07,13.377-4.928,19.376-4.513,6.97-4.041,47.172-4.041,47.172l-3.077,23.7s1.894,14.637,0,17.193c-1.7,2.274-3.95,56.423-4.422,68.167h-.2a5.717,5.717,0,0,0-4.562,2.816c-2.492,4.048-11.223,11.532-11.223,11.532-1.894,2.69-8.9,5.266-12.6,6.477a7.825,7.825,0,0,0-1.408.62,7.512,7.512,0,0,0-3.182,3.351,3.6,3.6,0,0,0-.338,2.816c.943,2.316,20.636,3.95,25.621,1.619,3.915-1.824,19.432-4.224,25.874-5.168a5.309,5.309,0,0,0,4.6-4.6,3.036,3.036,0,0,0-.591-2.3h0c-1.232-1.528-1.859-5.7-2.112-8.449a5.711,5.711,0,0,0,1.45-.859,61.854,61.854,0,0,1,3.52-24.86c4.745-12.546,6.167-35.78,4.985-50.882,0,0,14.468-62.267,25.86-68.075h0c.176.225,5.7,7.315,6.407,29.275.7,22.3,8.773,36.942,8.773,36.942s-3.563,37.871,0,52.044L872.1,626.43c-.345-.289-.563-.514-.563-.514s.141.62.331,1.612l-.1.479.2.042c.528,2.816,1.31,7.667.986,10.561-.183,1.626-.641,3.858-.951,6.048-.493,3.443-.627,6.78,1.183,7.512,2.971,1.2,20.418,2.816,23.375-1.014a5.485,5.485,0,0,0,.859-5.738,5.809,5.809,0,0,0-.859-1.464s-4.633-7.569-3.323-12.905a3.929,3.929,0,0,0-.556-3.063,157.393,157.393,0,0,1,3.992-25.036c2.971-11.18,9.23-35.7,4.626-51.812h0q-.261-.95-.591-1.859A69.587,69.587,0,0,1,898.1,522.1a55.4,55.4,0,0,1,0-23.7c2.851-13.011,4.844-25.79,4.844-25.79s1.57-17.193.2-27.733a6.9,6.9,0,0,0-.091-.7l.746-.169s-4.034-17.89-5.457-29.275c-.338-2.689-.774-6.09-1.253-9.723a24.823,24.823,0,0,0,3.865-.965c12.807-4.414,16.841-44.356,16.841-44.356V347.011S922.1,327.53,907.15,318.933ZM811.708,627.479c-.394-.2-.627-.331-.627-.331h0Z" transform="translate(-250.474 -85.157)" fill="url(#linear-gradient-3)"/>
    <path id="Path_726" data-name="Path 726" d="M913.947,631.983c5.555,15.975-.93,41.905-3.943,53.508a161.746,161.746,0,0,0-3.936,25.473,53.643,53.643,0,0,1-20.375-.465l4.865-23.846c-3.478-14.123,0-51.868,0-51.868s-7.871-14.588-8.568-36.815c-.7-21.875-6.076-28.951-6.245-29.169h0c-11.11,5.787-25.234,67.843-25.234,67.843,1.155,15.046-.239,38.2-4.865,50.692a62.66,62.66,0,0,0-3.471,24.769c-1.619,1.408-3.872,1.605-6.337,1.211-6.611-1.07-14.539-6.766-14.539-6.766s2.542-67.589,4.4-70.152,0-17.137,0-17.137l3.006-23.614s-.465-40.061,3.936-47c3.8-6,4.675-16.545,4.844-19.312v-.7l6.7-8.026s64.83-4.865,69.7,0c1.19,1.19,1.929,3.907,2.366,7.322,1.338,10.5-.2,27.634-.2,27.634s-1.943,12.736-4.724,25.7a56.41,56.41,0,0,0,0,23.621A70.705,70.705,0,0,0,913.947,631.983Z" transform="translate(-265.001 -167.607)" fill="#65617d"/>
    <path id="Path_727" data-name="Path 727" d="M936.855,811.875c-2.894,3.823-19.911,2.2-22.811,1.014-1.767-.7-1.633-4.062-1.155-7.491.3-2.176.746-4.4.929-6.02.458-4.168-1.408-12.624-1.408-12.624s3.816,4.055,4.738,0a4.416,4.416,0,0,1,3.309-3.14,8.646,8.646,0,0,1,6.013.373c3.006,1.31,8.019,4.091,7.125,7.85-1.274,5.316,3.239,12.863,3.239,12.863a5.848,5.848,0,0,1,.845,1.45,5.555,5.555,0,0,1-.824,5.724Z" transform="translate(-291.964 -245.974)" fill="#a27772"/>
    <path id="Path_728" data-name="Path 728" d="M936.925,821.187c-2.894,3.823-19.911,2.2-22.811,1.014-1.767-.7-1.633-4.062-1.155-7.491,1.831.859,4.928,1.57,10.117,1.091a28.554,28.554,0,0,1,3.64-.113,84.661,84.661,0,0,0,11.054-.225A5.555,5.555,0,0,1,936.925,821.187Z" transform="translate(-292.034 -255.287)" opacity="0.1"/>
    <path id="Path_729" data-name="Path 729" d="M856.613,655.894c1.155,15.046-.24,38.2-4.865,50.692a62.662,62.662,0,0,0-3.471,24.769c-1.619,1.408-3.872,1.605-6.337,1.211,1.408-9.765,7.35-51.84,11.159-85.085,4.344-37.857,24.642-63.9,24.642-63.9l4.048,4.457C870.736,593.838,856.613,655.894,856.613,655.894Z" transform="translate(-271.109 -186.885)" opacity="0.1"/>
    <path id="Path_730" data-name="Path 730" d="M917.426,328.972l-2.816,13.891-13.849,23.269-17.073-7.294s-23.234-24.311-8.625-27.782a12.927,12.927,0,0,0,4.844-2.154c2.866-2.161,3.767-5.3,3.781-8.378a25.686,25.686,0,0,0-2.352-9.955L911.2,301.19a47.938,47.938,0,0,0-2.112,12.1c-.232,8.139,2.816,12.145,5.273,14.081A8.972,8.972,0,0,0,917.426,328.972Z" transform="translate(-279.484 -103.314)" fill="#fbbebe"/>
    <path id="Path_731" data-name="Path 731" d="M915.838,301.19a47.938,47.938,0,0,0-2.112,12.1,22.717,22.717,0,0,1-1.739,1.852,23.628,23.628,0,0,1-23.614,5.386A25.686,25.686,0,0,0,886,310.568Z" transform="translate(-284.148 -103.314)" opacity="0.1"/>
    <path id="Path_732" data-name="Path 732" d="M913.392,285.834a23.508,23.508,0,1,1-6.887-16.731A23.621,23.621,0,0,1,913.392,285.834Z" transform="translate(-278.274 -91.781)" fill="#fbbebe"/>
    <path id="Path_733" data-name="Path 733" d="M917.426,339.966l-2.816,13.891-13.849,23.269-17.073-7.294s-23.234-24.311-8.625-27.782a12.927,12.927,0,0,0,4.844-2.154c-2.633,7.238,8.237,22.3,8.237,22.3,1.267,1.866,4.168.7,4.168.7,7.005-1.063,19.9-21.206,22-24.557a8.967,8.967,0,0,0,3.112,1.626Z" transform="translate(-279.484 -114.308)" opacity="0.1"/>
    <path id="Path_734" data-name="Path 734" d="M923.128,527.931c-4.112.937-26.86,5.97-35.485,4.71-9.491-1.408-27.944-2.309-27.944-2.309s-11.751.634-15.37-1.021v-.7l6.7-8.026s64.83-4.865,69.7,0C921.952,521.8,922.691,524.517,923.128,527.931Z" transform="translate(-271.816 -167.601)" opacity="0.1"/>
    <path id="Path_735" data-name="Path 735" d="M873.7,362.982s-12.215-16.9-7.611-23.516l-20.636,8.449s-12.42-1.507-16.9,17.031a32.25,32.25,0,0,0-.767,9.406c.169,2.816-.211,7.745-3.4,14.081-5.09,10.188-3.936,33.576,6.484,35.907s14.116,1.155,14.116,1.155-1.408,42.37-7.407,47.235,15.349,3.7,15.349,3.7,18.453.929,27.951,2.316S917,473.885,917,473.885s-3.936-17.827-5.33-29.169-4.64-35.506-4.64-35.506l23.614-31.992s4.168-19.333-10.42-27.9-20.073-10.666-20.073-10.666-14.658,23.868-22.3,25.022C877.867,363.672,874.967,364.841,873.7,362.982Z" transform="translate(-265.046 -114.4)" fill="#a6ce45"/>
    <path id="Path_736" data-name="Path 736" d="M855.526,382.74s-.225,7.646,1.162,10.652,6.484,19.714,6.484,19.714H851.59s6.252-6.717,5.794-9.962S855.526,382.74,855.526,382.74Z" transform="translate(-273.965 -127.448)" opacity="0.1"/>
    <path id="Path_737" data-name="Path 737" d="M890.35,450.99s-25.571-6.252-27.951-11.575-8.948-17.242-8.948-17.242l2.7-3.633L868.58,428.3s14.785,11.807,21.769,12.969S890.35,450.99,890.35,450.99Z" transform="translate(-274.515 -138.043)" fill="#fbbebe"/>
    <path id="Path_738" data-name="Path 738" d="M890.35,450.99s-25.571-6.252-27.951-11.575-8.948-17.242-8.948-17.242l2.7-3.633L868.58,428.3s14.785,11.807,21.769,12.969S890.35,450.99,890.35,450.99Z" transform="translate(-274.515 -138.043)" opacity="0.05"/>
    <path id="Path_739" data-name="Path 739" d="M917.843,421.815v13.87h-2.225a64.835,64.835,0,0,0-31.5,8.159l-4.171,2.31-1.119.627-7.181-16.193,6.717-6.02h.345c1.64.162,8.744.753,11.758-.26,2.859-.972,6.407-4.048,14.827-1.9,4.147,1.063,7.7,5.71,11.716,4.26Z" transform="translate(-279.901 -138.966)" fill="#fbbebe"/>
    <path id="Path_740" data-name="Path 740" d="M947.807,379.384l4.626,5.21v12.624S948.5,437.04,936,441.44s-34.823-2.549-34.823-2.549-5.766-15.278-3.07-16.193,23.832-6.505,23.832-6.505-.3-23.361,4.33-30.31c0,0-3.006-21.762,7.414-22.227S947.807,379.384,947.807,379.384Z" transform="translate(-287.519 -121.797)" opacity="0.1"/>
    <path id="Path_741" data-name="Path 741" d="M948.809,379.384l4.633,5.21v12.624S949.506,437.04,937,441.44s-34.823-2.549-34.823-2.549-5.766-15.278-3.062-16.193,23.832-6.505,23.832-6.505-.3-23.361,4.33-30.31c0,0-3.013-21.762,7.407-22.227S948.809,379.384,948.809,379.384Z" transform="translate(-287.816 -121.797)" fill="#a6ce45"/>
    <path id="Path_742" data-name="Path 742" d="M908.945,295.824a9.307,9.307,0,0,0-.528-4.513,3.436,3.436,0,0,0-3.675-2.112c-1.978.465-2.816,3.042-4.773,3.661-1.641.521-3.429-.641-4.224-2.168a10.8,10.8,0,0,1-.8-5.041v-5.8c0-2.112-.07-4.379-1.366-6.034-1.612-2.056-5.407-2.957-7.942-2.873a6.738,6.738,0,0,0-4.534,1.824,5.836,5.836,0,0,1-4.766,1.7,4.1,4.1,0,0,1-3.323-2.873v-.07a23.614,23.614,0,1,1,35.1,31.345A63.679,63.679,0,0,0,908.945,295.824Z" transform="translate(-280.304 -91.745)" opacity="0.1"/>
    <path id="Path_743" data-name="Path 743" d="M873.76,267.758a4.14,4.14,0,0,1-3.33-2.88c-.19-.746-.141-1.542-.359-2.281-.542-1.824-2.485-2.767-3.788-4.154-2.6-2.767-2.436-7.315-.591-10.645,1.493-2.682,4.379-4.928,7.407-4.421,1.873.324,3.52,1.655,5.393,1.781s3.52-.908,5.161-1.669a19.445,19.445,0,0,1,12.828-1.141A7.393,7.393,0,0,1,900,244.129a30.8,30.8,0,0,1,1.88,2.64c2.154,2.746,6.02,3.288,9.463,3.908s7.336,1.985,8.449,5.295c.753,2.2,0,4.576-.408,6.857a2.07,2.07,0,0,0,.092,1.408c.542.887,1.887.514,2.9.7,1.95.415,2.45,2.929,2.528,4.928q.12,3.422.183,6.85a8.72,8.72,0,0,1-.2,2.535,8.945,8.945,0,0,1-1.964,3.189l-7.646,9.188c-3.393,4.069-6.991,8.815-6.336,14.081-1.605.7-3.52-.669-4.041-2.352a10.519,10.519,0,0,1,.253-5.217,63.958,63.958,0,0,0,1.225-9.047,9.28,9.28,0,0,0-.528-4.506,3.436,3.436,0,0,0-3.675-2.112c-1.985.465-2.816,3.042-4.774,3.661-1.641.521-3.429-.641-4.224-2.168a10.771,10.771,0,0,1-.8-5.034V273.13c0-2.112-.07-4.379-1.366-6.034-1.612-2.056-5.407-2.957-7.942-2.873a6.738,6.738,0,0,0-4.527,1.823A5.846,5.846,0,0,1,873.76,267.758Z" transform="translate(-277.731 -85.723)" fill="#7c5c5c"/>
    <path id="Path_744" data-name="Path 744" d="M885.3,381.92l7.252,29.789S898.269,411.673,885.3,381.92Z" transform="translate(-283.941 -127.205)" opacity="0.1"/>
    <path id="Path_745" data-name="Path 745" d="M917.7,374.85s-9.491,15.546-5.787,31.626l1.767.127S910.523,399.161,917.7,374.85Z" transform="translate(-291.562 -125.113)" opacity="0.1"/>
    <path id="Path_746" data-name="Path 746" d="M929,499.472s11.659-3.858,12.5,5.09C941.532,504.563,939.335,498.43,929,499.472Z" transform="translate(-296.874 -161.749)" opacity="0.1"/>
    <path id="Path_747" data-name="Path 747" d="M872.812,426.81S870.5,443,874.663,449.5a50.78,50.78,0,0,1-20.375,2.781L852.88,426.81Z" transform="translate(-274.346 -140.49)" opacity="0.1"/>
    <path id="Path_748" data-name="Path 748" d="M879.951,447.376l-1.119.627L871.65,431.81l6.717-6.02h.345C878.606,426.593,876.733,440.512,879.951,447.376Z" transform="translate(-279.901 -140.188)" opacity="0.1"/>
    <path id="Path_749" data-name="Path 749" d="M870,425.83s-2.316,16.193,1.852,22.685a50.633,50.633,0,0,1-20.375,2.781l-8.1-25.466Z" transform="translate(-271.532 -140.2)" fill="#a6ce45"/>
    <path id="Path_750" data-name="Path 750" d="M829.672,801.769a5.245,5.245,0,0,1-4.5,4.59c-6.287.937-21.431,3.33-25.254,5.154-4.865,2.316-24.079.7-25.008-1.619a3.676,3.676,0,0,1,.331-2.816,7.421,7.421,0,0,1,3.1-3.337,8.238,8.238,0,0,1,1.408-.62c3.619-1.2,10.455-3.767,12.3-6.456,0,0,8.526-7.456,10.955-11.483a5.562,5.562,0,0,1,4.45-2.774c2.028-.091,4.288.929,5.217,5.372,0,0,11.1,6.337,14.081.781,0,0,.465,8.533,2.309,10.871h0a3.1,3.1,0,0,1,.606,2.337Z" transform="translate(-251.23 -245.725)" fill="#a27772"/>
    <path id="Path_751" data-name="Path 751" d="M829.672,808.927a5.245,5.245,0,0,1-4.5,4.59c-6.287.937-21.431,3.33-25.254,5.154-4.865,2.316-24.079.7-25.008-1.619a3.675,3.675,0,0,1,.331-2.816,7.421,7.421,0,0,1,3.1-3.337c3.133,2.112,10.089,4.112,25.388,1.725,14.6-2.281,21.826-4.513,25.346-6.034h0a3.1,3.1,0,0,1,.591,2.337Z" transform="translate(-251.23 -252.884)" opacity="0.1"/>
    <g id="Group_70" data-name="Group 70" transform="translate(586.563 166.975)" opacity="0.1">
      <path id="Path_752" data-name="Path 752" d="M942.453,269.892v-.113a20.733,20.733,0,0,0,.7-5.259,34.676,34.676,0,0,1-.7,4.224A2.565,2.565,0,0,0,942.453,269.892Z" transform="translate(-887.399 -259.437)"/>
      <path id="Path_753" data-name="Path 753" d="M905.828,289.426a6.7,6.7,0,0,1,.57,2.647,7.983,7.983,0,0,0-.57-3.689,3.422,3.422,0,0,0-3.668-2.112c-1.985.465-2.816,3.042-4.781,3.661-1.633.521-3.422-.641-4.224-2.168a10.713,10.713,0,0,1-.8-5.041v-5.8c0-2.112-.07-4.379-1.366-6.034-1.619-2.063-5.407-2.957-7.942-2.88a6.745,6.745,0,0,0-4.534,1.831,5.85,5.85,0,0,1-4.774,1.7,4.126,4.126,0,0,1-3.323-2.873c-.19-.746-.141-1.549-.359-2.288-.542-1.816-2.485-2.767-3.788-4.147a7.583,7.583,0,0,1-1.95-4.928,7.893,7.893,0,0,0,1.95,5.935c1.3,1.408,3.246,2.33,3.788,4.147.218.7.169,1.542.359,2.288a4.125,4.125,0,0,0,3.323,2.873,5.85,5.85,0,0,0,4.774-1.7,6.745,6.745,0,0,1,4.534-1.831c2.535-.077,6.337.817,7.942,2.88,1.3,1.655,1.359,3.929,1.366,6.034v5.8a10.656,10.656,0,0,0,.8,5.034c.8,1.514,2.57,2.7,4.224,2.176,1.943-.62,2.816-3.2,4.781-3.661A3.556,3.556,0,0,1,905.828,289.426Z" transform="translate(-864.285 -257.3)"/>
      <path id="Path_754" data-name="Path 754" d="M943.607,293.25a8.9,8.9,0,0,1-1.971,3.182l-7.646,9.188c-3.218,3.865-6.618,8.343-6.337,13.279.232-4.527,3.387-8.646,6.337-12.236l7.646-9.188a8.9,8.9,0,0,0,1.971-3.182,8.79,8.79,0,0,0,.2-2.542A6.692,6.692,0,0,1,943.607,293.25Z" transform="translate(-883.034 -267.495)"/>
      <path id="Path_755" data-name="Path 755" d="M921.893,327.589a5.412,5.412,0,0,1-.232-1.239,6.244,6.244,0,0,0,.232,2.281c.521,1.676,2.429,3.063,4.041,2.345a9.922,9.922,0,0,1-.084-1.014C924.245,330.6,922.386,329.237,921.893,327.589Z" transform="translate(-881.259 -277.735)"/>
    </g>
    <path id="Path_756" data-name="Path 756" d="M812.69,789.36s2.422,4.224,11.195.507" transform="translate(-262.453 -247.784)" opacity="0.1"/>
    <path id="Path_757" data-name="Path 757" d="M918,790.82s7.562,8.906,17.094,2.922" transform="translate(-293.618 -248.217)" opacity="0.1"/>
    <path id="Path_758" data-name="Path 758" d="M946.94,641.23s-5.344,3.337-5.513,5.245,2.76-1.408,2.76-1.408Z" transform="translate(-300.549 -203.946)" opacity="0.1"/>
    <path id="Path_759" data-name="Path 759" d="M948.227,677.59a11.174,11.174,0,0,1-6.583,2.57c-4,.176-3.661,5.386-1.049,3.823S948.227,677.59,948.227,677.59Z" transform="translate(-299.725 -214.707)" opacity="0.1"/>
    <path id="Path_760" data-name="Path 760" d="M951.747,682.34s-2.563,12.6-4.647,10.167" transform="translate(-302.23 -216.113)" opacity="0.1"/>
    <path id="Path_761" data-name="Path 761" d="M247.238,642.842s16.088,4.414,23.832-1.457,11.1-3.985,11.1-3.985,18.467-1.021,19.988-5.386-7.083-20.22-7.083-20.22c-.612-1.408-1.507-3.2-1.908-3.2l.084-6.689h0l2.675-27.986c6.175-15.834.113-36.294.113-36.294l-1.105-5.076a12.842,12.842,0,0,1,1.049-8.449l11.216-22.53a33.719,33.719,0,0,1,2.112-4.323c.7-1.288,1.64-2.88,2.816-4.788.345-.549.7-1.119,1.1-1.718,1.359-2.112,3.006-4.506,5-7.266,4.964-6.879,7.576-15.489,8.927-21.826l.6,1.985h.134l.162.035h.268l.289.049h.106l3.45,43.905c.211,17.123,6.5,26.6,6.5,26.6l-.866,37.8c1.183,9.1-1.408,21.241-2.6,26.085l-2.718,6.132a7.371,7.371,0,0,0-4.006,5.576c-.535,4.527-5.3,14.285-5.3,14.285-1.845,2.337-5.851,8.653-5.851,8.653s-1.887,6.1-.718,8.378,10.941,2.049,10.941,2.049c11.159,2.471,19.714-3.52,19.172-7.646s1.739-5.175,1.739-5.175c4.436-1.408,4.006-4.414,4.006-4.414A27.627,27.627,0,0,0,349.1,607.97l-.7,1.626a24.76,24.76,0,0,1,1.338-9.6l-.408.282-.127.077h-.042c.7-6.175,7.188-17.6,7.188-17.6,11.913-20.9,7.583-49.214,7.583-49.214l-1.845-8.829-.106-3.33a111.149,111.149,0,0,1,1.8-23.727c.641-3.464,1.3-7.646,1.809-12.258,1.07-9.744,4.52-19.8,6.111-24.058l.472-.084h.056c.648-.113,1.3-.225,1.964-.352h.127s.38-2.056.7-5.555c.19-2.232.345-5.062.345-8.315a93.55,93.55,0,0,0-4.443-28.944l.359-.514s.852-1.155,2.408-3.154h0c2.858-3.633,7.308-9.153,12.793-15.377,9.822-11.2,6.935-22.53,6.935-22.53s-7.111-26.057-10.279-41.7a47.424,47.424,0,0,0-7.8-18.552,36.922,36.922,0,0,0,.986-7.519c.211-4.633.049-9.463-2.035-13.623s-6.52-7.449-11.152-6.893a4.266,4.266,0,0,1-2,0,3.041,3.041,0,0,1-1.317-1.148c-2.711-3.739-2.887-8.766-2.042-13.3s2.577-8.871,3.351-13.419.422-9.6-2.471-13.2c-3.4-4.224-9.329-5.414-13.75-8.589-3.1-2.232-5.435-5.435-8.709-7.414s-6.336-1.225-9.892-.479c-5.977,1.26-11.659,1.838-17.313,4.407A46.109,46.109,0,0,0,293.9,246.064a14.319,14.319,0,0,0-3.365,5.309c-1.408,4.654,1.345,9.61.767,14.426-.408,3.415-2.422,6.386-4.02,9.434s-2.816,6.667-1.563,9.857c1.971,4.985,8.4,6.041,13.074,8.7a3.991,3.991,0,0,1,1.549,1.345c1.155,2.014-1.2,4.1-2.689,5.893a8.878,8.878,0,0,0-1.76,3.577,12.757,12.757,0,0,0-7.653,9.237c-1.584,7.09.852,16.038,3,21.953-2.344,13.173.7,18.369,2.95,20.361a11.3,11.3,0,0,1,3.915,7.7v.246c.148,2.394.4,4.781.739,7.16h0c-.077-.556-.155-1.148-.2-1.408-1.838,3.4-5.337,12.089-7.308,26.7a80.264,80.264,0,0,1-1.781,9.3,50.862,50.862,0,0,0-1.493,16.63l.352,4.738a1.493,1.493,0,0,1-.958-.317l2.471,4.527v7.639a28.163,28.163,0,0,1-1.873,10.075c-.176.465-.366.929-.57,1.408a8.2,8.2,0,0,0-.831,4.147c-5.316,8.146-17.5,53.8-17.5,53.8-6.611,14.968.542,24.642.542,24.642s3.464,41.673,4.112,43.828,2.084,27.557,2.084,27.557h0v2.021a4.734,4.734,0,0,0-1.2-.345c-5.794-.324-7.364,8.829-7.364,8.829l-11.856,11.321s-5.414-.915-13.377,5.062S247.238,642.842,247.238,642.842ZM365.625,401.991l-.035-.127-.324.19h0l-.134.077-.063.042h0l-5.464-19.284a32.021,32.021,0,0,1-.4-15.862l4.224-18.5h0v-4.45l13.426,35.78C377.714,384.678,369.737,396.359,365.625,401.991Z" transform="translate(-92.828 -82.215)" fill="url(#linear-gradient-4)"/>
    <path id="Path_762" data-name="Path 762" d="M408.844,557s-5.421,13.187-6.8,25.839c-.5,4.562-1.148,8.688-1.781,12.11a110.665,110.665,0,0,0-1.732,23.424l.106,3.288,1.76,8.709s4.224,27.972-7.442,48.58c0,0-6.914,12.342-7.125,18.186l-4.682,1.809-9.463-2.654s4.569-16.383,3.084-27.867l.852-37.315s-6.146-9.336-6.358-26.233l-3.612-46.369Z" transform="translate(-130.154 -179.019)" fill="#fdc2cc"/>
    <path id="Path_763" data-name="Path 763" d="M339.992,547.62s-1.162,18.08-10.1,30.542-10.842,17.869-10.842,17.869l-11.011,22.262A12.75,12.75,0,0,0,307,626.622l1.084,5.013s5.956,20.206-.106,35.843l-2.873,30.2h-16.8s-1.408-25.1-2.021-27.226-4.041-43.285-4.041-43.285-7.041-9.575-.535-24.353c0,0,14.68-55.3,18.608-54.346S339.992,547.62,339.992,547.62Z" transform="translate(-104.496 -176.243)" fill="#fdc2cc"/>
    <g id="Group_71" data-name="Group 71" transform="translate(198.906 371.377)" opacity="0.1">
      <path id="Path_764" data-name="Path 764" d="M316.658,631.67l-1.077-5.013a12.673,12.673,0,0,1,1.028-8.364L327.62,596.01s1.908-5.421,10.842-17.869c8.582-11.969,10-29.12,10.1-30.436l1.711-.085s-1.162,18.08-10.1,30.542-10.842,17.869-10.842,17.869l-11.011,22.262a12.75,12.75,0,0,0-1.035,8.329l1.084,5.013s5.956,20.206-.106,35.843l-2.873,30.2h-1.7l2.872-30.2C322.615,651.842,316.658,631.67,316.658,631.67Z" transform="translate(-313.68 -547.62)"/>
    </g>
    <path id="Path_765" data-name="Path 765" d="M390.252,697.156c.211-5.844,7.125-18.186,7.125-18.186,11.7-20.629,7.442-48.58,7.442-48.58l-1.8-8.716-.106-3.288a110.667,110.667,0,0,1,1.732-23.424c.627-3.422,1.274-7.547,1.774-12.11,1.331-12.18,6.407-24.853,6.78-25.783l1.746-.07s-5.421,13.187-6.8,25.839c-.5,4.562-1.148,8.688-1.781,12.11a110.663,110.663,0,0,0-1.732,23.424l.106,3.288,1.76,8.709s4.224,27.972-7.442,48.58c0,0-6.914,12.342-7.125,18.186l-4.682,1.809-.986-.275Z" transform="translate(-136.253 -179.019)" opacity="0.1"/>
    <path id="Path_766" data-name="Path 766" d="M379.708,754.619a8.139,8.139,0,0,0,7.745-.957,24.994,24.994,0,0,0-.634,14.039c1.915,7.66-17.869-6.168-17.869-6.168l4.224-9.653S374.815,754.936,379.708,754.619Z" transform="translate(-131.131 -236.693)" fill="#d39999"/>
    <path id="Path_767" data-name="Path 767" d="M381.185,755.039a7.906,7.906,0,0,0,6.287-1.408,25,25,0,0,0-.634,14.039c1.915,7.66-17.869-6.167-17.869-6.167l4.224-9.653a6.036,6.036,0,0,0,4.823,2.718C379.108,754.694,380.15,754.842,381.185,755.039Z" transform="translate(-131.136 -236.684)" opacity="0.1"/>
    <path id="Path_768" data-name="Path 768" d="M289.32,461.32h8.266v-46.9l-6.2-1.112Z" transform="translate(-85.626 -122.315)" fill="#fdc2cc"/>
    <path id="Path_769" data-name="Path 769" d="M289.32,461.32h8.266v-46.9l-6.2-1.112Z" transform="translate(-85.626 -122.315)" opacity="0.05"/>
    <path id="Path_770" data-name="Path 770" d="M368.963,760.556s5.21-.324,7.547,4.358l2.873,2.232,1.408-3.295a27.458,27.458,0,0,1,3.253,17.763s.422,2.971-3.936,4.358c0,0-2.232,1.063-1.7,5.1s-7.864,10-18.819,7.547c0,0-9.575.218-10.744-2.021s.746-8.188.746-8.188,3.936-6.238,5.738-8.54c0,0,4.682-9.646,5.217-14.081S366.2,758.106,368.963,760.556Z" transform="translate(-125.068 -239.011)" fill="#7e5659"/>
    <path id="Path_771" data-name="Path 771" d="M308.885,763.57l.084-6.611s-9.512,2.739-17.214-.359c0,0,.648,6.646-.422,7.555s3.563,9.462,3.563,9.462l5.175,5.421,8.9-3.239,2.415-7.6S309.518,763.57,308.885,763.57Z" transform="translate(-108.113 -238.089)" fill="#d39999"/>
    <path id="Path_772" data-name="Path 772" d="M308.885,763.57l.084-6.611s-9.512,2.739-17.214-.359c0,0,.648,6.646-.422,7.555s3.563,9.462,3.563,9.462l5.175,5.421,8.9-3.239,2.415-7.6S309.518,763.57,308.885,763.57Z" transform="translate(-108.113 -238.089)" opacity="0.1"/>
    <path id="Path_773" data-name="Path 773" d="M276.056,763.1s5.055.584,4.414,7.041.268,0,.268,0,5.372,2.176,7.287,5.21,5.372-2.711,5.632-4.358,2.415-2.33,2.415-2.33,8.449,15.665,6.956,19.974-19.629,5.3-19.629,5.3-3.3-1.859-10.906,3.936-23.4,1.408-23.4,1.408-12.87-5.372-5.048-11.265,13.131-5,13.131-5l11.645-11.223S270.367,762.772,276.056,763.1Z" transform="translate(-93.421 -240.009)" fill="#7e5659"/>
    <path id="Path_774" data-name="Path 774" d="M355.279,236.558c3.218,1.95,5.506,5.118,8.554,7.322,4.337,3.133,10.159,4.3,13.5,8.484,2.816,3.563,3.182,8.54,2.422,13.032s-2.464,8.78-3.288,13.257-.655,9.441,2.007,13.131a2.978,2.978,0,0,0,1.288,1.133,4.224,4.224,0,0,0,1.964,0c4.548-.549,8.913,2.7,10.955,6.808s2.2,8.878,1.992,13.455c-.176,3.753-.6,7.583-2.246,10.962-2.816,5.745-8.674,9.294-14.454,12.011a111.947,111.947,0,0,1-11.539,4.661c-2.7.915-5.555,1.739-8.364,1.26-4.809-.831-8.216-5.2-12.779-6.914-3.739-1.408-7.885-.9-11.863-.549-3.394.3-7.273.289-9.61-2.19-3-3.182-1.648-8.315-.113-12.413a8.836,8.836,0,0,1-6.252-14.447c1.45-1.767,3.767-3.83,2.633-5.823a3.858,3.858,0,0,0-1.521-1.324c-4.583-2.619-10.9-3.668-12.828-8.582-1.239-3.161-.042-6.738,1.528-9.744s3.52-5.949,3.95-9.315c.563-4.759-2.112-9.653-.753-14.243a14.278,14.278,0,0,1,3.3-5.252,45.314,45.314,0,0,1,14.785-10.835c5.555-2.542,11.124-3.112,17-4.351C349.062,235.347,351.976,234.559,355.279,236.558Z" transform="translate(-112.27 -83.812)" fill="#865a61"/>
    <path id="Path_775" data-name="Path 775" d="M325.268,337.756s-13.469-.7-16.017,10.779,5.527,27.93,5.527,27.93Z" transform="translate(-113.316 -114.133)" fill="#fdc2cc"/>
    <path id="Path_776" data-name="Path 776" d="M325.268,337.756s-13.469-.7-16.017,10.779,5.527,27.93,5.527,27.93Z" transform="translate(-113.316 -114.133)" opacity="0.05"/>
    <path id="Path_777" data-name="Path 777" d="M320,360.229l5.1,4.041,23.818,1.063,14.87-10.209,15.123-25.952c-9.244-2.359-12.983-8.744-14.377-14.715a32.218,32.218,0,0,1-.3-12.293s-24.248-12.553-21.27,7.041a26.613,26.613,0,0,1,.225,7.28c-1.408,11.476-12.546,9.315-12.546,9.315l-4.274,6.59-4.893,16.193Z" transform="translate(-116.644 -102.43)" fill="#fdc2cc"/>
    <path id="Path_778" data-name="Path 778" d="M352.553,309.176a26.617,26.617,0,0,1,.225,7.28,21.5,21.5,0,0,0,21.34-2,32.216,32.216,0,0,1-.3-12.293S349.575,289.61,352.553,309.176Z" transform="translate(-126.203 -102.428)" opacity="0.1"/>
    <circle id="Ellipse_136" data-name="Ellipse 136" cx="21.481" cy="21.481" r="21.481" transform="translate(214.029 172.157)" fill="#fdc2cc"/>
    <path id="Path_779" data-name="Path 779" d="M334.743,367.565c.521,0,1.035.078,1.549.127,2.816.282,14.581.915,21.284-7.09,7.5-8.956,17.482-20.016,17.89-20.467l10.16,3.07s-8.04-2.859-13.377,12.1a15.489,15.489,0,0,0,5.231,17.82,16.1,16.1,0,0,0,6.646,2.816.035.035,0,0,1,0,.035v6.562h0l-4.154,18.306a31.731,31.731,0,0,0,.394,15.665l6.336,22.4c-.957.662-40.272,27.4-66.533,8.934h0c.1-.8,3.344-27.085,1.091-39.948a88.833,88.833,0,0,1-1.176-9.941c0-.085,0-.162,0-.246a11.208,11.208,0,0,0-3.851-7.6c-2.366-2.112-5.569-7.745-2.4-22.628a54.679,54.679,0,0,1,3.52-10.723l8.808-19.9h0l8.118.162v.056c-.7.873-10.117,12.631-11.138,20.206C322.141,364.467,320.909,366.678,334.743,367.565Z" transform="translate(-114.427 -113.864)" fill="#a6ce45"/>
    <path id="Path_780" data-name="Path 780" d="M409.5,349.241s7.942,6.808,11.061,22.262,10.068,41.124,10.068,41.124,2.816,11.2-6.808,22.262S407.8,454.6,407.8,454.6l-6.336,9.336a7.949,7.949,0,0,1-4.562,3.225c-2.887.76-7.322,1.31-11.166-.8a6.506,6.506,0,0,1-2.816-8.216l1.408-3.26s-13.046,8.223-14.18,3.682,15.172-9.075,15.172-9.075,13.469-2.267,16.193-8.646c0,0,14.461-18.58,13.328-24.959L400.871,378.46s-17.468-2.309-11.511-21.931S409.5,349.241,409.5,349.241Z" transform="translate(-131.468 -116.402)" fill="#fdc2cc"/>
    <path id="Path_781" data-name="Path 781" d="M307.39,529.278s31.908,6.379,39.427,5.527l.81,2.7s12.11,2.711,39.491-1.633q2.682-.422,5.569-.95l.641-.113s.373-2.028.669-5.485c.655-7.85.887-23.051-4.64-38.61l-4.6-14.18s-28.458,17.059-47.3,15.489c-1.683-.141-3.351-.275-5.034-.331-3.865-.148-9.857,0-13.75-3.119l-8.167,1.408v23.234a27.838,27.838,0,0,1-1.845,9.941c-.176.465-.359.922-.563,1.408A7.393,7.393,0,0,0,307.39,529.278Z" transform="translate(-112.877 -155.205)" fill="#65617d"/>
    <path id="Path_782" data-name="Path 782" d="M364.58,552.461v7.231s13.94,3.119,45.7-2.7c0,0,.373-2.028.669-5.485C401.205,553.073,374.331,556.833,364.58,552.461Z" transform="translate(-129.837 -177.394)" opacity="0.1"/>
    <path id="Path_783" data-name="Path 783" d="M307.391,548.887s31.908,6.379,39.427,5.527l.81,2.7V549.88c-3.633,1.507-29.57-4.745-38.97-7.09-.176.465-.359.922-.563,1.408A7.393,7.393,0,0,0,307.391,548.887Z" transform="translate(-112.878 -174.814)" opacity="0.1"/>
    <path id="Path_784" data-name="Path 784" d="M417.31,538.094l2.366,14.673q2.682-.422,5.569-.95c-.739-4.288-2.352-14.081-1.908-15.708l-2.978-2.549Z" transform="translate(-145.442 -172.082)" fill="#65617d"/>
    <path id="Path_785" data-name="Path 785" d="M417.78,537.644l2.366,14.68q2.682-.429,5.569-.95c-.739-4.288-2.352-14.081-1.908-15.708l-2.978-2.556Z" transform="translate(-145.581 -171.949)" opacity="0.1"/>
    <g id="Group_72" data-name="Group 72" transform="translate(204.419 321.304)" opacity="0.05">
      <path id="Path_786" data-name="Path 786" d="M339.956,497.07c-1.676-.141-3.351-.275-5.034-.331-3.76-.141-9.5,0-13.412-2.88l1.366-.239c3.915,3.1,9.857,2.971,13.75,3.119,1.683.056,3.351.19,5.034.331.549.049,1.112.077,1.683.091a31.571,31.571,0,0,1-3.386-.091Z" transform="translate(-321.51 -481.567)"/>
      <path id="Path_787" data-name="Path 787" d="M406.895,535.859q2.682-.422,5.569-.943l.648-.12s.373-2.028.662-5.485c.662-7.85.894-23.051-4.64-38.61L404.8,477.324c.922-.521,1.408-.824,1.408-.824l4.6,14.18c5.527,15.56,5.294,30.76,4.64,38.61-.3,3.457-.669,5.485-.669,5.485l-.641.12q-2.88.521-5.569.943a175.368,175.368,0,0,1-28.69,2.464A180.943,180.943,0,0,0,406.895,535.859Z" transform="translate(-338.784 -476.5)"/>
      <path id="Path_788" data-name="Path 788" d="M360.615,559.3v.077H359.7Q360.221,559.342,360.615,559.3Z" transform="translate(-332.812 -501.004)"/>
    </g>
    <ellipse id="Ellipse_137" data-name="Ellipse 137" cx="1.204" cy="2.478" rx="1.204" ry="2.478" transform="translate(274.628 363.794)" fill="#d39999"/>
    <path id="Path_789" data-name="Path 789" d="M312.391,458.007c1.943-14.433,5.372-23.009,7.181-26.367.07.458.253,1.943.338,2.4.366,2.112.042,4.773.155,7.456l-1.8,32.64,2.415,10.209c2.267,8.083-6.132,1.7-6.132,1.7-1.739,3.83-4.928,3.408-4.928,3.408l-.436-5.858a50.594,50.594,0,0,1,1.464-16.426,78.287,78.287,0,0,0,1.746-9.16Z" transform="translate(-113.4 -141.92)" fill="#fdc2cc"/>
    <path id="Path_790" data-name="Path 790" d="M312.391,458.007c1.943-14.433,5.372-23.009,7.181-26.367.07.458.253,1.943.338,2.4.366,2.112.042,4.773.155,7.456l-1.8,32.64,2.415,10.209c2.267,8.083-6.132,1.7-6.132,1.7-1.739,3.83-4.928,3.408-4.928,3.408l-.436-5.858a50.594,50.594,0,0,1,1.464-16.426,78.287,78.287,0,0,0,1.746-9.16Z" transform="translate(-113.4 -141.92)" opacity="0.05"/>
    <path id="Path_791" data-name="Path 791" d="M411.735,488.021c-1.528,1.978-2.366,3.112-2.366,3.112l-6.336,9.329a7.914,7.914,0,0,1-4.562,3.225c-2.887.76-7.322,1.317-11.166-.8a6.491,6.491,0,0,1-2.816-8.209l1.408-3.267s-13.046,8.223-14.18,3.689,15.172-9.075,15.172-9.075,13.469-2.267,16.193-8.653c0,0,1.176-1.507,2.816-3.816" transform="translate(-131.932 -154.326)" fill="#fdc2cc"/>
    <path id="Path_792" data-name="Path 792" d="M407.831,511.971s-15.426-1.5-20.312-10.321l-2.239,7.287s16.193,11.18,19.89,9.73Z" transform="translate(-135.963 -162.639)" fill="#65617d"/>
    <path id="Path_793" data-name="Path 793" d="M407.054,511.869s-15.419-1.5-20.312-10.328l-2.232,7.266s16.193,11.18,19.883,9.73Z" transform="translate(-135.735 -162.606)" opacity="0.1"/>
    <path id="Path_794" data-name="Path 794" d="M314.863,510.46s-5.4,1.915-6.463.852l2.429,4.471,4.59-3.52Z" transform="translate(-113.211 -165.246)" fill="#65617d"/>
    <path id="Path_795" data-name="Path 795" d="M314.863,510.46s-5.4,1.915-6.463.852l2.429,4.471,4.59-3.52Z" transform="translate(-113.211 -165.246)" opacity="0.1"/>
    <path id="Path_796" data-name="Path 796" d="M332.488,528.8V519.47l-2.218,9.554Z" transform="translate(-97.745 -153.733)" opacity="0.1"/>
    <path id="Path_797" data-name="Path 797" d="M375.167,270.568a8.285,8.285,0,0,1-5.787,3.049,45.611,45.611,0,0,1-6.724,0c-3.52-.056-7.266.486-10.145,2.556a25.8,25.8,0,0,0-4.654,4.928c-4.351,5.316-10.392,10.293-17.249,9.737a4.471,4.471,0,0,1-3.2-1.352,5.14,5.14,0,0,1-.816-2.915A66.636,66.636,0,0,1,327,273.434a27.7,27.7,0,0,1,1.985-7.836,26.752,26.752,0,0,1,4.774-6.815,29.2,29.2,0,0,1,8.329-6.674,14.94,14.94,0,0,1,10.42-1.345c4.1,1.119,7.3,4.33,11.216,5.984C368.2,258.628,380.067,263.647,375.167,270.568Z" transform="translate(-118.549 -88.273)" opacity="0.1"/>
    <path id="Path_798" data-name="Path 798" d="M375.167,269.355a8.285,8.285,0,0,1-5.787,3.049,45.6,45.6,0,0,1-6.724,0c-3.52-.063-7.266.479-10.145,2.549a25.793,25.793,0,0,0-4.654,4.928c-4.351,5.316-10.392,10.293-17.249,9.737a4.443,4.443,0,0,1-3.2-1.352,5.118,5.118,0,0,1-.817-2.915A66.632,66.632,0,0,1,327,272.214a27.7,27.7,0,0,1,1.985-7.836,26.572,26.572,0,0,1,4.773-6.808,29.1,29.1,0,0,1,8.329-6.681,14.94,14.94,0,0,1,10.42-1.345c4.1,1.119,7.3,4.33,11.216,5.984C368.2,257.415,380.067,262.42,375.167,269.355Z" transform="translate(-118.549 -87.912)" fill="#865a61"/>
    <path id="Path_799" data-name="Path 799" d="M292.034,473.47l-.056,2.57-.577-2.457Z" transform="translate(-86.242 -140.119)" fill="#fdc2cc"/>
    <path id="Path_800" data-name="Path 800" d="M292.034,473.47l-.056,2.57-.577-2.457Z" transform="translate(-86.242 -140.119)" opacity="0.05"/>
    <g id="Group_73" data-name="Group 73" transform="translate(256.289 229.615)" opacity="0.05">
      <path id="Path_801" data-name="Path 801" d="M398.983,355.437c-5.963,19.622,11.42,21.924,11.42,21.924L424.371,414.8c1.134,6.379-13.335,24.959-13.335,24.959-1.007,2.38-3.52,4.189-6.266,5.527a9.815,9.815,0,0,0,3.717-4.083s14.461-18.573,13.328-24.952L407.847,378.8s-17.376-2.3-11.42-21.924c1.992-6.555,4.928-9.54,7.9-10.61C402.278,347.917,400.4,350.769,398.983,355.437Z" transform="translate(-395.184 -346.27)"/>
    </g>
    <g id="Group_74" data-name="Group 74" transform="translate(198.13 222.969)" opacity="0.1">
      <path id="Path_802" data-name="Path 802" d="M401,384.61a14.672,14.672,0,0,0,2.816,2.668,16,16,0,0,0,6.646,2.816v.739a15.954,15.954,0,0,1-6.027-2.668A14.608,14.608,0,0,1,401,384.61Z" transform="translate(-338.746 -350.97)"/>
      <path id="Path_803" data-name="Path 803" d="M323.224,421.885v.246a90.92,90.92,0,0,0,1.211,9.977c2.112,12.138-.655,36.238-1.049,39.568-.225-.148-.451-.289-.7-.451.106-.8,3.351-27.085,1.1-39.941a89.212,89.212,0,0,1-1.176-9.941V421.1a10.864,10.864,0,0,0-1.894-5.386A10.948,10.948,0,0,1,323.224,421.885Z" transform="translate(-314.984 -360.174)"/>
      <path id="Path_804" data-name="Path 804" d="M333.778,337.795l-6.886-.134a.035.035,0,0,0-.035,0l-8.8,19.9a54.854,54.854,0,0,0-3.52,10.723c-2.563,12.039-.951,18.038,1.007,21-2.2-2.6-4.478-8.519-1.64-21.826a54.273,54.273,0,0,1,3.485-10.73l8.864-19.9h0l8.118.162v.049C334.306,337.126,334.088,337.393,333.778,337.795Z" transform="translate(-312.577 -336.83)"/>
      <path id="Path_805" data-name="Path 805" d="M416.39,345.87l.12.035Z" transform="translate(-343.3 -339.505)"/>
      <path id="Path_806" data-name="Path 806" d="M387.837,344.479l-6.9-2.077H380.9c-.408.451-10.385,11.511-17.883,20.467-6.7,8.005-18.453,7.379-21.284,7.1-.514-.056-1.035-.1-1.549-.134-7.7-.493-10.723-1.408-11.737-3.351,1.443,1.408,4.619,2.112,11.1,2.506.521,0,1.035.077,1.549.127,2.816.282,14.581.908,21.284-7.09,7.5-8.963,17.482-20.023,17.89-20.474h0l10.04,3.042a6.273,6.273,0,0,0-2.471-.113Z" transform="translate(-317.275 -338.227)"/>
    </g>
    <path id="Path_807" data-name="Path 807" d="M291.9,776.994s-9.716,2.654-11.6-1.514" transform="translate(-104.895 -243.677)" opacity="0.1"/>
    <path id="Path_808" data-name="Path 808" d="M378.55,774.131s-11.265,2.908-13.87-1.591" transform="translate(-129.867 -242.807)" opacity="0.1"/>
    <path id="Path_809" data-name="Path 809" d="M583.091,757.546c.162-1.408.394-2.816.648-4.224a29.443,29.443,0,0,0-1.408-14.278h0c-.26-.739-.451-1.155-.451-1.155-4.485-1.225-22.164,12.49-28.606,17.658-2.232,0-4.654.1-7.3.275-1.155.084-2.309.113-3.464.091h-4.224c-5.977-4.816-24.48-19.3-29.085-18.045,0,0-.19.415-.451,1.155h0a28.93,28.93,0,0,0-1.443,14.278c.253,1.408.486,2.816.648,4.224.345,3.091,1.64,9.026,6.337,13.032,1.007,7.322,4.774,16.947,7.674,22.79a16.322,16.322,0,0,0,.986,3.218c-1.2,4.619-2.577,10.645-2.183,12.673,0,0-6.252-1.514-6.886,6.013v.232c-2.26,1.035-5.083,3.408-1.908,8.378a3.259,3.259,0,0,0,1.633,1.331c.563.2,1.113.2,1.056-.591l3.908,4.4s7.083.817,7.167-3.3l.415.063c.95.141,1.943.26,2.964.366l.493,1.626s-5.316-.113-3.865,3.161c0,0,1.338,1.239,1.8.789,0,0-.7,2.147,2.07,2.147,0,0,2.978,1.577,4.14.451s3.57-2.816,3.795-3.52c.063-.19.092-1.859.106-4.168h.458c5.935.141,12.237-.049,17.968-.359h.465c0,2.5.035,4.344.1,4.541.232.7,2.647,2.373,3.8,3.52s4.133-.451,4.133-.451c2.76,0,2.07-2.147,2.07-2.147.465.451,1.8-.789,1.8-.789,1.45-3.274-3.872-3.161-3.872-3.161l.634-2.112,2.936-.246.465-.042c-.282,4.471,7.16,3.612,7.16,3.612l3.914-4.4c-.063.789.486.789,1.049.591a3.231,3.231,0,0,0,1.584-1.345c4.795-7.5-4.062-9.089-4.062-9.089a4.343,4.343,0,0,0-.838-.134,1.447,1.447,0,0,1,.035-.387h0a15.45,15.45,0,0,0,.056-2.971c-.331-1.359-2.513-3.52-5.273-3.837-1.8-.225-1.838-8.505-1.655-14.243a16.372,16.372,0,0,0,.282-3.267,17.234,17.234,0,0,0-.7-5.231c3.52-5.97,6.336-12.229,6.653-14.081C581.45,766.551,582.746,760.637,583.091,757.546Z" transform="translate(-171.968 -232.523)" fill="url(#linear-gradient-5)"/>
    <path id="Path_810" data-name="Path 810" d="M579.632,836.042h0c-.282,3.9-1.035,10.159-1.035,10.159s-3.133.38-7.977.817l-3.288.282c-2.521.2-5.351.4-8.343.57-5.527.3-11.6.493-17.32.352-2.858-.063-5.632-.211-8.2-.465-1.148-.113-2.26-.246-3.316-.4-6.562-.979-11.265-2.851-11.666-6.139a19.008,19.008,0,0,1-.148-4.224c.613-7.393,6.632-5.9,6.632-5.9-.387-2.042,1.07-8.385,2.253-12.976.746-2.894,1.408-5.09,1.408-5.09l42.328-2.816h.141a2.07,2.07,0,0,1,2.07,2.176c-.253,5.076-.612,16.7,1.464,16.961,2.661.331,4.767,2.436,5.09,3.767A15.8,15.8,0,0,1,579.632,836.042Z" transform="translate(-175.324 -253.955)" fill="#6c63ff"/>
    <path id="Path_811" data-name="Path 811" d="M540.893,759.652s-15.961,19.214-23.649,13.891c-.183-.127-.359-.254-.528-.387-5.168-3.915-6.527-10.223-6.886-13.426-.155-1.408-.38-2.767-.627-4.14a28.748,28.748,0,0,1,1.408-14.018h0c.253-.7.43-1.133.43-1.133C516.357,738.96,540.893,759.652,540.893,759.652Z" transform="translate(-172.534 -233.284)" fill="#6c63ff"/>
    <path id="Path_812" data-name="Path 812" d="M532.3,761.934s-5.027,3.52-12.117,9.308a25.6,25.6,0,0,1-3.52,2.422c-5.168-3.915-6.527-10.223-6.886-13.426-.155-1.408-.38-2.767-.627-4.14a28.747,28.747,0,0,1,1.408-14.018h0C520.5,742.77,532.3,761.934,532.3,761.934Z" transform="translate(-172.52 -233.792)" fill="#6c63ff"/>
    <path id="Path_813" data-name="Path 813" d="M532.3,761.934s-5.027,3.52-12.117,9.308a25.6,25.6,0,0,1-3.52,2.422c-5.168-3.915-6.527-10.223-6.886-13.426-.155-1.408-.38-2.767-.627-4.14a28.747,28.747,0,0,1,1.408-14.018h0C520.5,742.77,532.3,761.934,532.3,761.934Z" transform="translate(-172.52 -233.792)" fill="#fff" opacity="0.5"/>
    <path id="Path_814" data-name="Path 814" d="M529.159,763.136s-2.682,1.894-6.47,4.971a13.633,13.633,0,0,1-1.859,1.289,10.364,10.364,0,0,1-3.675-7.16c-.077-.746-.2-1.478-.331-2.218a15.391,15.391,0,0,1,.781-7.477h0C522.865,752.906,529.159,763.136,529.159,763.136Z" transform="translate(-174.847 -236.888)" opacity="0.1"/>
    <path id="Path_815" data-name="Path 815" d="M569.05,759.652s15.961,19.214,23.649,13.891c.176-.127.359-.254.528-.387,5.168-3.915,6.527-10.223,6.886-13.426.155-1.408.38-2.767.62-4.14a28.661,28.661,0,0,0-1.408-14.018h0c-.253-.7-.436-1.133-.436-1.133C593.586,738.96,569.05,759.652,569.05,759.652Z" transform="translate(-190.349 -233.284)" fill="#6c63ff"/>
    <path id="Path_816" data-name="Path 816" d="M581.22,761.934s5.034,3.52,12.124,9.308a25.6,25.6,0,0,0,3.485,2.422c5.168-3.915,6.527-10.223,6.886-13.426.155-1.408.38-2.767.62-4.14a28.663,28.663,0,0,0-1.408-14.018h0C593.034,742.77,581.22,761.934,581.22,761.934Z" transform="translate(-193.95 -233.792)" fill="#6c63ff"/>
    <path id="Path_817" data-name="Path 817" d="M581.22,761.934s5.034,3.52,12.124,9.308a25.6,25.6,0,0,0,3.485,2.422c5.168-3.915,6.527-10.223,6.886-13.426.155-1.408.38-2.767.62-4.14a28.663,28.663,0,0,0-1.408-14.018h0C593.034,742.77,581.22,761.934,581.22,761.934Z" transform="translate(-193.95 -233.792)" fill="#fff" opacity="0.5"/>
    <path id="Path_818" data-name="Path 818" d="M589.05,763.137s2.668,1.887,6.428,4.928a12.882,12.882,0,0,0,1.852,1.281,10.4,10.4,0,0,0,3.654-7.118c.077-.7.2-1.472.331-2.2a15.419,15.419,0,0,0-.739-7.435h0C595.309,752.97,589.05,763.137,589.05,763.137Z" transform="translate(-196.268 -236.903)" opacity="0.1"/>
    <path id="Path_819" data-name="Path 819" d="M574.694,810.23a38.239,38.239,0,0,1-6.111,7.787c-6.337,5.632-33.7,3.394-35.47,3.1-.373-.063-1.148-1.169-2.112-2.964.746-2.894,1.408-5.09,1.408-5.09Z" transform="translate(-179.088 -253.961)" opacity="0.1"/>
    <path id="Path_820" data-name="Path 820" d="M549.359,765.354c-1.112.077-2.225.106-3.344.085-5.71-.1-24.945.155-27.078,7.921-2.513,9.153,8.723,33.661,10.49,33.957s29.12,2.513,35.477-3.1,14.63-23.234,14.187-24.832C579.091,779.378,586.977,762.749,549.359,765.354Z" transform="translate(-175.41 -240.598)" fill="#6c63ff"/>
    <path id="Path_821" data-name="Path 821" d="M552.017,786.5s-14.081-2.169-20.685,11.687a16.9,16.9,0,0,0,1.246,17.031c2.2,3.091,5.421,5.393,9.906,3.52C552.454,814.632,552.017,786.5,552.017,786.5Z" transform="translate(-178.674 -246.901)" opacity="0.1"/>
    <path id="Path_822" data-name="Path 822" d="M551.387,785.238s-14.081-2.168-20.685,11.687a16.9,16.9,0,0,0,1.246,17.031c2.2,3.091,5.421,5.393,9.906,3.52C551.824,813.372,551.387,785.238,551.387,785.238Z" transform="translate(-178.488 -246.528)" opacity="0.1"/>
    <path id="Path_823" data-name="Path 823" d="M551.387,785.868S537.306,783.7,530.7,797.555a16.9,16.9,0,0,0,1.246,17.031c2.2,3.091,5.421,5.393,9.906,3.52C551.824,814,551.387,785.868,551.387,785.868Z" transform="translate(-178.488 -246.715)" fill="#6c63ff"/>
    <path id="Path_824" data-name="Path 824" d="M551.387,785.868S537.306,783.7,530.7,797.555a16.9,16.9,0,0,0,1.246,17.031c2.2,3.091,5.421,5.393,9.906,3.52C551.824,814,551.387,785.868,551.387,785.868Z" transform="translate(-178.488 -246.715)" fill="#fff" opacity="0.5"/>
    <path id="Path_825" data-name="Path 825" d="M538.672,803.13s-1.922,1.774-1.183,2.218S538.672,803.13,538.672,803.13Z" transform="translate(-180.958 -251.86)" fill="#3f2b3b"/>
    <path id="Path_826" data-name="Path 826" d="M541.94,806.35s-1.049,2.316-.3,2.57,1.19-1.662,1.19-1.662Z" transform="translate(-182.157 -252.813)" fill="#3f2b3b"/>
    <path id="Path_827" data-name="Path 827" d="M535.4,811.32s-1.028,2.732,0,2.732S535.4,811.32,535.4,811.32Z" transform="translate(-180.255 -254.283)" fill="#3f2b3b"/>
    <path id="Path_828" data-name="Path 828" d="M533.78,821.71s2.056,5.252,7.407,4.879" transform="translate(-179.911 -257.358)" fill="none" stroke="#3f2b3b" stroke-miterlimit="10" stroke-width="1"/>
    <path id="Path_829" data-name="Path 829" d="M540.61,823.91s2.112,2.07,4.429.591" transform="translate(-181.932 -258.009)" fill="none" stroke="#3f2b3b" stroke-miterlimit="10" stroke-width="1"/>
    <path id="Path_830" data-name="Path 830" d="M564,786.5s14.081-2.169,20.685,11.687a16.9,16.9,0,0,1-1.246,17.031c-2.19,3.091-5.421,5.393-9.906,3.52C563.534,814.632,564,786.5,564,786.5Z" transform="translate(-188.853 -246.901)" opacity="0.1"/>
    <path id="Path_831" data-name="Path 831" d="M564.589,785.238s14.081-2.168,20.685,11.687a16.9,16.9,0,0,1-1.246,17.031c-2.189,3.091-5.421,5.393-9.906,3.52C564.174,813.372,564.589,785.238,564.589,785.238Z" transform="translate(-189.028 -246.528)" opacity="0.1"/>
    <path id="Path_832" data-name="Path 832" d="M564.589,785.868s14.081-2.168,20.685,11.687a16.9,16.9,0,0,1-1.246,17.031c-2.189,3.091-5.421,5.393-9.906,3.52C564.174,814,564.589,785.868,564.589,785.868Z" transform="translate(-189.028 -246.715)" fill="#6c63ff"/>
    <path id="Path_833" data-name="Path 833" d="M564.589,785.868s14.081-2.168,20.685,11.687a16.9,16.9,0,0,1-1.246,17.031c-2.189,3.091-5.421,5.393-9.906,3.52C564.174,814,564.589,785.868,564.589,785.868Z" transform="translate(-189.028 -246.715)" fill="#fff" opacity="0.5"/>
    <path id="Path_834" data-name="Path 834" d="M586.16,803.13s1.922,1.774,1.183,2.218S586.16,803.13,586.16,803.13Z" transform="translate(-195.412 -251.86)" fill="#3f2b3b"/>
    <path id="Path_835" data-name="Path 835" d="M582.847,806.35s1.049,2.316.3,2.57-1.19-1.662-1.19-1.662Z" transform="translate(-194.169 -252.813)" fill="#3f2b3b"/>
    <path id="Path_836" data-name="Path 836" d="M589.629,811.32s1.021,2.732,0,2.732S589.629,811.32,589.629,811.32Z" transform="translate(-196.305 -254.283)" fill="#3f2b3b"/>
    <path id="Path_837" data-name="Path 837" d="M588.507,821.71s-2.056,5.252-7.407,4.879" transform="translate(-193.915 -257.358)" fill="none" stroke="#3f2b3b" stroke-miterlimit="10" stroke-width="1"/>
    <path id="Path_838" data-name="Path 838" d="M582.936,823.91s-2.112,2.07-4.436.591" transform="translate(-193.146 -258.009)" fill="none" stroke="#3f2b3b" stroke-miterlimit="10" stroke-width="1"/>
    <path id="Path_839" data-name="Path 839" d="M553.2,842.323c.373-.07,7.393-3.1,14.63,0Z" transform="translate(-185.658 -263.046)" fill="#3f2b3b"/>
    <path id="Path_840" data-name="Path 840" d="M530.151,858.2c-6.562-.979-11.265-2.852-11.666-6.139a19.01,19.01,0,0,1-.148-4.224,9.476,9.476,0,0,1,2.506-.915c1.19-.331,2.661-.106,5.766.781s2.88,4.541,3.52,9.308a3.936,3.936,0,0,1,.021,1.19Z" transform="translate(-175.324 -264.776)" opacity="0.1"/>
    <path id="Path_841" data-name="Path 841" d="M519.068,847.571s-8.533,1.563-3.914,8.927a3.147,3.147,0,0,0,1.577,1.3c.542.19,1.063.19,1.007-.584l3.774,4.323s7.533.887,6.871-3.879-.443-8.449-3.52-9.308S520.272,847.24,519.068,847.571Z" transform="translate(-173.993 -264.97)" fill="#6c63ff"/>
    <path id="Path_842" data-name="Path 842" d="M524.18,854.67s1.809,4.133,4.323.662" transform="translate(-177.07 -267.112)" fill="none" stroke="#3f2b3b" stroke-miterlimit="10" stroke-width="1"/>
    <path id="Path_843" data-name="Path 843" d="M518.28,857s.936,3.915,4.485,1" transform="translate(-175.324 -267.802)" fill="none" stroke="#3f2b3b" stroke-miterlimit="10" stroke-width="1"/>
    <path id="Path_844" data-name="Path 844" d="M601.623,846.87h0c-.282,3.9-1.035,10.16-1.035,10.16s-3.133.38-7.977.817a4.086,4.086,0,0,1,0-.817c.662-4.766.444-8.449,3.52-9.308C599.018,846.941,600.49,846.652,601.623,846.87Z" transform="translate(-197.316 -264.783)" opacity="0.1"/>
    <path id="Path_845" data-name="Path 845" d="M602.59,847.571s8.54,1.563,3.922,8.927a3.176,3.176,0,0,1-1.577,1.3c-.542.19-1.07.19-1.014-.584l-3.767,4.323s-7.54.887-6.872-3.879.444-8.449,3.52-9.308S601.407,847.24,602.59,847.571Z" transform="translate(-197.508 -264.97)" fill="#6c63ff"/>
    <path id="Path_846" data-name="Path 846" d="M601.823,854.67s-1.816,4.133-4.323.662" transform="translate(-198.768 -267.112)" fill="none" stroke="#3f2b3b" stroke-miterlimit="10" stroke-width="1"/>
    <path id="Path_847" data-name="Path 847" d="M607.652,857s-.943,3.915-4.492,1" transform="translate(-200.443 -267.802)" fill="none" stroke="#3f2b3b" stroke-miterlimit="10" stroke-width="1"/>
    <path id="Path_848" data-name="Path 848" d="M546.88,857.5c-2.859-.063-5.633-.211-8.2-.465l-2.556-8.6a5.579,5.579,0,0,1-.232-1.57,5.478,5.478,0,0,1,10.948-.035C546.866,850.178,546.894,854.424,546.88,857.5Z" transform="translate(-180.535 -263.234)" opacity="0.1"/>
    <path id="Path_849" data-name="Path 849" d="M535.189,848.355l3.013,10.152s-5.125-.113-3.724,3.1c0,0,1.288,1.218,1.732.774,0,0-.669,2.112,1.992,2.112,0,0,2.873,1.556,3.985.444s3.443-2.774,3.668-3.436c.141-.437.1-8.927.049-14.785a5.464,5.464,0,0,0-5.471-5.421h0a5.47,5.47,0,0,0-5.245,7.055Z" transform="translate(-180.046 -263.156)" fill="#6c63ff"/>
    <path id="Path_850" data-name="Path 850" d="M540.781,869.47s-2.239,2.112-1.056,3.358" transform="translate(-181.568 -271.493)" fill="none" stroke="#3f2b3b" stroke-miterlimit="10" stroke-width="1"/>
    <path id="Path_851" data-name="Path 851" d="M539.13,867.56s-2.07.7-2.07,2.6" transform="translate(-180.882 -270.927)" fill="none" stroke="#3f2b3b" stroke-miterlimit="10" stroke-width="1"/>
    <path id="Path_852" data-name="Path 852" d="M587.105,846.783a5.572,5.572,0,0,1-.225,1.57l-2.387,8.146c-2.52.2-5.351.4-8.343.57,0-3.042,0-7.09.049-10.322a5.471,5.471,0,0,1,10.941.035Z" transform="translate(-192.45 -263.154)" opacity="0.1"/>
    <path id="Path_853" data-name="Path 853" d="M587.479,848.355l-3.013,10.152s5.133-.113,3.732,3.1c0,0-1.288,1.218-1.732.774,0,0,.662,2.112-2,2.112,0,0-2.873,1.556-3.985.444s-3.436-2.774-3.661-3.436c-.141-.437-.1-8.927-.049-14.785a5.463,5.463,0,0,1,5.471-5.421h0a5.471,5.471,0,0,1,5.238,7.055Z" transform="translate(-192.62 -263.156)" fill="#6c63ff"/>
    <path id="Path_854" data-name="Path 854" d="M586.23,869.47s2.239,2.112,1.056,3.358" transform="translate(-195.433 -271.493)" fill="none" stroke="#3f2b3b" stroke-miterlimit="10" stroke-width="1"/>
    <path id="Path_855" data-name="Path 855" d="M587.63,867.56s2.07.7,2.07,2.6" transform="translate(-195.848 -270.927)" fill="none" stroke="#3f2b3b" stroke-miterlimit="10" stroke-width="1"/>
    <path id="Path_856" data-name="Path 856" d="M556.3,782.769s-10.427-.331-10.758,7.745,16.292,4.654,16.292,4.654,6.984-.937,5.766-5.844S563.836,783.213,556.3,782.769Z" transform="translate(-183.389 -245.833)" opacity="0.1"/>
    <path id="Path_857" data-name="Path 857" d="M556.3,781.509s-10.427-.331-10.758,7.745,16.292,4.654,16.292,4.654,6.984-.936,5.766-5.844S563.836,781.953,556.3,781.509Z" transform="translate(-183.389 -245.461)" opacity="0.1"/>
    <path id="Path_858" data-name="Path 858" d="M556.3,782.139s-10.427-.331-10.758,7.745,16.292,4.654,16.292,4.654,6.984-.936,5.766-5.844S563.836,782.583,556.3,782.139Z" transform="translate(-183.389 -245.647)" fill="#3f2b3b"/>
    <path id="Path_859" data-name="Path 859" d="M527.78,839.92s3.52,1.253,4.224,3.654" transform="translate(-178.135 -262.747)" opacity="0.1"/>
    <path id="Path_860" data-name="Path 860" d="M597.3,837.4s-2.5,1.049-2.323,5.428" transform="translate(-198.019 -262.002)" opacity="0.1"/>
    <ellipse id="Ellipse_138" data-name="Ellipse 138" cx="1.632" cy="2.706" rx="1.632" ry="2.706" transform="translate(348.363 593.943) rotate(-29.887)" fill="#6c63ff"/>
    <ellipse id="Ellipse_139" data-name="Ellipse 139" cx="2.697" cy="1.626" rx="2.697" ry="1.626" transform="translate(397.916 594.579) rotate(-60)" fill="#6c63ff"/>
    <ellipse id="Ellipse_140" data-name="Ellipse 140" cx="1.632" cy="2.706" rx="1.632" ry="2.706" transform="translate(348.363 593.943) rotate(-29.887)" fill="#fff" opacity="0.5"/>
    <ellipse id="Ellipse_141" data-name="Ellipse 141" cx="2.697" cy="1.626" rx="2.697" ry="1.626" transform="translate(397.916 594.579) rotate(-60)" fill="#fff" opacity="0.5"/>
    <ellipse id="Ellipse_142" data-name="Ellipse 142" cx="18.96" cy="3.203" rx="18.96" ry="3.203" transform="translate(116.637 500.944)" fill="#6c63ff" opacity="0.1"/>
    <ellipse id="Ellipse_143" data-name="Ellipse 143" cx="18.96" cy="3.203" rx="18.96" ry="3.203" transform="translate(41.944 546.377)" fill="#6c63ff" opacity="0.1"/>
    <ellipse id="Ellipse_144" data-name="Ellipse 144" cx="28.31" cy="4.788" rx="28.31" ry="4.788" transform="translate(12.852 504.148)" fill="#6c63ff"/>
    <path id="Path_861" data-name="Path 861" d="M71.827,726.4a8.189,8.189,0,0,1-2.7-4.069,3.629,3.629,0,0,1,1.887-4.147c1.732-.662,3.584.535,4.985,1.746s3.013,2.6,4.851,2.345a7.386,7.386,0,0,1-2.281-6.914,2.817,2.817,0,0,1,.634-1.408c.958-1.028,2.7-.584,3.858.225,3.654,2.577,4.682,7.547,4.7,12.025a22.178,22.178,0,0,0,.07-4.928c.007-1.633.465-3.52,1.859-4.379a5.633,5.633,0,0,1,2.816-.7c1.647-.056,3.478.106,4.6,1.31,1.408,1.493,1.035,4.006-.183,5.632s-3.063,2.675-4.759,3.816a10.5,10.5,0,0,0-3.408,3.246,3.315,3.315,0,0,0-.253.577H78.213a28.475,28.475,0,0,1-6.386-4.372Z" transform="translate(-42.373 -225.29)" fill="#6c63ff"/>
    <ellipse id="Ellipse_145" data-name="Ellipse 145" cx="18.96" cy="3.203" rx="18.96" ry="3.203" transform="translate(706.094 527.741)" fill="#6c63ff" opacity="0.1"/>
    <path id="Path_862" data-name="Path 862" d="M1042.91,750.654s10.814-.331,14.081-2.654,16.63-5.09,17.439-1.366,16.257,18.51,4.041,18.608-28.366-1.9-31.619-3.886S1042.91,750.654,1042.91,750.654Z" transform="translate(-330.585 -234.601)" fill="#a8a8a8"/>
    <path id="Path_863" data-name="Path 863" d="M1078.683,766.407c-12.208.1-28.366-1.9-31.619-3.886-2.478-1.507-3.464-6.921-3.795-9.42h-.359s.7,8.723,3.936,10.7,19.411,3.985,31.619,3.886c3.52,0,4.745-1.281,4.675-3.14C1082.654,765.7,1081.309,766.407,1078.683,766.407Z" transform="translate(-330.585 -237.054)" opacity="0.2"/>
  </g>
</svg>
