<svg xmlns="http://www.w3.org/2000/svg" viewBox="0 0 453.19 403.4"><defs><style>.cls-1{isolation:isolate;}.cls-2{fill:#f0f0f0;}.cls-3{fill:#e0e0e0;}.cls-4{fill:#27debf;}.cls-5{opacity:0.1;}.cls-6{fill:none;stroke:#fafafa;stroke-linecap:round;stroke-miterlimit:10;}.cls-7{fill:#455a64;}.cls-8{fill:#37474f;}.cls-9{fill:#263238;}.cls-10,.cls-12,.cls-19{opacity:0.2;}.cls-10{mix-blend-mode:multiply;}.cls-11,.cls-13{opacity:0.3;}.cls-12,.cls-13,.cls-16{fill:#fff;}.cls-14{fill:#ebebeb;}.cls-15{opacity:0.5;}.cls-16{opacity:0.6;}.cls-17{fill:#f28f8f;}.cls-18{fill:#ffa8a7;}</style></defs><title>Asset 1</title><g class="cls-1"><g id="Layer_2" data-name="Layer 2"><g id="Cloud"><g id="_Group_" data-name="&lt;Group&gt;"><path id="_Path_" data-name="&lt;Path&gt;" class="cls-2" d="M66.37,368.73c88.49,46.23,232,46.23,320.45,0s88.49-121.18,0-167.41-232-46.23-320.45,0S-22.12,322.5,66.37,368.73Z"/></g><path id="_Path_2" data-name="&lt;Path&gt;" class="cls-3" d="M186,370.31l-122-71c-2.18-1.27-2.18-3.33,0-4.6L282.48,167.62a8.69,8.69,0,0,1,7.91,0l122,71c2.19,1.27,2.19,3.33,0,4.6L193.89,370.31A8.69,8.69,0,0,1,186,370.31Z"/><path id="_Path_3" data-name="&lt;Path&gt;" class="cls-3" d="M51.82,339.83c14.2,6.77,37.22,6.77,51.42,0s14.2-17.74,0-24.51-37.22-6.77-51.42,0S37.62,333.06,51.82,339.83Z"/><g id="_Group_2" data-name="&lt;Group&gt;"><g id="_Group_3" data-name="&lt;Group&gt;"><path id="_Path_4" data-name="&lt;Path&gt;" class="cls-4" d="M362.89,203.24c1.88-6.25,5.49-25.12,2-38.65-2.7-10.41-9.36-19-17-21.4s-11.9,7.26-7,13.76c12.44,16.6,17.71,30.49,14.92,42.21Z"/><path id="_Path_5" data-name="&lt;Path&gt;" class="cls-5" d="M362.89,203.24c1.88-6.25,5.49-25.12,2-38.65-2.7-10.41-9.36-19-17-21.4s-11.9,7.26-7,13.76c12.44,16.6,17.71,30.49,14.92,42.21Z"/><path id="_Path_6" data-name="&lt;Path&gt;" class="cls-6" d="M347.84,148.47C352,152.1,367,172.3,360.38,201.81"/></g><g id="_Group_4" data-name="&lt;Group&gt;"><path id="_Path_7" data-name="&lt;Path&gt;" class="cls-4" d="M390.09,216.16c4-.47,9-1.73,11.39-6.58s-4.71-9-4.57-13,4.22-5.88,8.57-7.53,8.61-7.5,5-11.66-7.37-9.4-3.6-14.55,10.38-10.14,4.28-13.23c-7.65-3.87-15.47,5.14-21.07,8.38s-12.57-1.71-17.69,3.65,4.55,12.25-1.52,17.83-14.4,6.74-10.8,19Z"/><path id="_Path_8" data-name="&lt;Path&gt;" class="cls-6" d="M407.32,152.18c-5.37,2.57-29,28.64-32.83,54.54"/><path id="_Path_9" data-name="&lt;Path&gt;" class="cls-6" d="M379.38,164.65s5.93,6.39,7.31,11.54"/><path id="_Path_10" data-name="&lt;Path&gt;" class="cls-6" d="M404,181.27c-5-.69-16.94-1-21.85,3"/></g></g><g id="_Group_5" data-name="&lt;Group&gt;"><g id="_Group_6" data-name="&lt;Group&gt;"><polygon id="_Path_11" data-name="&lt;Path&gt;" class="cls-7" points="234.05 330.95 187.43 343.52 77.25 279.91 123.88 267.35 234.05 330.95"/><polygon id="_Path_12" data-name="&lt;Path&gt;" class="cls-7" points="241.65 335.34 184.66 350.7 59.28 278.32 116.27 262.96 123.88 267.35 77.25 279.91 187.43 343.52 234.05 330.95 241.65 335.34"/></g><g id="_Group_7" data-name="&lt;Group&gt;"><polygon id="_Path_13" data-name="&lt;Path&gt;" class="cls-8" points="287.24 282.7 234.05 330.95 123.88 267.35 177.06 219.09 287.24 282.7"/><polygon id="_Path_14" data-name="&lt;Path&gt;" class="cls-8" points="294.84 287.09 241.65 335.34 234.05 330.95 287.24 282.7 294.84 287.09"/><polygon id="_Path_15" data-name="&lt;Path&gt;" class="cls-8" points="177.06 219.09 123.88 267.35 116.27 262.96 169.46 214.71 177.06 219.09"/></g><g id="_Group_8" data-name="&lt;Group&gt;"><polygon id="_Path_16" data-name="&lt;Path&gt;" class="cls-8" points="395.21 222.21 344.23 267.35 234.05 203.74 285.03 158.6 395.21 222.21"/><polygon id="_Path_17" data-name="&lt;Path&gt;" class="cls-8" points="408.81 221.28 351.82 271.73 344.23 267.35 395.21 222.21 285.03 158.6 234.05 203.74 226.45 199.35 283.43 148.9 408.81 221.28"/></g><g id="_Group_9" data-name="&lt;Group&gt;"><polygon id="_Path_18" data-name="&lt;Path&gt;" class="cls-7" points="344.23 267.35 287.24 282.7 177.06 219.09 234.05 203.74 344.23 267.35"/><polygon id="_Path_19" data-name="&lt;Path&gt;" class="cls-7" points="234.05 203.74 177.06 219.09 169.46 214.71 226.45 199.35 234.05 203.74"/><polygon id="_Path_20" data-name="&lt;Path&gt;" class="cls-7" points="351.82 271.73 294.84 287.09 287.24 282.7 344.23 267.35 351.82 271.73"/></g><g id="_Group_10" data-name="&lt;Group&gt;"><polygon id="_Path_21" data-name="&lt;Path&gt;" class="cls-9" points="285.04 158.6 275.84 166.74 279.64 190.58 325.34 181.87 285.04 158.6"/><path id="_Path_22" data-name="&lt;Path&gt;" class="cls-9" d="M361.16,202.55c-4.55,7.71-11.43,13.39-18.55,17.4l-20.1-31.74,10.32-2Z"/><path id="_Path_23" data-name="&lt;Path&gt;" class="cls-9" d="M336.08,223.16c-7.37,3.15-14.32,4.59-18.45,4.7a50.91,50.91,0,0,1-7-.27l-7.32-35.65,11.7-2.28Z"/><path id="_Path_24" data-name="&lt;Path&gt;" class="cls-9" d="M303.16,226.22c-9.57-2.53-15.78-7.34-19.34-9.68l-3.25-20.16,16.17-3.15Z"/><path id="_Path_25" data-name="&lt;Path&gt;" class="cls-9" d="M366.13,205.42c-11.2,18.69-36.52,28-48.5,27.42,0,0-2.2.34,0,1.61l22.79,13.16,33.79-6.81,21-18.59Z"/><polygon id="_Path_26" data-name="&lt;Path&gt;" class="cls-9" points="367.02 247.17 346.69 251.22 356.22 256.73 367.02 247.17"/><polygon id="_Path_27" data-name="&lt;Path&gt;" class="cls-9" points="275.84 214.71 264.44 221.28 234.05 203.74 270.04 171.87 275.84 214.71"/><path id="_Path_28" data-name="&lt;Path&gt;" class="cls-9" d="M350.22,262l-6,5.31L291,236.64c-.67-4.78,1.12-8.13,3.8-6.58Z"/><path id="_Path_29" data-name="&lt;Path&gt;" class="cls-9" d="M283.43,232.25,270.82,225l7.8-4.27c2.62,1.52,8.37,5,8.37,5S282.87,228.77,283.43,232.25Z"/></g><g id="_Group_11" data-name="&lt;Group&gt;"><polygon id="_Path_30" data-name="&lt;Path&gt;" class="cls-8" points="229.36 230.74 207.45 236.64 177.06 219.09 201.18 212.59 229.36 230.74"/><polygon id="_Path_31" data-name="&lt;Path&gt;" class="cls-8" points="221.32 207.17 216.77 215.36 209.15 210.45 221.32 207.17"/><polygon id="_Path_32" data-name="&lt;Path&gt;" class="cls-8" points="264.44 221.28 237.32 228.59 222.63 219.14 222.63 219.13 230.65 204.65 234.05 203.74 264.44 221.28"/><path id="_Path_33" data-name="&lt;Path&gt;" class="cls-8" d="M344.23,267.35,330,271.19h0c-.51-.07-14.37-1.81-18.24-2.64s-6.44-1.75-8.5-5.59S291,236.64,291,236.64Z"/><polygon id="_Path_34" data-name="&lt;Path&gt;" class="cls-8" points="298.63 268.07 243 232.25 270.82 224.97 283.43 232.25 298.63 268.07"/><polygon id="_Path_35" data-name="&lt;Path&gt;" class="cls-8" points="282.82 265.16 264.44 269.54 213.33 240.04 213.34 240.02 234.98 234.35 282.82 265.16"/><polygon id="_Path_36" data-name="&lt;Path&gt;" class="cls-8" points="303.34 278.36 287.24 282.7 272.04 273.93 289.85 269.68 303.34 278.36"/><polygon id="_Path_37" data-name="&lt;Path&gt;" class="cls-8" points="317.63 274.51 304.49 272.74 310.44 276.45 317.63 274.51"/></g><g id="_Group_12" data-name="&lt;Group&gt;"><polygon id="_Path_38" data-name="&lt;Path&gt;" class="cls-9" points="287.24 282.7 265.48 302.44 243 300.25 247.67 282.27 272.04 273.93 287.24 282.7"/><polygon id="_Path_39" data-name="&lt;Path&gt;" class="cls-9" points="185.01 255.89 152.43 283.83 123.88 267.35 127.34 264.2 140.91 264.56 163.99 251.56 185.01 255.89"/><polygon id="_Path_40" data-name="&lt;Path&gt;" class="cls-9" points="264.44 269.54 245.44 276.12 201.28 250.61 213.33 240.04 264.44 269.54"/><polygon id="_Path_41" data-name="&lt;Path&gt;" class="cls-9" points="207.45 236.64 190.67 251.03 175.75 247.6 177.06 219.09 207.45 236.64"/><polygon id="_Path_42" data-name="&lt;Path&gt;" class="cls-9" points="169.81 225.68 168.87 246.4 161.88 245.41 158.96 247.09 155.94 238.26 169.81 225.68"/><polygon id="_Path_43" data-name="&lt;Path&gt;" class="cls-9" points="152.08 251.06 140.33 257.84 134.12 258.06 149.64 243.97 152.08 251.06"/><polygon id="_Path_44" data-name="&lt;Path&gt;" class="cls-9" points="237.38 280.24 199.86 293.67 171.13 277.08 195.25 255.91 237.38 280.24"/><polygon id="_Path_45" data-name="&lt;Path&gt;" class="cls-9" points="239.22 285.7 227.29 327.06 202.94 313 202.94 312.99 199.86 299.81 239.22 285.7"/><polygon id="_Path_46" data-name="&lt;Path&gt;" class="cls-9" points="258.9 308.4 243.75 322.15 235.29 329.82 241.28 306.83 258.9 308.4"/><polygon id="_Path_47" data-name="&lt;Path&gt;" class="cls-9" points="196.69 309.02 196.57 309.31 183.21 301.61 194.12 300.25 196.69 309.02"/><polygon id="_Path_48" data-name="&lt;Path&gt;" class="cls-9" points="191.31 295.38 176.41 297.68 176.4 297.68 159.08 287.68 166.09 281.52 191.31 295.38"/></g><g id="_Group_13" data-name="&lt;Group&gt;" class="cls-10"><polygon id="_Path_49" data-name="&lt;Path&gt;" class="cls-9" points="285.04 158.6 275.84 166.74 279.64 190.58 325.34 181.87 285.04 158.6"/><path id="_Path_50" data-name="&lt;Path&gt;" class="cls-9" d="M361.16,202.55c-4.55,7.71-11.43,13.39-18.55,17.4l-20.1-31.74,10.32-2Z"/><path id="_Path_51" data-name="&lt;Path&gt;" class="cls-9" d="M336.08,223.16c-7.37,3.15-14.32,4.59-18.45,4.7a50.91,50.91,0,0,1-7-.27l-7.32-35.65,11.7-2.28Z"/><path id="_Path_52" data-name="&lt;Path&gt;" class="cls-9" d="M303.16,226.22c-9.57-2.53-15.78-7.34-19.34-9.68l-3.25-20.16,16.17-3.15Z"/><path id="_Path_53" data-name="&lt;Path&gt;" class="cls-9" d="M366.13,205.42c-11.2,18.69-36.52,28-48.5,27.42,0,0-2.2.34,0,1.61l22.79,13.16,33.79-6.81,21-18.59Z"/><polygon id="_Path_54" data-name="&lt;Path&gt;" class="cls-9" points="367.02 247.17 346.69 251.22 356.22 256.73 367.02 247.17"/><polygon id="_Path_55" data-name="&lt;Path&gt;" class="cls-9" points="275.84 214.71 264.44 221.28 234.05 203.74 270.04 171.87 275.84 214.71"/><path id="_Path_56" data-name="&lt;Path&gt;" class="cls-9" d="M350.22,262l-6,5.31L291,236.64c-.67-4.78,1.12-8.13,3.8-6.58Z"/><path id="_Path_57" data-name="&lt;Path&gt;" class="cls-9" d="M283.43,232.25,270.82,225l7.8-4.27c2.62,1.52,8.37,5,8.37,5S282.87,228.77,283.43,232.25Z"/></g><g id="_Group_14" data-name="&lt;Group&gt;" class="cls-10"><polygon id="_Path_58" data-name="&lt;Path&gt;" class="cls-9" points="287.24 282.7 265.48 302.44 243 300.25 247.67 282.27 272.04 273.93 287.24 282.7"/><polygon id="_Path_59" data-name="&lt;Path&gt;" class="cls-9" points="185.01 255.89 152.43 283.83 123.88 267.35 127.34 264.2 140.91 264.56 163.99 251.56 185.01 255.89"/><polygon id="_Path_60" data-name="&lt;Path&gt;" class="cls-9" points="264.44 269.54 245.44 276.12 201.28 250.61 213.33 240.04 264.44 269.54"/><polygon id="_Path_61" data-name="&lt;Path&gt;" class="cls-9" points="207.45 236.64 190.67 251.03 175.75 247.6 177.06 219.09 207.45 236.64"/><polygon id="_Path_62" data-name="&lt;Path&gt;" class="cls-9" points="169.81 225.68 168.87 246.4 161.88 245.41 158.96 247.09 155.94 238.26 169.81 225.68"/><polygon id="_Path_63" data-name="&lt;Path&gt;" class="cls-9" points="152.08 251.06 140.33 257.84 134.12 258.06 149.64 243.97 152.08 251.06"/><polygon id="_Path_64" data-name="&lt;Path&gt;" class="cls-9" points="237.38 280.24 199.86 293.67 171.13 277.08 195.25 255.91 237.38 280.24"/><polygon id="_Path_65" data-name="&lt;Path&gt;" class="cls-9" points="239.22 285.7 227.29 327.06 202.94 313 202.94 312.99 199.86 299.81 239.22 285.7"/><polygon id="_Path_66" data-name="&lt;Path&gt;" class="cls-9" points="258.9 308.4 243.75 322.15 235.29 329.82 241.28 306.83 258.9 308.4"/><polygon id="_Path_67" data-name="&lt;Path&gt;" class="cls-9" points="196.69 309.02 196.57 309.31 183.21 301.61 194.12 300.25 196.69 309.02"/><polygon id="_Path_68" data-name="&lt;Path&gt;" class="cls-9" points="191.31 295.38 176.41 297.68 176.4 297.68 159.08 287.68 166.09 281.52 191.31 295.38"/></g><g id="_Group_15" data-name="&lt;Group&gt;"><polygon id="_Path_69" data-name="&lt;Path&gt;" class="cls-8" points="122.31 287.39 95.65 290.53 95.64 290.53 77.25 279.91 115.23 269.68 122.31 287.39"/><polygon id="_Path_70" data-name="&lt;Path&gt;" class="cls-8" points="152.43 283.83 127.54 286.77 120.08 268.37 123.88 267.35 152.43 283.83"/><polygon id="_Path_71" data-name="&lt;Path&gt;" class="cls-8" points="176.4 297.68 142 317.29 141.99 317.29 102.99 294.77 159.08 287.68 176.4 297.68"/><polygon id="_Path_72" data-name="&lt;Path&gt;" class="cls-8" points="227.29 327.06 219.65 334.84 191.31 342.47 202.94 313 227.29 327.06"/><polygon id="_Path_73" data-name="&lt;Path&gt;" class="cls-8" points="196.57 309.31 183.54 341.27 148.69 321.15 183.21 301.61 196.57 309.31"/></g></g><g id="_Group_16" data-name="&lt;Group&gt;"><g id="_Group_17" data-name="&lt;Group&gt;"><path id="_Compound_Path_" data-name="&lt;Compound Path&gt;" class="cls-4" d="M268.83,130.36l-8.15-4.68h0c-3.89-2.6-9.29-2.49-15.26,1C233.57,133.48,224,150.85,224,165.43v3.32c0,14.58,19.61,30.43,19.61,30.43l8,4.54s-4.82-5.49-4.27-6.62c5.25-10.78,19.55-41.22,19.55-53.12v-3.32a25.92,25.92,0,0,0-.92-7.12l.92.53Zm-23.42,33.44c-5.92,3.42-10.73.65-10.73-6.19,3.19-.5,11.21-14.19,10.73-18.58,5.92-3.42,10.73-.65,10.73,6.19S251.34,160.37,245.42,163.79Z"/><path id="_Compound_Path_2" data-name="&lt;Compound Path&gt;" class="cls-11" d="M268.83,130.36l-8.15-4.68h0c-3.89-2.6-9.29-2.49-15.26,1C233.57,133.48,224,150.85,224,165.43v3.32c0,14.58,19.61,30.43,19.61,30.43l8,4.54s-4.82-5.49-4.27-6.62c5.25-10.78,19.55-41.22,19.55-53.12v-3.32a25.92,25.92,0,0,0-.92-7.12l.92.53Zm-23.42,33.44c-5.92,3.42-10.73.65-10.73-6.19,3.19-.5,11.21-14.19,10.73-18.58,5.92-3.42,10.73-.65,10.73,6.19S251.34,160.37,245.42,163.79Z"/><path id="_Compound_Path_3" data-name="&lt;Compound Path&gt;" class="cls-4" d="M275.45,145.61c0-14.58-9.6-20.86-21.45-14s-21.45,24.21-21.45,38.79v3.32c0,11.23,12.72,24.26,18.57,29.66a2.89,2.89,0,0,0,4.56-.85c5.05-10.34,19.77-41.5,19.77-53.58ZM254,168.75c-5.92,3.42-10.73.65-10.73-6.19S248.07,147.4,254,144s10.73-.65,10.73,6.19S259.92,165.33,254,168.75Z"/><path id="_Compound_Path_4" data-name="&lt;Compound Path&gt;" class="cls-12" d="M275.45,145.61c0-14.58-9.6-20.86-21.45-14s-21.45,24.21-21.45,38.79v3.32c0,11.23,12.72,24.26,18.57,29.66a2.89,2.89,0,0,0,4.56-.85c5.05-10.34,19.77-41.5,19.77-53.58ZM254,168.75c-5.92,3.42-10.73.65-10.73-6.19S248.07,147.4,254,144s10.73-.65,10.73,6.19S259.92,165.33,254,168.75Z"/></g></g><g id="_Group_18" data-name="&lt;Group&gt;"><path id="_Path_74" data-name="&lt;Path&gt;" class="cls-4" d="M408.62,323h0v-9l-67.06-15.42v9h0a1.44,1.44,0,0,0,.31.73L368,345c.64.9,1.33.75,1.54-.34l3.31-17.18a2.72,2.72,0,0,1,2.37-2.09l32.57-2.09C408.34,323.22,408.62,323.14,408.62,323Z"/><path id="_Path_75" data-name="&lt;Path&gt;" class="cls-5" d="M408.62,323h0v-9l-67.06-15.42v9h0a1.44,1.44,0,0,0,.31.73L368,345c.64.9,1.33.75,1.54-.34l3.31-17.18a2.72,2.72,0,0,1,2.37-2.09l32.57-2.09C408.34,323.22,408.62,323.14,408.62,323Z"/><path id="_Path_76" data-name="&lt;Path&gt;" class="cls-4" d="M369.54,335.64l3.31-17.18a2.72,2.72,0,0,1,2.37-2.09l32.57-2.09c1.1-.07,1.12-.33,0-.59l-65.16-15.49c-1.08-.26-1.43.27-.79,1.17L368,336C368.64,336.87,369.33,336.72,369.54,335.64Z"/><path id="_Path_77" data-name="&lt;Path&gt;" class="cls-13" d="M369.54,335.64l3.31-17.18a2.72,2.72,0,0,1,2.37-2.09l32.57-2.09c1.1-.07,1.12-.33,0-.59l-65.16-15.49c-1.08-.26-1.43.27-.79,1.17L368,336C368.64,336.87,369.33,336.72,369.54,335.64Z"/></g><g id="_Group_19" data-name="&lt;Group&gt;"><path id="_Path_78" data-name="&lt;Path&gt;" class="cls-8" d="M199.38,39.82l-17-9.83-.06,0-.13-.07h0c-8.4-4.76-20-4-32.72,3.34-25.68,14.83-46.5,50.88-46.5,80.54,0,14.73,5.14,25.11,13.47,30h0l.13.07.06,0,17,9.83,3-7.78a49.46,49.46,0,0,0,12.86-5.33c25.68-14.83,46.5-50.88,46.5-80.54a49.55,49.55,0,0,0-1.79-13.7Z"/><g id="_Group_20" data-name="&lt;Group&gt;"><path id="_Path_79" data-name="&lt;Path&gt;" class="cls-7" d="M158.38,39.3a19.55,19.55,0,0,1-7.18-1.35.77.77,0,1,1,.56-1.44,18.11,18.11,0,1,0,6.61-35,.77.77,0,0,1,0-1.54,19.65,19.65,0,1,1,0,39.3Z"/></g><path id="_Path_80" data-name="&lt;Path&gt;" class="cls-7" d="M166.66,150.55c25.68-14.83,46.5-50.88,46.5-80.54s-20.82-41.67-46.5-26.85S120.16,94,120.16,123.7,141,165.37,166.66,150.55Z"/><path id="_Path_81" data-name="&lt;Path&gt;" class="cls-9" d="M200.44,70c0,25.12-18.38,57-40.14,69.53-5.27,3-10.24,4.65-14.41,4.65a10.66,10.66,0,0,1-9.38-5c-3.15-4.74-3.63-11.67-3.63-15.47,0-25.12,18.37-57,40.13-69.53,5.27-3,10.25-4.65,14.41-4.65l.76,0C199.23,50.16,200.44,64,200.44,70Z"/><path id="_Path_82" data-name="&lt;Path&gt;" class="cls-14" d="M191.83,65c0,25.12-18.38,57-40.14,69.52-5.27,3-10.25,4.65-14.41,4.65l-.77,0c-3.15-4.74-3.63-11.67-3.63-15.47,0-25.12,18.37-57,40.13-69.53,5.27-3,10.25-4.65,14.41-4.65l.76,0C191.35,54.3,191.83,61.23,191.83,65Z"/><g id="_Group_21" data-name="&lt;Group&gt;"><path id="_Path_83" data-name="&lt;Path&gt;" class="cls-4" d="M160.65,88.75l-8.4-4.49c-.66-.35-1.57,1.33-1.16,2.13l5.29,10.23Z"/><path id="_Path_84" data-name="&lt;Path&gt;" class="cls-4" d="M159.27,100l8.4,4.49c.66.35,1.57-1.33,1.16-2.13l-5.29-10.23Z"/><path id="_Path_85" data-name="&lt;Path&gt;" class="cls-4" d="M164.13,88.93l-1.64-21c-.13-1.65-1.83-.8-2.16,1.09l-4.16,24Z"/><path id="_Path_86" data-name="&lt;Path&gt;" class="cls-4" d="M155.79,99.8l1.64,21c.13,1.65,1.83.8,2.16-1.09l4.16-24Z"/><path id="_Path_87" data-name="&lt;Path&gt;" class="cls-4" d="M158,89.59l-15.32,11.94c-1.21.94-1.35,3.47-.18,3.22l14.84-3.29Z"/><path id="_Path_88" data-name="&lt;Path&gt;" class="cls-4" d="M161.92,99.14,177.24,87.2c1.21-.94,1.35-3.47.18-3.22l-14.84,3.29Z"/><path class="cls-11" d="M177.42,84,164,87l-1.49-19.06c-.13-1.65-1.83-.8-2.16,1.09l-3.11,17.92-5-2.66c-.66-.35-1.57,1.33-1.16,2.13l3.16,6.12-11.58,9c-1.21.94-1.35,3.47-.18,3.22l13.45-3,1.49,19.06c.13,1.65,1.83.8,2.16-1.09l3.11-17.92,5,2.66c.66.35,1.57-1.33,1.16-2.13l-3.16-6.12,11.58-9C178.45,86.26,178.59,83.72,177.42,84Zm-20,15,.27-4.85,1.46-2.69,3.25-1.64-.27,4.85-1.46,2.69Z"/><path id="_Path_89" data-name="&lt;Path&gt;" class="cls-4" d="M163.75,93.31l7.45-18c.59-1.41-.26-2.33-1.08-1.16L159.77,89Z"/><path id="_Path_90" data-name="&lt;Path&gt;" class="cls-4" d="M156.16,95.42l-7.45,18c-.59,1.41.26,2.33,1.08,1.16l10.34-14.83Z"/><path id="_Path_91" data-name="&lt;Path&gt;" class="cls-14" d="M154.24,97.26c.26-4.71,3-9.83,6.2-11.42s5.51.93,5.24,5.64-3,9.83-6.2,11.42S154,102,154.24,97.26Z"/><path id="_Path_92" data-name="&lt;Path&gt;" class="cls-4" d="M154.24,97.26c.26-4.71,3-9.83,6.2-11.42s5.51.93,5.24,5.64-3,9.83-6.2,11.42S154,102,154.24,97.26Z"/><path id="_Path_93" data-name="&lt;Path&gt;" class="cls-15" d="M154.24,97.26c.26-4.71,3-9.83,6.2-11.42s5.51.93,5.24,5.64-3,9.83-6.2,11.42S154,102,154.24,97.26Z"/><path id="_Path_94" data-name="&lt;Path&gt;" class="cls-4" d="M156.27,96.23c.17-3,2-6.34,4-7.37s3.55.6,3.38,3.64-2,6.34-4,7.37S156.1,99.27,156.27,96.23Z"/></g><path id="_Path_95" data-name="&lt;Path&gt;" class="cls-3" d="M167.79,30.11h-5a16.19,16.19,0,0,0-9.41,0h-5v6.7h0c-.16,1.55.77,3.13,2.82,4.32a15.23,15.23,0,0,0,13.78,0c2.05-1.19,3-2.77,2.82-4.32h0Z"/><path id="_Path_96" data-name="&lt;Path&gt;" class="cls-9" d="M167.79,30.11h-5a16.19,16.19,0,0,0-9.41,0h-5v6.7h0c-.16,1.55.77,3.13,2.82,4.32a15.23,15.23,0,0,0,13.78,0c2.05-1.19,3-2.77,2.82-4.32h0Z"/><path id="_Path_97" data-name="&lt;Path&gt;" class="cls-14" d="M151.16,26.14c-3.8,2.2-3.8,5.76,0,8a15.23,15.23,0,0,0,13.78,0c3.8-2.2,3.8-5.76,0-8A15.23,15.23,0,0,0,151.16,26.14Z"/><g id="_Group_22" data-name="&lt;Group&gt;"><path id="_Path_98" data-name="&lt;Path&gt;" class="cls-8" d="M172,23.17h-7a22.66,22.66,0,0,0-13.18,0h-7v4.22h0c-.23,2.17,1.08,4.39,4,6,5.33,3.08,14,3.08,19.29,0,2.87-1.66,4.18-3.87,4-6h0Z"/><path id="_Path_99" data-name="&lt;Path&gt;" class="cls-7" d="M148.74,17.6c-5.33,3.08-5.33,8.06,0,11.14s14,3.08,19.29,0,5.33-8.06,0-11.14S154.06,14.52,148.74,17.6Z"/></g><g id="_Group_23" data-name="&lt;Group&gt;"><path id="_Path_100" data-name="&lt;Path&gt;" class="cls-7" d="M151.49,38a.77.77,0,0,1-.28-.05A19.65,19.65,0,0,1,158.38,0a.77.77,0,1,1,0,1.54,18.11,18.11,0,0,0-6.61,35,.77.77,0,0,1-.28,1.49Z"/></g></g><g id="_Group_24" data-name="&lt;Group&gt;"><path id="_Path_101" data-name="&lt;Path&gt;" class="cls-4" d="M57.79,189c-2.39,0-4.53,2.15-4.53,8.33s-.49,11.15,3.31,11.15Z"/><path id="_Path_102" data-name="&lt;Path&gt;" class="cls-16" d="M57.79,189c-2.39,0-4.53,2.15-4.53,8.33s-.49,11.15,3.31,11.15Z"/><path id="_Rectangle_" data-name="&lt;Rectangle&gt;" class="cls-4" d="M64.1,183.42H79.81a7.53,7.53,0,0,1,7.53,7.53v36.13a7.53,7.53,0,0,1-7.53,7.53H64.1a7.53,7.53,0,0,1-7.53-7.53V191A7.54,7.54,0,0,1,64.1,183.42Z"/><path id="_Rectangle_2" data-name="&lt;Rectangle&gt;" class="cls-5" d="M64.1,183.42H79.81a7.53,7.53,0,0,1,7.53,7.53v36.13a7.53,7.53,0,0,1-7.53,7.53H64.1a7.53,7.53,0,0,1-7.53-7.53V191A7.54,7.54,0,0,1,64.1,183.42Z"/><path id="_Compound_Path_5" data-name="&lt;Compound Path&gt;" class="cls-17" d="M90.31,186.26h2.92a6.65,6.65,0,0,1,6.41,4.9l3.86,14.16H90.31Z"/><g id="_Group_25" data-name="&lt;Group&gt;"><path id="_Path_103" data-name="&lt;Path&gt;" class="cls-18" d="M61.32,215.5c2.28-5.32,5.79-13.44,5.79-13.44l1.51,3.41s4.22-3.69,4.49-8.33c.51-8.73-5.7-9.78-5.7-9.78-2.83.31-5.65.67-8,7-1.8,4.83-5.22,16.36-6.74,21.55a3.91,3.91,0,0,0,1.48,4.29"/><g id="_Group_26" data-name="&lt;Group&gt;"><path id="_Path_104" data-name="&lt;Path&gt;" class="cls-9" d="M84.78,179.93H81.05a13.56,13.56,0,0,1-13.56-13.56h0a15.42,15.42,0,0,1,15.42-15.42h0a15.42,15.42,0,0,1,15.42,15.42h0A13.56,13.56,0,0,1,84.78,179.93Z"/></g><path id="_Path_105" data-name="&lt;Path&gt;" class="cls-9" d="M48.72,301.31c-1.18-.61-1.93.89-3,2.1a8.82,8.82,0,0,0-2.1,3.14c-.26,1.42,1,3.66,2.45,4.9s3.07,2.12,3.59,4.83A6.59,6.59,0,0,0,54,321.8c3.08,1.33,7.2.9,8.59,0,1.66-1.07.14-2.24-2.18-5.56-3-4.33-5.39-7.43-5.39-11.47Z"/><path id="_Path_106" data-name="&lt;Path&gt;" class="cls-18" d="M51.14,297.76l-2.49,3.64a3.5,3.5,0,0,0,.84,4.85l.08.05a3.76,3.76,0,0,0,4.76-.74l3.88-4.23Z"/><path id="_Path_107" data-name="&lt;Path&gt;" class="cls-4" d="M98.63,231.72c.16,4.64-1.82,18.45-5.21,27.34a83,83,0,0,1-7.05,14.5c-1,1.73-30.1,30-30.1,30s-4.94-.36-5.72-5.15c0,0,11.92-20.26,14.5-24.42s11.72-10.53,11.72-10.53l-.83-36.35Z"/><path id="_Path_108" data-name="&lt;Path&gt;" class="cls-11" d="M98.63,231.72c.16,4.64-1.82,18.45-5.21,27.34a83,83,0,0,1-7.05,14.5c-1,1.73-30.1,30-30.1,30s-4.94-.36-5.72-5.15c0,0,11.92-20.26,14.5-24.42s11.72-10.53,11.72-10.53l-.83-36.35Z"/><rect id="_Rectangle_3" data-name="&lt;Rectangle&gt;" class="cls-18" x="89.3" y="315.83" width="6.31" height="9.19" transform="translate(253.64 612.37) rotate(167.19)"/><path id="_Path_109" data-name="&lt;Path&gt;" class="cls-4" d="M93.26,226.64l-26.18,1a25.31,25.31,0,0,0-2.19,12.4c.87,12.76,13,35.59,13,35.59-.15,1.73-.88,9,.77,15.48,2.61,10.19,9.72,27.43,9.72,27.43s4.45.64,6.66-1.94c0,0-3.94-35-5-44-1.15-9.71-4.09-27.43-4.09-27.43a45,45,0,0,0,5.28-6.33c4.7-6.5,4-12.26,4-12.26"/><path id="_Path_110" data-name="&lt;Path&gt;" class="cls-11" d="M93.26,226.64l-26.18,1a25.31,25.31,0,0,0-2.19,12.4c.87,12.76,13,35.59,13,35.59-.15,1.73-.88,9,.77,15.48,2.61,10.19,9.72,27.43,9.72,27.43s4.45.64,6.66-1.94c0,0-3.94-35-5-44-1.15-9.71-4.09-27.43-4.09-27.43a45,45,0,0,0,5.28-6.33c4.7-6.5,4-12.26,4-12.26"/><path id="_Path_111" data-name="&lt;Path&gt;" class="cls-9" d="M95.85,321.16l-.2-.88c.65.12,3.41,4.71,6.15,6.7,3,2.18,5.6,3.47,6.94,4.45,1.79,1.32-.8,4-5.22,4.25-2.19.12-6.18-.55-7.41-1.71S94,330.88,93,330s-2.95-1.57-3.61-2.65a7.63,7.63,0,0,1-.38-3.31c0-1.15.08-2.42.47-2.4l.15.67a7.64,7.64,0,0,0,3.74.83C94.44,323.13,96.37,322.89,95.85,321.16Z"/><path id="_Path_112" data-name="&lt;Path&gt;" class="cls-4" d="M89.25,266.71s-2.62-18.6-3.32-21.49c0,0,4.22-2.34,5.82-4.17a47.63,47.63,0,0,1-4,5Z"/><path id="_Path_113" data-name="&lt;Path&gt;" class="cls-15" d="M89.25,266.71s-2.62-18.6-3.32-21.49c0,0,4.22-2.34,5.82-4.17a47.63,47.63,0,0,1-4,5Z"/><path id="_Path_114" data-name="&lt;Path&gt;" class="cls-4" d="M73.45,266.09s3.15,7.84,4.42,9.57c0,0-.32,6-.27,7.18l-1.65,1.44a37.39,37.39,0,0,1,.74-8.05A48.64,48.64,0,0,1,73.45,266.09Z"/><path id="_Path_115" data-name="&lt;Path&gt;" class="cls-15" d="M73.45,266.09s3.15,7.84,4.42,9.57c0,0-.32,6-.27,7.18l-1.65,1.44a37.39,37.39,0,0,1,.74-8.05A48.64,48.64,0,0,1,73.45,266.09Z"/><path id="_Path_116" data-name="&lt;Path&gt;" class="cls-4" d="M76.64,185.86s-8.14,1-9.22,1.5c5.41,5.49,1.21,18.11,1.21,18.11L73.17,218c-3.18,5.07-6,8.27-7.35,13.08,2.38,2.75,16.58,11,32.82.59,0,0-1-9.13-2.31-16,2.34-11.2,3-15.15,2.31-17.77-1.91-7.38-6.28-12.09-11.29-12.37Z"/><g id="_Group_27" data-name="&lt;Group&gt;"><path id="_Path_117" data-name="&lt;Path&gt;" class="cls-18" d="M93.27,158.07c1.63,1,3.64,5.06,3.44,13.65-.17,7.28-2.53,9.08-3.71,9.6s-3.47.2-5.69-.17v4.37s3.07,3.57,2.88,5.57-4.43,2.48-7.31.52a23.2,23.2,0,0,1-5.29-5.77l0-10s-1.31,1.27-3.52-.67c-1.83-1.6-2.45-4.3-1-5.75a3.19,3.19,0,0,1,5.07,1,17.55,17.55,0,0,0,8.26-2.46A13.26,13.26,0,0,0,93.27,158.07Z"/></g><g id="_Group_28" data-name="&lt;Group&gt;"><ellipse id="_Path_118" data-name="&lt;Path&gt;" class="cls-9" cx="87.67" cy="169.93" rx="0.92" ry="0.95" transform="translate(-7.98 4.36) rotate(-2.72)"/></g><g id="_Group_29" data-name="&lt;Group&gt;"><path id="_Path_119" data-name="&lt;Path&gt;" class="cls-17" d="M88.83,176.06l2.13.68a1.1,1.1,0,0,1-1.38.76A1.17,1.17,0,0,1,88.83,176.06Z"/></g><g id="_Group_30" data-name="&lt;Group&gt;"><path id="_Path_120" data-name="&lt;Path&gt;" class="cls-9" d="M96.09,167.08l-1.85-1.28a1.08,1.08,0,0,1,1.54-.32A1.18,1.18,0,0,1,96.09,167.08Z"/></g><g id="_Group_31" data-name="&lt;Group&gt;"><ellipse id="_Path_121" data-name="&lt;Path&gt;" class="cls-9" cx="94.75" cy="169.27" rx="0.92" ry="0.95" transform="translate(-7.93 4.69) rotate(-2.72)"/></g><g id="_Group_32" data-name="&lt;Group&gt;"><polygon id="_Path_122" data-name="&lt;Path&gt;" class="cls-17" points="91.35 168.71 91.49 174.22 94.39 173.32 91.35 168.71"/></g><g id="_Group_33" data-name="&lt;Group&gt;"><path id="_Path_123" data-name="&lt;Path&gt;" class="cls-17" d="M87.31,181.15c-2.34-.31-7.16-1.69-7.91-3.59A4.93,4.93,0,0,0,81.09,180c1.44,1.23,6.22,2.62,6.22,2.62Z"/></g><g id="_Group_34" data-name="&lt;Group&gt;"><polygon id="_Path_124" data-name="&lt;Path&gt;" class="cls-4" points="70.73 211.34 77.14 220.03 73.17 218.05 70.73 211.34"/><polygon id="_Path_125" data-name="&lt;Path&gt;" class="cls-19" points="70.73 211.34 77.14 220.03 73.17 218.05 70.73 211.34"/></g><path id="_Path_126" data-name="&lt;Path&gt;" class="cls-18" d="M79.48,225.17a.56.56,0,0,1,.15-.32c.73-.85,3.21-2.65,3.38-3.09s-1.18-.85-3.41-.5-6.61,1.59-9.44,1.41c-1.85-.12-6.09-4.29-8.82-7.18l-7.17,4.69c4.64,3.33,11.12,7.21,14.3,8.27s5.52,2.76,9.08,3.4"/><g id="_Group_35" data-name="&lt;Group&gt;"><polygon id="_Path_127" data-name="&lt;Path&gt;" class="cls-7" points="82.6 201.06 95.04 203.96 103.03 196.98 113.31 199.56 120.97 192.27 107.51 226.51 103.03 230.41 94.85 230.06 87.11 236.36 78.33 234.42 82.6 201.06"/><polygon id="_Path_128" data-name="&lt;Path&gt;" class="cls-8" points="103.03 196.98 94.85 230.06 87.11 236.36 95.04 203.96 103.03 196.98"/><polygon id="_Path_129" data-name="&lt;Path&gt;" class="cls-8" points="113.31 199.56 120.97 192.27 107.51 226.51 103.03 230.41 113.31 199.56"/></g></g><path id="_Rectangle_4" data-name="&lt;Rectangle&gt;" class="cls-9" d="M68.28,158.88h2.46a0,0,0,0,1,0,0v18.82a6.17,6.17,0,0,1-6.17,6.17H62.1a0,0,0,0,1,0,0V165A6.17,6.17,0,0,1,68.28,158.88Z"/><path id="_Path_130" data-name="&lt;Path&gt;" class="cls-4" d="M69.29,186.93s2.87,2.12,3,11.32a31,31,0,0,1-4.81,16.41V220s7.79-6.8,9.65-16.9c2.1-11.43-1-17.2-1-17.2C76,185.14,69.17,186.15,69.29,186.93Z"/><path id="_Path_131" data-name="&lt;Path&gt;" class="cls-16" d="M69.29,186.93s2.87,2.12,3,11.32a31,31,0,0,1-4.81,16.41V220s7.79-6.8,9.65-16.9c2.1-11.43-1-17.2-1-17.2C76,185.14,69.17,186.15,69.29,186.93Z"/><path id="_Path_132" data-name="&lt;Path&gt;" class="cls-4" d="M96.73,192.83s-4.31-6.09-9.42-7.31a7.68,7.68,0,0,1,5.56.58A12.66,12.66,0,0,1,96.73,192.83Z"/><path id="_Path_133" data-name="&lt;Path&gt;" class="cls-16" d="M96.73,192.83s-4.31-6.09-9.42-7.31a7.68,7.68,0,0,1,5.56.58A12.66,12.66,0,0,1,96.73,192.83Z"/><path id="_Path_134" data-name="&lt;Path&gt;" class="cls-18" d="M88.79,227.33c-.35-1.18-2,0-4.94-.43-2.55-.35-4.43-1-4.37-1.72l-1.95,6.69a15.48,15.48,0,0,0,2.64.24C85.26,232.14,89.14,228.51,88.79,227.33Z"/></g><path id="_Path_135" data-name="&lt;Path&gt;" class="cls-14" d="M318.92,57.6l-8.57,4.95a10.21,10.21,0,0,0,.07-1.13V58.93c0-4.42-3.1-6.21-6.93-4a13.41,13.41,0,0,0-4.13,4c-.63-5.56-5-7.63-10.28-4.57-5.72,3.31-10.37,11.34-10.37,18V76a9.77,9.77,0,0,0,.88,4.3l-7.12,4.11a8.5,8.5,0,0,0-3.84,6.66c0,2.45,1.72,3.44,3.84,2.22l46.44-26.81a8.49,8.49,0,0,0,3.84-6.66C322.77,57.37,321,56.38,318.92,57.6Z"/></g></g></g></svg>