<svg xmlns="http://www.w3.org/2000/svg" viewBox="0 0 547.81 364.1"><defs><style>.cls-1{fill:#c8e6de;}.cls-2{fill:#42b093;}.cls-3{fill:#84ce9d;}.cls-4{fill:#2d9678;}.cls-5{fill:#5fbba4;}.cls-6{fill:#38958c;}.cls-7{fill:#165260;}.cls-8{fill:#76a9b7;}.cls-9{fill:#f4f4f4;}.cls-10{fill:#fff;}.cls-11{fill:#e8605c;}.cls-12{fill:#fdd17a;}.cls-13{fill:#e4f3f7;}.cls-14{fill:#1c1c38;}.cls-15{fill:#0f0f23;}.cls-16{fill:#b94a5b;}.cls-17{fill:#f29d7e;}.cls-18{fill:#ffbda9;}.cls-19{fill:#1b4e61;}.cls-20{fill:#1a5a6b;}.cls-21{fill:#f5b7a0;}.cls-22{fill:#f39e81;}.cls-23{fill:#ea5f5a;}.cls-24{fill:#164756;}.cls-25{fill:#082c35;}</style></defs><title>Asset 2</title><g id="Layer_2" data-name="Layer 2"><g id="OBJECTS"><rect class="cls-1" x="61.62" y="98.97" width="430.92" height="198.04" rx="75.86" ry="75.86"/><path class="cls-1" d="M167.19,55.65c.93-7-6.73-12.5-13.75-12.51-1.34,0-2.83.08-3.84-.81s-1.12-2.45-1.25-3.81A23.87,23.87,0,0,0,105.2,26.87c-2.09,2.9-4.24,6.71-7.82,6.64-2.31,0-4.17-1.8-6.11-3.08C83.64,25.38,72,28.22,67.51,36.22c-1.3,2.33-2.31,5.23-4.83,6.12a16.79,16.79,0,0,1-3.66.43c-8.49,1-9.81,11.8-1.6,13.54,9.1,1.93,22.43-.51,31.94-.28Q128.27,57,167.19,55.65Z"/><path class="cls-2" d="M502.66,75.58c.92-6.92-6.69-12.43-13.67-12.44-1.33,0-2.82.08-3.82-.8s-1.11-2.43-1.24-3.79A23.74,23.74,0,0,0,441,47c-2.07,2.89-4.22,6.67-7.77,6.6-2.3,0-4.15-1.79-6.07-3.06-7.59-5-19.2-2.19-23.64,5.75-1.29,2.32-2.3,5.2-4.8,6.09a16.69,16.69,0,0,1-3.64.43c-8.44,1-9.75,11.73-1.59,13.47,9,1.92,22.31-.51,31.75-.28Q464,76.89,502.66,75.58Z"/><path class="cls-2" d="M462.78,238.55v37.1a35.49,35.49,0,0,1-35.49,35.49H202.48c-.08-.63-.13-1.29-.15-2-.47-12.4.77-25.63,8.23-35.55,6.6-8.76,17.19-13.67,27.84-16.3,10-2.47,21-3.53,28.65-10.33,10.79-9.52,10.73-25.9,12.6-40.17s7.73-29.56,20.42-36.08c.33-.18.66-.34,1-.5,3-1.4,6.27-2.25,9.21-3.8,13.75-7.23,15.67-25.84,23.9-39,11.9-19,40.23-25.33,59.06-13.13,4.2,2.72,8,6.34,9.93,11,4,9.55-.83,21.37,4.17,30.42,7.1,12.84,28,10.77,36.79,22.52,5.33,7.14,4.43,16.93,4.09,25.84s.92,19.27,8.46,24l.06,0A12.43,12.43,0,0,1,462.78,238.55Z"/><path class="cls-3" d="M370.81,311.14H124.93a45.78,45.78,0,0,1-45.78-45.78h0a28.33,28.33,0,0,1,11.13-22.58,50.55,50.55,0,0,1,8.42-5.19c7.81-3.8,16.7-5.72,23.32-11.34,8.64-7.34,11.48-19.25,14.24-30.25,4.28-17,9.78-34.34,21.05-47.81s29.55-22.4,46.57-18.06c8.38,2.13,16.53,7.31,25,5.6,4.92-1,9.05-4.2,13.63-6.27,13.49-6.1,30.22-1.39,40.91,8.86,8.9,8.55,14.11,20.24,16.64,32.42q.77,3.65,1.21,7.33a48.71,48.71,0,0,0,1.45,8.53c2.49,8,9.77,13.56,17.17,17.55s15.43,7,21.68,12.65A34.14,34.14,0,0,1,352.06,235c2.89,13.79-2.82,29.08,3.31,41.75,2.5,5.19,6.76,9.33,9.86,14.19A36.33,36.33,0,0,1,370.81,311.14Z"/><path class="cls-3" d="M421.85,255.77c3.15-7.62-3.18-17.9,2.41-24,3.09-3.35,8.51-3.51,11.85-6.61,6.31-5.83,2-18.3,8.8-23.49,3-2.28,7.26-2.26,10.34-4.42,8-5.57,3-20.62,11.09-25.92,3.77-2.46,9.07-1.66,12.68-4.35,7.07-5.28,2.6-19.4,10.57-23.19,4.84-2.3,11.21,1.31,15.74-1.55,6.1-3.85,2.68-15,8.63-19.1,3.55-2.43,8.54-.86,12.52-2.5,4.29-1.77,6.21-6.62,9-10.3s8.89-6.19,11.75-2.54c3,7.7-8,14.27-8.26,22.54-.08,2.64,1,5.19,1.07,7.82.43,10.43-13.4,18.26-11,28.42.6,2.57,2.25,4.88,2.47,7.51.65,7.52-9.32,10.87-13.61,17.08-5.74,8.31-1.43,22.45-10.08,27.66-3,1.8-7,2-9.21,4.7-4.2,5.16,1.93,14.51-3,19-2.31,2.12-5.87,1.83-8.88,2.73a11.38,11.38,0,0,0-7.74,12.08c.51,3.63,2.79,7.39,1.18,10.68-2.55,5.23-11.08,2.77-15.61,6.42-2.88,2.32-3.35,6.41-4.46,9.94s-4.17,7.29-7.74,6.35c-1.33-.35-2.41-1.31-3.66-1.9-10.75-5-21.49,15.4-30.65,1.75C410.3,279,417.56,266.16,421.85,255.77Z"/><path class="cls-4" d="M524.74,175.22c1.07-.32.68-2-.4-1.7L496.16,182l30.13-41.12c.67-.91-.81-1.84-1.47-.94l-28.43,38.81a157.13,157.13,0,0,0,6.21-28.5c.14-1.11-1.61-1.16-1.75-.05A154.71,154.71,0,0,1,493,183.37h0L467.26,218.5c0-1.05.41-2.46.48-3.27q.37-4.23.82-8.44c.67-6.18,1.49-12.35,2.43-18.5.17-1.11-1.58-1.15-1.75-.05-1.11,7.27-2.05,14.56-2.78,21.87-.3,3-1.46,7.5-.87,10.46l0,.15L439.76,256c.79-8.08,1.93-16.1,3.48-24.07.21-1.09-1.46-1.62-1.67-.51a260.35,260.35,0,0,0-3.84,27.35l-17.17,23.43c-.67.91.81,1.84,1.47.94l17.31-23.63c3.25-2.49,9-2.27,12.87-2.82l13.09-1.85c1.11-.16.71-1.86-.4-1.7l-16.37,2.32a48.91,48.91,0,0,0-7,1.11l25.14-34.3c1,.38,2.29-.45,3.14-.78,3.94-1.57,7.91-3.05,11.93-4.42,6.64-2.26,13.38-4.19,20.19-5.87a.87.87,0,0,0-.4-1.7c-10.61,2.62-20.75,6.22-31,9.85l-1.5.6a4.62,4.62,0,0,1-.95.45l26.42-36.06Z"/><path class="cls-5" d="M434.12,252.26c2.11-5,5.71-10.06,11.06-10.77,3.68-.49,7.35,1.26,11,.94,10.18-.89,13-15.23,21.85-20.31,9.78-5.6,24.12,1.61,32.56-5.84,4.21-3.72,5.86-10.43,11.16-12.29,4.88-1.72,10.84,1.61,15.24-1.1L527.81,221a26.51,26.51,0,0,1-4.26,6.63c-3,3.1-7.45,4.64-10.09,8.06-4,5.21-3,13.57-8.12,17.7-4.2,3.38-10.52,2.19-15.33,4.62-10,5.07-7.89,21.82-17.25,28.07-7.08,4.73-17.92,1.31-24.1,7.17-2.16,2.05-3.33,4.92-5.16,7.27-8.71,11.18-28.24,5.41-30.53-8.09-1-5.82,1.56-13.89,5-18.54C424.07,265.6,429.85,262.3,434.12,252.26Z"/><path class="cls-4" d="M509.93,224.74c-12.61,6-23.76,13.89-34.65,22.3l-.2.05a130.88,130.88,0,0,1,8.34-18.92c.53-1-.94-1.93-1.47-.94a133.71,133.71,0,0,0-9.09,20.88.83.83,0,0,0,.11.72c-3.6,2.82-7.19,5.68-10.79,8.54-5.68,4.5-11.35,9-16.86,13.72A184.27,184.27,0,0,0,454.59,251c.41-1-1.26-1.56-1.67-.51a180.84,180.84,0,0,1-10.55,22.41.87.87,0,0,0-.06.79,183.65,183.65,0,0,0-22.41,22.82c-.71.88.78,1.81,1.47.94a183.15,183.15,0,0,1,23.09-23.35q12.64-1.35,25.34-1.58c1.12,0,1.18-1.77.05-1.75-7.72.14-15.41.6-23.09,1.35,5.43-4.61,11-9.05,16.59-13.48,4.24-3.37,8.46-6.73,12.71-10a69.3,69.3,0,0,1,23.12-2c1.12.09,1.17-1.66.05-1.75a70.58,70.58,0,0,0-19.81,1.18c9.84-7.46,20-14.39,31.32-19.77C511.76,225.8,510.94,224.26,509.93,224.74Z"/><path class="cls-5" d="M97.44,288.6c-6-5.65-17.87-3.36-21.55-10.74-2-4.08-.27-9.2-2-13.43-3.22-8-16.42-8.31-18.85-16.55-1.07-3.61.45-7.59-.47-11.24-2.39-9.41-18.24-10.07-20.31-19.55-1-4.4,1.66-9.07.42-13.4-2.43-8.48-17.23-9.3-17.94-18.09-.44-5.35,5.19-10,4.12-15.27-1.44-7.07-13.11-7.83-14.81-14.84-1-4.18,2.22-8.3,2.1-12.6-.13-4.64-4-8.16-6.44-12.1S-.92,120.28,3.51,118.9c8.28-.11,10.51,12.53,18.15,15.71,2.43,1,5.19.94,7.7,1.77,9.91,3.29,12.33,19,22.68,20.37,2.62.35,5.35-.37,7.9.35,7.27,2.06,6.86,12.57,11.15,18.78,5.74,8.32,20.49,9.28,22.3,19.23.62,3.43-.61,7.26,1.14,10.28,3.34,5.75,14.25,3.34,16.72,9.51,1.17,2.91-.37,6.14-.59,9.27a11.38,11.38,0,0,0,8.55,11.51c3.57.81,7.9,0,10.41,2.68,4,4.23-1.33,11.34.48,16.87,1.15,3.51,4.81,5.4,7.71,7.69s5.35,6.48,3.2,9.49c-.8,1.12-2.08,1.79-3.07,2.75-8.53,8.26,6.79,25.55-9.22,29.28C115,307.61,105.63,296.29,97.44,288.6Z"/><path class="cls-4" d="M58.54,163.85c.08-1.12-1.65-1.36-1.73-.23l-2,29.37L27,150.25c-.61-.94-2,.11-1.4,1l26.22,40.33a157.13,157.13,0,0,0-24.45-15.9c-1-.52-1.66,1.1-.67,1.62a154.71,154.71,0,0,1,28.23,19.08h0l23.72,36.5c-1-.4-2.15-1.25-2.89-1.6q-3.82-1.84-7.6-3.76-8.32-4.22-16.44-8.83c-1-.55-1.64,1.07-.67,1.62q9.6,5.42,19.47,10.35c2.74,1.36,6.49,4,9.48,4.52l.15,0L104,271.95q-10.91-5.39-21.28-11.78c-.95-.59-2,.79-1.07,1.38a260.35,260.35,0,0,0,24.22,13.27l15.83,24.35c.61.94,2-.11,1.4-1l-16-24.56c-1.18-3.92,1.07-9.25,1.92-13l2.9-12.9c.25-1.1-1.49-1.32-1.73-.23l-3.63,16.13a48.88,48.88,0,0,0-1.45,7L82,234.85c.71-.8.4-2.3.38-3.21-.08-4.24-.05-8.48.09-12.72.24-7,.82-14,1.66-21a.87.87,0,0,0-1.73-.23c-1.31,10.85-1.54,21.61-1.78,32.51l0,1.62a4.62,4.62,0,0,1,.09,1L56.36,195.42Z"/><path class="cls-6" d="M98.5,275.88c-3.89-3.73-7.39-8.91-6.16-14.15.85-3.61,3.79-6.42,4.79-10,2.77-9.84-9.65-17.53-11.26-27.63-1.77-11.13,10-22,6.07-32.52-2-5.26-7.68-9.17-7.55-14.79.12-5.17,5.34-9.56,4.37-14.64l13.64,15a26.52,26.52,0,0,1,4.69,6.33c1.83,3.91,1.7,8.61,4,12.29,3.44,5.61,11.63,7.61,13.68,13.86,1.67,5.12-1.68,10.61-1.11,16,1.18,11.19,17.61,15.1,20.14,26.07,1.91,8.3-5.12,17.22-1.83,25.07,1.15,2.75,3.42,4.86,5,7.4,7.37,12.11-4.95,28.33-18.38,25.69-5.8-1.14-12.43-6.37-15.57-11.24C107.41,290,106.37,283.43,98.5,275.88Z"/><path class="cls-7" d="M99.61,195.24c1.14,13.92,4.57,27.14,8.58,40.31l0,.2a130.88,130.88,0,0,1-14.74-14.5c-.73-.85-2.14.19-1.4,1a133.72,133.72,0,0,0,16.3,15.89.83.83,0,0,0,.71.15c1.36,4.37,2.76,8.73,4.16,13.12,2.2,6.9,4.42,13.81,6.86,20.63a184.26,184.26,0,0,0-15.5-15.79c-.84-.75-1.9.63-1.07,1.38a180.85,180.85,0,0,1,17.22,17.81.87.87,0,0,0,.71.33,183.65,183.65,0,0,0,13.41,29c.57,1,2-.09,1.4-1a183.16,183.16,0,0,1-13.65-29.87q3.21-12.3,7.5-24.26c.38-1.05-1.23-1.73-1.62-.67q-3.91,10.9-6.91,22.08c-2.39-6.71-4.56-13.51-6.73-20.29-1.64-5.16-3.3-10.29-4.87-15.43A69.3,69.3,0,0,1,116.27,213c.48-1-1.13-1.68-1.62-.67a70.58,70.58,0,0,0-5.91,18.94c-3.49-11.85-6.37-23.79-7.4-36.29C101.25,193.9,99.52,194.12,99.61,195.24Z"/><path class="cls-2" d="M490.61,310.25H63.55a1.93,1.93,0,0,1-1.93-1.93h0a1.93,1.93,0,0,1,1.93-1.93H490.61a1.93,1.93,0,0,1,1.93,1.93h0A1.93,1.93,0,0,1,490.61,310.25Z"/><polygon class="cls-8" points="213.89 171.34 278.16 135.09 342.42 171.34 342.42 207.86 213.89 207.86 213.89 171.34"/><rect class="cls-9" x="226.23" y="165.17" width="95.98" height="73.72"/><rect class="cls-10" x="230.28" y="161.6" width="95.98" height="73.72"/><rect class="cls-11" x="239.68" y="176.54" width="75.8" height="2.1"/><rect class="cls-12" x="239.68" y="183.29" width="75.8" height="2.1"/><rect class="cls-12" x="239.68" y="190.04" width="75.8" height="2.1"/><polygon class="cls-13" points="342.42 244.37 278.16 207.86 213.89 244.37 342.42 244.37"/><polygon class="cls-1" points="213.89 171.34 278.16 207.86 213.89 244.37 213.89 171.34"/><polygon class="cls-1" points="342.42 171.34 342.42 244.37 278.16 207.86 342.42 171.34"/><path class="cls-11" d="M274.08,119.23V91.48a.34.34,0,0,0-.34-.34h-68a.34.34,0,0,0-.34.34v35.16a.34.34,0,0,0,.34.34h50.37a.34.34,0,0,1,.2.06l21.34,22.24a.34.34,0,0,0,.51-.39l-4-29.54A.34.34,0,0,1,274.08,119.23Z"/><path class="cls-14" d="M429.31,331.68l.26,9.07a15.19,15.19,0,0,1-.37,4.76c-.44,1.49-1.32,2.8-1.9,4.24a11.06,11.06,0,0,0,3,12.18,1.35,1.35,0,0,0,.6.34c.59.11,1-.51,1.32-1,1.32-2.51,2.65-5,3.83-7.59,1.07-2.32,2-4.69,3.15-7,3.5-7.11,8.69-13.46,10.9-21.07a57.57,57.57,0,0,1-15.72-8,1.09,1.09,0,0,0-.62-.27,1.07,1.07,0,0,0-.63.31c-1.49,1.23-6,4.53-6.05,6.63,0,1,1.37,2.27,1.7,3.28A14.57,14.57,0,0,1,429.31,331.68Z"/><path class="cls-15" d="M387.11,344a13.74,13.74,0,0,0-.92,3.94,17.43,17.43,0,0,0,.8,4.61c.65,2.69,1,5.57,2.61,7.82s5.06,3.52,7.18,1.73c1.4-1.18,1.7-3.19,2.62-4.77,1.21-2.08,3.59-3.6,3.88-6a8.63,8.63,0,0,0-.88-4,34.36,34.36,0,0,1-2.07-14.3c0-.5-8.1-1.75-9.22-.6s-1.41,3.86-1.89,5.27Z"/><path class="cls-16" d="M402.57,206.46c-1.4,6.22-3.78,12.17-5.43,18.32-3.07,11.46-3.57,23.43-4,35.28l-2.71,67.13a6.16,6.16,0,0,0,.71,3.89,5.29,5.29,0,0,0,2.35,1.63,19.12,19.12,0,0,0,8.26,1.47c8.4-24.65,11.15-50.8,16.19-76.35,4.61-23.34,11.16-46.29,15.09-69.75.5-3,.94-6.14-.19-8.94-1.71-4.25-6.67-6.46-11.25-6.33a25.37,25.37,0,0,0-11.37,3.3c-2.77,1.62-3.14,4.23-3.87,7.34C404.51,191,404.29,198.86,402.57,206.46Z"/><path class="cls-17" d="M344.26,98.69a3.3,3.3,0,0,0-1,.46c-2.46,1.59-5.95,3.57-7.71,6-1.41,1.91-2.28,5.33-3.17,7.6l-3.2,8.2c-.59,1.5-3.63,4.44-3.8,6,8.62-3,19.55-7.79,27.85-11.56l-7.34-15.53a2,2,0,0,0-1-1.15A1.17,1.17,0,0,0,344.26,98.69Z"/><path class="cls-11" d="M373.92,202.51l-9.6,52.74c-.51,2.81-1,5.8.06,8.45.92,2.27,2.84,3.94,4.57,5.67,3.86,3.87,7,8.4,10.34,12.7,8.86,11.25,19.61,20.84,30.31,30.36l13,11.57a6.26,6.26,0,0,0,1.65,1.17c2.31,1,4.74-1,6.48-2.8s3.6-4,3.21-6.46a8.07,8.07,0,0,0-1.49-3.13,315,315,0,0,0-26.34-33.92c-3.58-4-7.34-8.06-9.32-13.06-1.83-4.63-2-9.72-2-14.7a80.88,80.88,0,0,1,1-14.33,117.13,117.13,0,0,1,3.11-11.85,273.17,273.17,0,0,0,8.9-43.11,3.18,3.18,0,0,0-.21-2.05c-.68-1.12-2.32-1-3.59-.68a120.75,120.75,0,0,0-21.72,7.35C375.89,189.33,375.1,196,373.92,202.51Z"/><path class="cls-13" d="M346.38,95.68c-.38.42-2.15,1.83-2.3,2.38-.2.78,1.16,1.95,1.47,2.69,1.57,3.73,3.47,6.71,5,10.45.27.63,1.2,4.16,1.69,4.64,1.25,1.25,4.21-2.1,6.47-3.35,5.77,11.75,6.61,25.19,8.5,38.15,1.8,12.38,3.64,18.28,6.47,30.47.13.58,1.27,9.48,1.61,10s8.19-1.48,12.23-2.88c2.7-.94,6.52-2.63,9.38-2.74,6.4-.26,12.16-5.34,18.56-5.41a17,17,0,0,0,9-2.21c1.34-.84,2.64-.76,3.86-1.76,2-1.6,4.79-2.3,6-4.53s.26-5.12-.76-7.53l-8.92-21.12a20.77,20.77,0,0,1-1.49-4.43,20.79,20.79,0,0,1,.08-5.83L426,108.26l4.17,17,15.73-10.54c.56-.38,1.63-.8,1.85-1.44s-.44-1.3-.63-1.93l-4.43-14.83c-1.25-4.17-2.62-8.55-5.8-11.52-2.77-2.59-6.54-3.76-10.18-4.85l-16.84-5.05a8.68,8.68,0,0,0-3.05-.53,10.11,10.11,0,0,0-3.22,1,30.72,30.72,0,0,1-13,2.46c-3.63-.11-7.31-1.69-10.92-1.28-7.87.88-16.29,5.62-22.65,10.1A60.77,60.77,0,0,0,346.38,95.68Z"/><path class="cls-18" d="M437.06,143.51a15.51,15.51,0,0,1,.9,6.23,15.47,15.47,0,0,1-1.27,4c-2.12,5-3.15,10.68-5.27,15.7a145.83,145.83,0,0,0-5,13.8c-.53,1.76,2.37,3.91,6.27,6.54,6.67-13.61,15-26.87,23-39.74a12.45,12.45,0,0,0,2-4.41,10.07,10.07,0,0,0-.26-3.79c-1.61-7.26-8.06-23.74-10.23-28.55,0,0-15.7,10.16-15.7,11,0,2.08,2.36,8.38,2.78,9.85C435.25,137.24,436,140.43,437.06,143.51Z"/><path class="cls-18" d="M332.5,57.75a36.91,36.91,0,0,0-2.65-2.9,4.18,4.18,0,0,1-1.18-3.6,1.46,1.46,0,0,1,1.8,0A14.92,14.92,0,0,0,332,52.41c1.59.75,3.34-.56,4.67-1.72s3.29-2.29,4.71-1.24c.63.46,1,1.28,1.67,1.65,1.05.57,2.71,0,3.32,1.06.27.47.18,1.07.42,1.56.5,1,2.06.92,2.66,1.84a2.61,2.61,0,0,1,.3,1.28c.13,2.2.22,4.59-1,6.4-.76,1.09-1.92,1.83-2.78,2.83a13,13,0,0,0-2,3.75c-3.77,9.5-7.59,19.15-8.65,29.32-.52,5-.37,10.05-1.37,15s-3.38,9.84-7.68,12.42a2,2,0,0,1-1.55.39,2.15,2.15,0,0,1-1-.87c-3.51-4.67-6-10.41-5.5-16.23a33.31,33.31,0,0,1,1.22-5.89Q322.8,91.5,327,79.33q2.11-6.13,4.42-12.19C332.64,64,334.79,61.11,332.5,57.75Z"/><path class="cls-17" d="M378.54,78.57a3.82,3.82,0,0,0-.31,2.16,3.7,3.7,0,0,0,1.44,1.82c4.94,4,11.19,7.25,17.42,6a22.84,22.84,0,0,0,6.17-2.43c4-2.11,8.16-5.18,8.67-9.66a94.14,94.14,0,0,1-11.59-14.64c-.23-.36-.51-.76-.94-.82a1.5,1.5,0,0,0-.77.16c-4.82,2-10.67,3.47-15.1,6.2-1.45.9-1.75,2-2.32,3.58C380.47,73.06,378.54,76.35,378.54,78.57Z"/><path class="cls-18" d="M371,57.69a3.42,3.42,0,0,0,2.58.66,29.81,29.81,0,0,0,5.91,10.57,10.13,10.13,0,0,0,2.86,2.46,10.46,10.46,0,0,0,4.33.94,36.24,36.24,0,0,0,4.52-.05,8.38,8.38,0,0,0,3.21-.72,8.26,8.26,0,0,0,2.88-2.86A31.5,31.5,0,0,0,400.4,63a4.45,4.45,0,0,0,.43-1.61,4.79,4.79,0,0,0-.36-1.63l-3.38-9.68a1.57,1.57,0,0,1-.13-.72,2.16,2.16,0,0,1,.59-1,2.92,2.92,0,0,0-2.42-4.72l-1.72-3.48a8.26,8.26,0,0,0-1.19-1.93A5.65,5.65,0,0,0,390.38,37a8.39,8.39,0,0,0-7.26.07,12,12,0,0,0-4.53,4.69c-1.14,1.89-2,3.92-3.25,5.75s-3,3-3.76,4.94C370.93,54.11,369.22,56.19,371,57.69Z"/><path class="cls-19" d="M377,24.76a26.54,26.54,0,0,0-12.43,3.4c-3,1.76-5.76,4.51-6.23,8-.54,4,2,7.71,4.79,10.62a50.2,50.2,0,0,0,8.05,6.84,5.6,5.6,0,0,0,2.42,1.11,4.49,4.49,0,0,0,3.05-1c3.18-2.31,4.5-6.37,5.34-10.21a11.66,11.66,0,0,1,1.32-3.9,3.62,3.62,0,0,1,3.46-1.81c1.43.25,2.37,1.58,3.15,2.81L393,45.4a2.23,2.23,0,0,0,1,1c1.24.49,2.1-1.29,2.19-2.62A31.1,31.1,0,0,0,395,33.15c-1.07-3.75-3.6-3.92-6.65-5.45C384.55,25.79,381.34,24.6,377,24.76Z"/><path class="cls-7" d="M186,206.65a1.92,1.92,0,0,1,1.22.54,1.82,1.82,0,0,1,.3.92c.9,7.16-2.14,14.27-6.1,20.3s-8.89,11.42-12.51,17.66a100,100,0,0,0-4.45,9l-6.7,14.78q-12.6,27.8-25.31,55.56c-.84,1.82-1.77,3.75-3.47,4.81s-4.41.74-5.16-1.12c.79-22.16,11.83-42.44,18.79-63.49a176.81,176.81,0,0,0,7.66-34.25,19.54,19.54,0,0,0,.07-6c-.4-2.1-1.44-4-1.78-6.15-.43-2.67.31-5.38,1-8s1.08-7.14,3.1-9.05c2.23-2.11,6.17-.46,8.78,0C169.63,203.69,177.79,205.44,186,206.65Z"/><path class="cls-20" d="M129.19,215.55A55.73,55.73,0,0,0,129,228.6,532.81,532.81,0,0,0,149.63,343c.59,2,1.76,4.42,3.84,4.3,2.41-.14,3-3.38,3-5.79-.37-11.39-.74-22.8-2.36-34.08-1-7-2.51-14-2.59-21.13-.09-8.24,1.73-16.37,2.89-24.53.8-5.65,1.28-11.33,1.77-17L159.51,205a3.15,3.15,0,0,0-.16-1.67A3.19,3.19,0,0,0,157,202c-4.63-1-16.05-5.71-20.36-3.43C132.49,200.78,129.88,211.36,129.19,215.55Z"/><polygon class="cls-21" points="183.44 206.22 180.02 190.95 141.21 199.7 183.44 206.22"/><path class="cls-22" d="M160.07,108.35,170.78,120s-10.74,20.87-30.13,8L143.84,109Z"/><path class="cls-21" d="M161.28,91.42l.81,18.38-3.49,2.31a12.06,12.06,0,0,1-12.13.69l-4.26-2.17L139,86.47l21.31-2.9Z"/><path class="cls-12" d="M165.86,116s5.13,13.52-10.26,13.52c0,0-12.23,1.63-15.38-6.32l-7.89-3L109.45,116l-6.85,18L128,144.45l9.07,31.14-4,17.7a5.61,5.61,0,0,0,6.62,6.72l49.71-10.43a5.61,5.61,0,0,0,3.41-8.75l-5.71-8a26.13,26.13,0,0,1-4.54-19.37l5.38-33.3,3.16-26.24-21.3-2.87Z"/><polygon class="cls-21" points="187.36 93.44 167.44 29.42 161.76 33.11 174.5 91.71 187.36 93.44"/><polygon class="cls-21" points="107.86 120.18 94.2 113.92 83.77 59.92 78.66 63.15 84.02 118.7 103.45 131.77 107.86 120.18"/><polygon class="cls-23" points="174.99 2.34 198.02 0 185.48 17.72 174.99 2.34"/><polygon class="cls-24" points="174.99 2.34 60.43 74.66 71.28 91.84 185.48 17.72 174.99 2.34"/><path class="cls-23" d="M60.43,74.66l-3.49,2.21a10.16,10.16,0,0,0-3.15,14h0a10.16,10.16,0,0,0,14,3.15l3.45-2.19Z"/><polygon class="cls-25" points="71.28 91.84 185.48 17.72 182.63 13.54 69.05 88.31 71.28 91.84"/><polygon class="cls-22" points="82.38 60.8 85.7 64.73 79.17 68.49 74.95 65.49 82.38 60.8"/><polygon class="cls-22" points="175.79 24.01 174.99 28.79 168.26 32.05 167.08 29.66 175.79 24.01"/><path class="cls-14" d="M154,336.73l-3.7.66a2.54,2.54,0,0,0-2.08,2.72l.58,6.57a2.54,2.54,0,0,1-.29,1.41l-5.5,10.35a2.54,2.54,0,0,0,.51,3l2.06,1.93a2.54,2.54,0,0,0,2,.68l6.06-.54a2.54,2.54,0,0,0,1.89-1.12l2.86-4.29a2.54,2.54,0,0,0,.31-2.16L156,347.38a2.54,2.54,0,0,1-.08-1.14l1-6.62A2.54,2.54,0,0,0,154,336.73Z"/><path class="cls-14" d="M130.31,325.86l-3.79-1.76a1.58,1.58,0,0,0-2,.6L119,333.62l-.1.14-1.56,2-2.94,3.76a1.58,1.58,0,0,0-.12,1.77l11,18.84a1.58,1.58,0,0,0,2.87-.31l1.08-3.37a1.58,1.58,0,0,0,0-1l-3.79-12.18a1.58,1.58,0,0,1,0-1l5.66-14.38A1.58,1.58,0,0,0,130.31,325.86Z"/><path class="cls-11" d="M132.55,82.42c-2.17,4.11.46,9.38-1.21,13.72-1,2.49-3.26,4.41-3.71,7s1.09,5.27.61,7.88c-.53,2.89-3.29,4.75-5,7.14a10.91,10.91,0,0,0-1.89,7.84c.26,1.74.94,3.43.91,5.18-.07,4-3.79,7.49-3.08,11.42.33,1.81,1.57,3.34,2,5.12.72,2.68-.37,5.47-.75,8.23s.45,6.21,3.13,6.95c1,.26,2.06.14,2.86.74s1,2,1.19,3.2a7.14,7.14,0,0,0,3,5.11,4.24,4.24,0,0,0,5.51-.82c.64-.9.87-2.12,1.78-2.74,1.91-1.3,4.48,1.32,6.69.62a3.76,3.76,0,0,0,1.58-1.13,9.39,9.39,0,0,0,2.18-8.22c-.29-1.28-.85-2.59-.49-3.85a8.25,8.25,0,0,1,1.09-2,8.53,8.53,0,0,0,.63-7.59c-.59-1.44-1.58-2.72-2-4.22-1-3.45,1.3-7.29,0-10.61-.76-1.91-2.57-3.22-3.49-5.06-2.22-4.41,1.31-9.89-.19-14.59-.4-1.26-1.16-2.4-1.53-3.67-1.19-4.06,1.69-8.18,1.81-12.41,0-1.49-.26-3-.1-4.47.14-1.29.62-2.53.66-3.82.06-2.44-2.28-6.91-4.49-8.11C137.69,77.91,133.76,80.12,132.55,82.42Z"/><path class="cls-11" d="M145.53,87.51a6.29,6.29,0,0,1,2.09.54c1.11.68,1.34,2.3,2.43,3a4.8,4.8,0,0,0,3,.32c2.66-.19,5.71.69,6.86,3.1,1,2.17.19,4.78.73,7.12a37,37,0,0,1,1.15,4.62,36.6,36.6,0,0,1-.25,5c-.06,1.71.59,3.37.68,5.08.22,4.27-3,8.51-1.62,12.54.29.82.75,1.56,1,2.38,1.16,3.22-.46,7.19,1.41,10.05.94,1.44,2.64,2.35,3.25,4a19,19,0,0,1,.48,2.46,5.39,5.39,0,0,0,4.48,4,18.92,18.92,0,0,1,2.93.24c1.5.43,2.51,1.81,3.9,2.51a4.79,4.79,0,0,0,5.71-1.25c.48-.6.85-1.36,1.55-1.69,1.19-.56,2.78.41,3.85-.36A2.73,2.73,0,0,0,190,150c1.2-2.67,2-6,.21-8.36A12.47,12.47,0,0,1,189,140c-1.13-2.18,1-5-.05-7.22-.95-2-3.8-2.21-5.46-3.72-2.24-2-1.77-5.92-3.88-8.09-1.78-1.82-5.17-2.24-5.75-4.72a22.14,22.14,0,0,1-.08-2.58c-.34-3-4.21-4.57-4.88-7.54-.29-1.3.09-2.71-.33-4-.28-.85-.9-1.56-1.22-2.4-.85-2.25.61-4.91-.32-7.12-.36-.87-1.06-1.58-1.39-2.46a25.88,25.88,0,0,1-.45-3A8.46,8.46,0,0,0,163.3,84c-2.13-2.66-4.4-5.43-7.57-6.7s-9.68-1.87-12.47.46C139.85,80.55,141.14,86.6,145.53,87.51Z"/></g></g></svg>